<svg width="401" height="400" viewBox="0 0 401 400" fill="none" xmlns="http://www.w3.org/2000/svg">
<g filter="url(#filter0_i)">
<ellipse cx="200.25" cy="200" rx="200.25" ry="200" fill="#F0F0F0"/>
</g>
<mask id="mask0" mask-type="alpha" maskUnits="userSpaceOnUse" x="0" y="0" width="401" height="400">
<ellipse cx="200.25" cy="200" rx="200.25" ry="200" fill="white"/>
</mask>
<g mask="url(#mask0)">
<path d="M279.993 50.1248H117.841C108.795 50.1248 101.462 57.4249 101.462 66.4301V389.819C101.462 398.825 108.795 406.125 117.841 406.125H279.993C289.039 406.125 296.372 398.825 296.372 389.819V66.4301C296.372 57.4249 289.039 50.1248 279.993 50.1248Z" fill="#5C50CA"/>
<path d="M278.899 248.506H117.839C111.808 248.506 106.919 253.373 106.919 259.377V357.209C106.919 363.212 111.808 368.079 117.839 368.079H278.899C284.929 368.079 289.818 363.212 289.818 357.209V259.377C289.818 253.373 284.929 248.506 278.899 248.506Z" fill="white"/>
<path d="M279.993 50.1248H117.841C113.497 50.1248 109.331 51.8426 106.259 54.9005C103.188 57.9583 101.462 62.1057 101.462 66.4301V90.8881H296.372V66.4301C296.372 62.1057 294.646 57.9583 291.575 54.9005C288.503 51.8426 284.337 50.1248 279.993 50.1248V50.1248Z" fill="#3F3D4B"/>
<path d="M101.46 357.209V389.819C101.46 394.144 103.186 398.291 106.257 401.349C109.329 404.407 113.495 406.125 117.839 406.125H279.991C284.335 406.125 288.501 404.407 291.573 401.349C294.644 398.291 296.37 394.144 296.37 389.819V357.209H101.46Z" fill="#3F3D4B"/>
<path d="M236.589 69.1478H160.153C159.4 69.1478 158.789 69.7561 158.789 70.5065C158.789 71.257 159.4 71.8653 160.153 71.8653H236.589C237.343 71.8653 237.954 71.257 237.954 70.5065C237.954 69.7561 237.343 69.1478 236.589 69.1478Z" fill="#B2B1C2"/>
<path d="M199.737 395.254C207.275 395.254 213.386 389.171 213.386 381.667C213.386 374.162 207.275 368.079 199.737 368.079C192.199 368.079 186.088 374.162 186.088 381.667C186.088 389.171 192.199 395.254 199.737 395.254Z" fill="#B2B1C2"/>
<path d="M273.439 327.315H207.923C206.416 327.315 205.193 328.532 205.193 330.033V343.621C205.193 345.122 206.416 346.338 207.923 346.338H273.439C274.947 346.338 276.169 345.122 276.169 343.621V330.033C276.169 328.532 274.947 327.315 273.439 327.315Z" fill="#5C50CA"/>
<path d="M191.548 327.315H126.032C124.524 327.315 123.302 328.532 123.302 330.033V343.621C123.302 345.122 124.524 346.338 126.032 346.338H191.548C193.055 346.338 194.277 345.122 194.277 343.621V330.033C194.277 328.532 193.055 327.315 191.548 327.315Z" stroke="#5C50CA" stroke-width="0.703917" stroke-miterlimit="10"/>
<path d="M244.532 127.358C244.534 127.212 244.482 127.072 244.386 126.961C244.291 126.851 244.158 126.78 244.014 126.76H243.55C242.678 126.781 241.813 126.927 240.984 127.195C239.941 127.495 238.999 128.068 238.254 128.852V127.467C238.254 127.301 238.188 127.142 238.07 127.025C237.952 126.907 237.792 126.841 237.626 126.841H235.224C235.057 126.841 234.897 126.907 234.78 127.025C234.662 127.142 234.596 127.301 234.596 127.467V144.044C234.596 144.209 234.662 144.368 234.78 144.486C234.897 144.603 235.057 144.669 235.224 144.669H237.599C237.683 144.672 237.768 144.659 237.847 144.629C237.927 144.599 237.999 144.554 238.06 144.495C238.121 144.437 238.17 144.367 238.203 144.289C238.237 144.212 238.254 144.128 238.254 144.044V135.429C238.196 134.717 238.313 134.001 238.593 133.343C238.874 132.686 239.31 132.105 239.864 131.652C240.981 130.661 242.387 130.051 243.877 129.912C244.037 129.899 244.186 129.828 244.296 129.713C244.407 129.598 244.472 129.447 244.478 129.287V127.331L244.532 127.358Z" fill="white"/>
<path d="M213.574 128.581C211.768 127.336 209.598 126.725 207.405 126.841H202.464C202.297 126.841 202.138 126.907 202.02 127.025C201.902 127.142 201.836 127.301 201.836 127.467V150.049C201.836 150.215 201.902 150.374 202.02 150.491C202.138 150.609 202.297 150.674 202.464 150.674H204.893C205.06 150.674 205.22 150.609 205.337 150.491C205.455 150.374 205.521 150.215 205.521 150.049V145.239C205.514 145.085 205.566 144.934 205.668 144.817C205.77 144.701 205.913 144.628 206.067 144.614H207.487C209.685 144.711 211.852 144.059 213.629 142.766C214.443 142.156 215.096 141.356 215.529 140.437C215.962 139.519 216.162 138.508 216.113 137.494V133.88C216.156 132.858 215.947 131.84 215.504 130.917C215.062 129.993 214.399 129.191 213.574 128.581ZM212.264 137.494C212.298 138.013 212.203 138.531 211.989 139.005C211.775 139.479 211.448 139.893 211.035 140.212C209.924 140.893 208.624 141.206 207.323 141.109H206.04C205.959 141.109 205.878 141.092 205.804 141.061C205.729 141.029 205.661 140.982 205.605 140.924C205.549 140.866 205.505 140.796 205.477 140.721C205.448 140.645 205.436 140.564 205.439 140.484V130.863C205.439 130.698 205.505 130.539 205.623 130.422C205.741 130.304 205.901 130.238 206.067 130.238H207.323C208.627 130.152 209.925 130.476 211.035 131.162C211.448 131.481 211.775 131.895 211.989 132.369C212.203 132.843 212.298 133.362 212.264 133.88V137.494Z" fill="white"/>
<path d="M245.925 139.94C245.827 141.276 246.183 142.607 246.935 143.718C247.383 144.151 247.92 144.482 248.509 144.689C249.098 144.895 249.726 144.972 250.347 144.913H253.432C253.599 144.913 253.758 144.847 253.876 144.73C253.994 144.613 254.06 144.454 254.06 144.288V142.196C254.06 142.03 253.994 141.871 253.876 141.754C253.758 141.636 253.599 141.571 253.432 141.571H250.484C250.332 141.591 250.177 141.569 250.037 141.507C249.897 141.444 249.778 141.344 249.692 141.217C249.632 140.912 249.632 140.598 249.692 140.293V130.782C249.691 130.629 249.746 130.482 249.846 130.366C249.947 130.251 250.086 130.177 250.238 130.157H253.705C253.792 130.157 253.879 130.139 253.959 130.105C254.039 130.07 254.111 130.019 254.17 129.955C254.229 129.891 254.274 129.816 254.302 129.733C254.33 129.651 254.341 129.564 254.333 129.478V127.303C254.333 127.138 254.267 126.979 254.149 126.862C254.031 126.744 253.872 126.678 253.705 126.678H250.129C249.975 126.665 249.832 126.592 249.73 126.475C249.628 126.359 249.575 126.208 249.583 126.053V121.27C249.587 121.186 249.573 121.102 249.543 121.023C249.513 120.944 249.468 120.872 249.409 120.811C249.35 120.75 249.28 120.701 249.202 120.668C249.124 120.635 249.04 120.618 248.955 120.618H246.58C246.411 120.631 246.251 120.704 246.131 120.823C246.011 120.943 245.938 121.102 245.925 121.27V139.94Z" fill="white"/>
<path d="M225.122 144.94C223.02 144.941 221.002 144.117 219.505 142.647C218.008 141.177 217.153 139.18 217.124 137.087V134.369C217.216 132.338 218.086 130.419 219.553 129.006C221.021 127.593 222.977 126.792 225.019 126.767C227.061 126.743 229.035 127.497 230.536 128.875C232.037 130.253 232.952 132.151 233.094 134.179V136.896C233.108 137.948 232.913 138.991 232.518 139.967C232.124 140.942 231.539 141.83 230.798 142.578C230.056 143.326 229.173 143.921 228.198 144.326C227.224 144.732 226.178 144.941 225.122 144.94ZM225.122 130.157C223.998 130.157 222.919 130.6 222.121 131.389C221.323 132.178 220.871 133.249 220.864 134.369V137.087C220.95 138.149 221.434 139.14 222.221 139.863C223.007 140.586 224.038 140.987 225.109 140.987C226.179 140.987 227.21 140.586 227.997 139.863C228.784 139.14 229.268 138.149 229.354 137.087V134.369C229.347 133.254 228.898 132.187 228.106 131.399C227.315 130.61 226.242 130.164 225.122 130.157Z" fill="white"/>
<path d="M183.926 127.466C183.926 127.301 183.992 127.142 184.11 127.024C184.228 126.907 184.388 126.841 184.554 126.841H187.038C187.205 126.841 187.364 126.907 187.482 127.024C187.6 127.142 187.666 127.301 187.666 127.466V137.087C187.752 138.149 188.236 139.14 189.023 139.863C189.809 140.585 190.841 140.987 191.911 140.987C192.981 140.987 194.013 140.585 194.799 139.863C195.586 139.14 196.07 138.149 196.156 137.087V127.466C196.156 127.301 196.222 127.142 196.34 127.024C196.458 126.907 196.617 126.841 196.784 126.841H199.268C199.434 126.841 199.594 126.907 199.712 127.024C199.83 127.142 199.896 127.301 199.896 127.466V137.087C199.777 139.114 198.883 141.02 197.399 142.414C195.915 143.808 193.951 144.584 191.911 144.584C189.871 144.584 187.907 143.808 186.423 142.414C184.939 141.02 184.045 139.114 183.926 137.087V127.466Z" fill="white"/>
<path d="M178.114 142.522L162.062 118.064C161.937 117.879 161.769 117.727 161.571 117.622C161.373 117.518 161.153 117.463 160.929 117.463C160.705 117.463 160.485 117.518 160.287 117.622C160.09 117.727 159.921 117.879 159.796 118.064L143.745 142.522C143.643 142.669 143.573 142.835 143.537 143.01C143.501 143.185 143.501 143.365 143.537 143.54C143.573 143.715 143.643 143.881 143.745 144.028C143.846 144.175 143.976 144.301 144.127 144.397L144.537 144.587L160.561 150.674C160.79 150.755 161.041 150.755 161.27 150.674L177.322 144.669C177.668 144.573 177.963 144.346 178.142 144.035C178.321 143.725 178.369 143.357 178.277 143.011C178.256 142.864 178.2 142.724 178.114 142.603V142.522ZM160.916 128.934C161.995 128.934 163.051 129.253 163.949 129.85C164.847 130.447 165.546 131.296 165.96 132.289C166.373 133.282 166.481 134.375 166.27 135.429C166.06 136.484 165.54 137.452 164.776 138.212C164.013 138.972 163.04 139.49 161.981 139.7C160.922 139.91 159.824 139.802 158.826 139.391C157.829 138.979 156.976 138.283 156.376 137.389C155.776 136.495 155.456 135.444 155.456 134.369C155.456 132.928 156.031 131.545 157.055 130.526C158.079 129.507 159.468 128.934 160.916 128.934ZM160.916 145.239C155.456 145.239 149.805 143.69 149.805 140.81C149.805 139.071 151.88 137.82 154.692 137.114C154.882 137.524 155.11 137.915 155.374 138.282C152.644 138.907 151.061 139.967 151.061 140.81C151.061 141.19 151.361 141.598 151.962 142.005C152 141.898 152.055 141.797 152.125 141.707C153.544 140.539 155.309 139.87 157.148 139.804C158.267 140.55 159.583 140.948 160.929 140.948C162.275 140.948 163.591 140.55 164.71 139.804C166.515 139.835 168.264 140.435 169.706 141.516C169.779 141.619 169.843 141.728 169.897 141.842C170.47 141.435 170.798 141.027 170.798 140.647C170.798 139.804 169.242 138.744 166.484 138.119C166.739 137.751 166.959 137.36 167.14 136.951C169.869 137.657 172.026 138.907 172.026 140.647C172.026 143.636 166.321 145.239 160.916 145.239Z" fill="white"/>
<path d="M143.024 292.007C143.174 292.343 143.248 292.641 143.248 292.903C143.248 293.425 143.034 293.873 142.604 294.247C142.194 294.601 141.718 294.779 141.176 294.779C140.822 294.779 140.486 294.685 140.168 294.499C139.851 294.293 139.608 293.995 139.44 293.603L137.956 290.299H128.464L126.98 293.603C126.812 293.995 126.57 294.293 126.252 294.499C125.954 294.685 125.618 294.779 125.244 294.779C124.703 294.779 124.218 294.601 123.788 294.247C123.359 293.873 123.144 293.425 123.144 292.903C123.144 292.641 123.219 292.343 123.368 292.007L130.928 276.131C131.134 275.683 131.442 275.347 131.852 275.123C132.263 274.88 132.702 274.759 133.168 274.759C133.654 274.759 134.102 274.88 134.512 275.123C134.923 275.365 135.24 275.701 135.464 276.131L143.024 292.007ZM136.472 286.995L133.224 279.715L129.948 286.995H136.472ZM151.676 294.891C150.257 294.891 149.016 294.601 147.952 294.023C146.888 293.444 146.066 292.623 145.488 291.559C144.928 290.495 144.648 289.244 144.648 287.807C144.648 286.369 144.946 285.109 145.544 284.027C146.16 282.925 147.018 282.076 148.12 281.479C149.221 280.881 150.49 280.583 151.928 280.583C152.674 280.583 153.421 280.685 154.168 280.891C154.933 281.096 155.614 281.385 156.212 281.759C156.79 282.113 157.08 282.636 157.08 283.327C157.08 283.812 156.968 284.213 156.744 284.531C156.52 284.829 156.221 284.979 155.848 284.979C155.605 284.979 155.372 284.941 155.148 284.867C154.942 284.773 154.662 284.643 154.308 284.475C153.916 284.269 153.561 284.111 153.244 283.999C152.945 283.887 152.6 283.831 152.208 283.831C151.162 283.831 150.36 284.167 149.8 284.839C149.258 285.492 148.988 286.453 148.988 287.723C148.988 288.992 149.258 289.963 149.8 290.635C150.36 291.307 151.162 291.643 152.208 291.643C152.6 291.643 152.945 291.596 153.244 291.503C153.542 291.391 153.906 291.223 154.336 290.999C154.69 290.831 154.97 290.709 155.176 290.635C155.381 290.541 155.605 290.495 155.848 290.495C156.202 290.495 156.492 290.653 156.716 290.971C156.958 291.288 157.08 291.689 157.08 292.175C157.08 292.865 156.79 293.379 156.212 293.715C155.614 294.088 154.924 294.377 154.14 294.583C153.356 294.788 152.534 294.891 151.676 294.891ZM165.512 294.891C164.093 294.891 162.852 294.601 161.788 294.023C160.724 293.444 159.902 292.623 159.324 291.559C158.764 290.495 158.484 289.244 158.484 287.807C158.484 286.369 158.782 285.109 159.38 284.027C159.996 282.925 160.854 282.076 161.956 281.479C163.057 280.881 164.326 280.583 165.764 280.583C166.51 280.583 167.257 280.685 168.004 280.891C168.769 281.096 169.45 281.385 170.048 281.759C170.626 282.113 170.916 282.636 170.916 283.327C170.916 283.812 170.804 284.213 170.58 284.531C170.356 284.829 170.057 284.979 169.684 284.979C169.441 284.979 169.208 284.941 168.984 284.867C168.778 284.773 168.498 284.643 168.144 284.475C167.752 284.269 167.397 284.111 167.08 283.999C166.781 283.887 166.436 283.831 166.044 283.831C164.998 283.831 164.196 284.167 163.636 284.839C163.094 285.492 162.824 286.453 162.824 287.723C162.824 288.992 163.094 289.963 163.636 290.635C164.196 291.307 164.998 291.643 166.044 291.643C166.436 291.643 166.781 291.596 167.08 291.503C167.378 291.391 167.742 291.223 168.172 290.999C168.526 290.831 168.806 290.709 169.012 290.635C169.217 290.541 169.441 290.495 169.684 290.495C170.038 290.495 170.328 290.653 170.552 290.971C170.794 291.288 170.916 291.689 170.916 292.175C170.916 292.865 170.626 293.379 170.048 293.715C169.45 294.088 168.76 294.377 167.976 294.583C167.192 294.788 166.37 294.891 165.512 294.891ZM184.024 290.579C184.397 290.579 184.696 290.728 184.92 291.027C185.162 291.325 185.284 291.708 185.284 292.175C185.284 292.492 185.19 292.791 185.004 293.071C184.817 293.332 184.556 293.556 184.22 293.743C183.585 294.079 182.848 294.359 182.008 294.583C181.168 294.788 180.393 294.891 179.684 294.891C178.19 294.891 176.884 294.601 175.764 294.023C174.662 293.444 173.813 292.623 173.216 291.559C172.618 290.476 172.32 289.207 172.32 287.751C172.32 286.351 172.609 285.109 173.188 284.027C173.766 282.944 174.569 282.104 175.596 281.507C176.622 280.891 177.789 280.583 179.096 280.583C180.346 280.583 181.438 280.863 182.372 281.423C183.324 281.964 184.061 282.748 184.584 283.775C185.106 284.783 185.368 285.968 185.368 287.331C185.368 287.741 185.265 288.059 185.06 288.283C184.873 288.488 184.602 288.591 184.248 288.591H176.408C176.538 289.692 176.874 290.495 177.416 290.999C177.957 291.484 178.732 291.727 179.74 291.727C180.281 291.727 180.766 291.661 181.196 291.531C181.625 291.4 182.101 291.223 182.624 290.999C182.885 290.887 183.137 290.793 183.38 290.719C183.622 290.625 183.837 290.579 184.024 290.579ZM179.208 283.495C178.405 283.495 177.761 283.756 177.276 284.279C176.79 284.783 176.501 285.52 176.408 286.491H181.812C181.756 285.501 181.504 284.755 181.056 284.251C180.626 283.747 180.01 283.495 179.208 283.495ZM196.433 280.583C197.609 280.583 198.655 280.891 199.569 281.507C200.503 282.104 201.221 282.953 201.725 284.055C202.248 285.137 202.509 286.388 202.509 287.807C202.509 289.225 202.248 290.476 201.725 291.559C201.221 292.623 200.512 293.444 199.597 294.023C198.683 294.601 197.628 294.891 196.433 294.891C195.5 294.891 194.651 294.704 193.885 294.331C193.139 293.939 192.56 293.397 192.149 292.707V297.999C192.149 298.559 191.963 299.007 191.589 299.343C191.216 299.679 190.721 299.847 190.105 299.847C189.452 299.847 188.92 299.669 188.509 299.315C188.117 298.96 187.921 298.493 187.921 297.915V282.627C187.921 282.029 188.108 281.553 188.481 281.199C188.873 280.825 189.387 280.639 190.021 280.639C190.656 280.639 191.16 280.825 191.533 281.199C191.907 281.553 192.093 282.029 192.093 282.627V282.851C192.504 282.141 193.092 281.591 193.857 281.199C194.623 280.788 195.481 280.583 196.433 280.583ZM195.201 291.671C196.191 291.671 196.956 291.344 197.497 290.691C198.039 290.019 198.309 289.057 198.309 287.807C198.309 286.537 198.039 285.557 197.497 284.867C196.956 284.157 196.191 283.803 195.201 283.803C194.212 283.803 193.447 284.148 192.905 284.839C192.364 285.511 192.093 286.481 192.093 287.751C192.093 289.001 192.364 289.972 192.905 290.663C193.447 291.335 194.212 291.671 195.201 291.671ZM212.601 291.755C213.161 291.792 213.571 291.932 213.833 292.175C214.094 292.417 214.225 292.772 214.225 293.239C214.225 293.78 214.01 294.191 213.581 294.471C213.151 294.751 212.535 294.863 211.733 294.807L210.949 294.751C207.682 294.489 206.049 292.781 206.049 289.627V284.083H204.929C204.313 284.083 203.846 283.952 203.529 283.691C203.211 283.411 203.053 283.019 203.053 282.515C203.053 281.992 203.211 281.6 203.529 281.339C203.846 281.059 204.313 280.919 204.929 280.919H206.049V278.735C206.049 278.119 206.235 277.633 206.609 277.279C207.001 276.924 207.523 276.747 208.177 276.747C208.83 276.747 209.343 276.924 209.717 277.279C210.09 277.633 210.277 278.119 210.277 278.735V280.919H212.237C213.506 280.919 214.141 281.451 214.141 282.515C214.141 283.019 213.982 283.411 213.665 283.691C213.347 283.952 212.871 284.083 212.237 284.083H210.277V289.935C210.277 290.495 210.407 290.924 210.669 291.223C210.93 291.503 211.313 291.661 211.817 291.699L212.601 291.755ZM220.79 288.563C220.379 288.563 220.053 288.423 219.81 288.143C219.586 287.863 219.474 287.489 219.474 287.023C219.474 286.071 219.642 285.277 219.978 284.643C220.333 284.008 220.846 283.308 221.518 282.543C222.022 281.964 222.386 281.488 222.61 281.115C222.853 280.723 222.974 280.284 222.974 279.799C222.974 279.276 222.778 278.865 222.386 278.567C222.013 278.249 221.499 278.091 220.846 278.091C220.249 278.091 219.689 278.212 219.166 278.455C218.662 278.697 217.981 279.071 217.122 279.575C216.581 279.873 216.133 280.023 215.778 280.023C215.386 280.023 215.05 279.855 214.77 279.519C214.509 279.164 214.378 278.744 214.378 278.259C214.378 277.923 214.434 277.643 214.546 277.419C214.677 277.176 214.873 276.952 215.134 276.747C215.955 276.093 216.898 275.589 217.962 275.235C219.045 274.861 220.127 274.675 221.21 274.675C222.367 274.675 223.403 274.88 224.318 275.291C225.251 275.701 225.97 276.271 226.474 276.999C226.997 277.708 227.258 278.511 227.258 279.407C227.258 280.097 227.118 280.732 226.838 281.311C226.577 281.871 226.259 282.365 225.886 282.795C225.513 283.205 225.009 283.719 224.374 284.335C223.665 284.988 223.133 285.539 222.778 285.987C222.423 286.416 222.199 286.901 222.106 287.443C222.031 287.797 221.873 288.077 221.63 288.283C221.406 288.469 221.126 288.563 220.79 288.563ZM220.846 294.835C220.155 294.835 219.586 294.611 219.138 294.163C218.69 293.696 218.466 293.117 218.466 292.427C218.466 291.736 218.69 291.167 219.138 290.719C219.586 290.252 220.155 290.019 220.846 290.019C221.518 290.019 222.078 290.252 222.526 290.719C222.974 291.167 223.198 291.736 223.198 292.427C223.198 293.117 222.974 293.696 222.526 294.163C222.078 294.611 221.518 294.835 220.846 294.835Z" fill="#5C50CA"/>
</g>
<defs>
<filter id="filter0_i" x="0" y="0" width="400.5" height="400" filterUnits="userSpaceOnUse" color-interpolation-filters="sRGB">
<feFlood flood-opacity="0" result="BackgroundImageFix"/>
<feBlend mode="normal" in="SourceGraphic" in2="BackgroundImageFix" result="shape"/>
<feColorMatrix in="SourceAlpha" type="matrix" values="0 0 0 0 0 0 0 0 0 0 0 0 0 0 0 0 0 0 127 0" result="hardAlpha"/>
<feOffset/>
<feGaussianBlur stdDeviation="2.5"/>
<feComposite in2="hardAlpha" operator="arithmetic" k2="-1" k3="1"/>
<feColorMatrix type="matrix" values="0 0 0 0 0 0 0 0 0 0 0 0 0 0 0 0 0 0 0.25 0"/>
<feBlend mode="normal" in2="shape" result="effect1_innerShadow"/>
</filter>
</defs>
</svg>
