<svg width="357" height="208" viewBox="0 0 357 208" fill="none" xmlns="http://www.w3.org/2000/svg">
<mask id="mask0" mask-type="alpha" maskUnits="userSpaceOnUse" x="0" y="0" width="267" height="208">
<path d="M259.001 74.9999C224 -16.0002 124.414 -19.9906 54.0003 45.7507C-157 242.751 333.814 269.514 259.001 74.9999Z" fill="#646FD8"/>
</mask>
<g mask="url(#mask0)">
<path d="M282 90.7507C247 -0.249367 122.413 -19.9905 52.0001 45.7508C-159 242.751 356.814 285.265 282 90.7507Z" fill="#9390E9"/>
<path d="M361.329 31.0698H124.56L53.3293 174.07H361.329V31.0698Z" fill="#B2B8F0"/>
<path d="M-125.135 171.907H40.9114L86.4463 29.5812L45.8533 10.8021L-125.135 29.5812V171.907Z" fill="#B2B8F0"/>
<g filter="url(#filter0_d)">
<path fill-rule="evenodd" clip-rule="evenodd" d="M190.777 87.7348C197.085 82.0096 201.749 74.5802 202.105 65.5991C203.131 39.7221 166.377 40.4926 157.912 52.4823C149.448 64.472 146.638 97.3994 155.464 100.935C158.983 102.346 166.95 101.127 175.323 97.5099L166.568 131.287L195.674 135.209L190.777 87.7348Z" fill="#915B3C"/>
<path fill-rule="evenodd" clip-rule="evenodd" d="M176.338 39.2627C180.19 39.1228 190.423 39.9917 192.301 40.2309C193.501 40.3837 194.771 40.8238 195.605 39.8105C196.288 38.9807 196.245 37.4248 196.535 36.3979C196.873 35.2051 197.293 34.0387 197.717 32.8758C198.921 29.5668 200.53 26.4774 202.615 23.65C206.526 18.3455 211.822 14.4745 218.168 12.6374C225.177 10.609 232.818 10.9127 239.946 12.4121C247.575 14.0165 254.26 17.4484 261.262 20.7685C267.934 23.9322 275.088 25.7537 282.457 25.561C289.88 25.3669 295.836 22.1067 302.411 19.1297C309.142 16.082 316.625 14.4806 324.011 16.0075C330.905 17.433 336.995 21.1247 342.318 25.6985C347.299 29.9779 351.257 34.8676 353.086 41.2735C355.054 48.1642 354.251 55.351 349.173 60.5733C341.812 68.1432 329.639 68.7939 319.736 67.315C314.008 66.46 308.486 64.6926 303.277 62.0933C296.331 58.6265 290.564 53.5149 284.191 49.152C281.199 47.1046 278.069 45.3374 274.738 43.9275C271.506 42.5589 268.267 41.7077 265.021 43.3423C261.587 45.0715 258.489 46.8052 254.684 47.677C251.033 48.5134 247.238 48.7581 243.503 48.2535C236.238 47.272 229.323 44.0907 222.429 41.6721C216.808 39.7 210.784 37.6808 204.78 38.1249C202.274 38.3103 198.581 38.8813 197.413 41.3188C212.005 45.9174 215.801 65.1093 210.095 78.1173C207.016 85.1382 192.443 91.9492 187.574 87.4327C184.489 84.5713 186.882 81.6346 188.435 79.6926C191.41 75.9736 192.851 70.8937 188.493 67.4863C184.733 64.5475 179.855 69.7696 179.776 69.753C178.678 69.5247 169.711 62.8863 163.998 54.1373C157.45 53.6957 156.942 49.2746 158.886 45.9593C160.83 42.644 171.016 39.4566 176.338 39.2627Z" fill="#2F314D"/>
</g>
<g filter="url(#filter1_d)">
<path d="M57.3955 93.3989C77.1629 88.4718 98.2834 104.235 104.596 128.581C110.916 152.953 100.011 176.672 80.2642 181.594C60.517 186.516 39.3828 170.783 33.0633 146.411C26.7438 122.04 37.6282 98.326 57.3955 93.3989ZM70.2972 169.796L68.2675 150.385L75.582 148.562L83.2538 166.566C84.4444 169.338 87.3738 170.459 89.2738 168.769C95.5076 163.274 99.441 154.782 100.217 145.199C100.438 142.578 98.7635 140.007 96.5375 139.53L82.9279 136.601L82.4571 130.318L91.391 120.923C92.942 119.293 92.9395 116.305 91.4199 114.251C83.3129 103.337 70.9992 97.5462 59.2315 100.479C47.4637 103.413 39.4725 114.291 37.6794 127.646C37.3515 130.187 38.7984 132.789 40.955 133.494L53.3804 137.565L56.0274 143.306L45.4971 152.252C43.7736 153.713 43.5545 156.757 45.0256 158.956C50.3753 167.012 57.9678 172.631 66.1212 174.54C68.5938 175.14 70.6213 172.783 70.2972 169.796Z" fill="#3C3C3C"/>
<path d="M83.3526 129.273C85.2274 130.533 85.9163 133.191 84.8814 135.173L75.5817 152.983C74.5469 154.965 72.161 155.557 70.2861 154.297L53.4568 142.971C51.5819 141.712 50.8931 139.054 51.9279 137.072C52.4247 136.12 53.2576 135.431 54.2663 135.18L80.3953 128.696C81.3846 128.45 82.4527 128.668 83.3526 129.273Z" fill="#3B3B3B"/>
<path fill-rule="evenodd" clip-rule="evenodd" d="M140.58 154.581L105.428 123.753C100.439 114.457 95.1922 106.912 89.6867 101.119C87.9013 99.8501 84.5894 98.5542 86.6273 104.92C88.6652 111.286 90.5248 118.064 88.5438 119.408C86.5628 120.751 83.0052 117.378 80.4754 119.791C78.7889 121.399 85.0931 126.063 99.3878 133.781L122.777 166.659L140.58 154.581ZM74.8923 158.031L59.4571 144.461C58.9078 134.692 56.9434 129.378 53.5638 128.518C51.2053 126.7 53.3552 139.389 48.6234 137.213C43.8916 135.037 33.6627 123.304 31.2151 124.615C27.5939 126.556 28.6502 135.396 31.041 140.234C35.5093 149.278 39.9695 153.064 51.6159 159.396C57.7052 162.707 63.9505 167.933 70.3517 175.074L74.8923 158.031Z" fill="#915B3C"/>
<path fill-rule="evenodd" clip-rule="evenodd" d="M159.638 154.35C145.933 150.873 128.216 143.542 111.229 126.458L100.031 141.623C110.755 158.203 127.445 173.738 144.113 177.297C157.248 180.102 167.176 166.005 159.638 154.35Z" fill="#9B3F30"/>
<path fill-rule="evenodd" clip-rule="evenodd" d="M134.507 177.356C118.971 177.483 95.0706 167.32 62.8053 146.866C50.5243 162.414 43.9322 174.012 43.029 181.659C69.6917 204.103 93.8548 217.021 114.839 222.472C111.612 234.638 110.702 246.725 113.593 258.653C119.537 283.175 185.33 277.375 205.196 286.299C226.763 247.892 205.198 225.09 210.684 198.544C216.691 169.472 202.288 119.115 198.803 118.288L167.024 110.751C160.665 132.534 146.764 154.905 134.507 177.356Z" fill="#B94937"/>
</g>
</g>
<g filter="url(#filter2_d)">
<path fill-rule="evenodd" clip-rule="evenodd" d="M194.413 40.9571C195.102 40.1187 195.077 38.5523 195.378 37.5171C195.727 36.3146 196.159 35.1384 196.594 33.9657C197.831 30.6287 199.468 27.5113 201.577 24.6555C205.534 19.2978 210.854 15.3776 217.199 13.5009C224.205 11.4288 231.816 11.7021 238.903 13.1816C246.487 14.7646 253.111 18.1918 260.052 21.5049C266.665 24.6621 273.775 26.4658 281.12 26.2404C288.519 26.0135 294.491 22.7055 301.076 19.6801C307.817 16.5827 315.291 14.9386 322.635 16.4446C329.489 17.8506 335.517 21.5419 340.771 26.1246C345.687 30.4122 349.577 35.3189 351.329 41.7611C353.214 48.691 352.334 55.9307 347.216 61.2106C339.797 68.8639 327.659 69.5708 317.807 68.1238C312.108 67.2873 306.624 65.5312 301.463 62.936C294.58 59.4749 288.889 54.3526 282.586 49.9867C279.628 47.9379 276.528 46.1717 273.224 44.7663C270.019 43.402 266.801 42.5588 263.548 44.2184C260.106 45.9741 257 47.7329 253.198 48.6268C249.551 49.4845 245.766 49.747 242.051 49.2549C234.822 48.2974 227.966 45.1236 221.123 42.7176C215.543 40.7558 209.562 38.7483 203.574 39.221C201.075 39.4183 197.389 40.0089 196.197 42.4681C196.197 42.4681 194.083 41.3586 194.413 40.9571Z" fill="#2F314D"/>
</g>
<defs>
<filter id="filter0_d" x="146.057" y="11.2017" width="212.018" height="132.007" filterUnits="userSpaceOnUse" color-interpolation-filters="sRGB">
<feFlood flood-opacity="0" result="BackgroundImageFix"/>
<feColorMatrix in="SourceAlpha" type="matrix" values="0 0 0 0 0 0 0 0 0 0 0 0 0 0 0 0 0 0 127 0"/>
<feOffset dy="4"/>
<feGaussianBlur stdDeviation="2"/>
<feColorMatrix type="matrix" values="0 0 0 0 0 0 0 0 0 0 0 0 0 0 0 0 0 0 0.25 0"/>
<feBlend mode="normal" in2="BackgroundImageFix" result="effect1_dropShadow"/>
<feBlend mode="normal" in="SourceGraphic" in2="effect1_dropShadow" result="shape"/>
</filter>
<filter id="filter1_d" x="24.8616" y="92.4973" width="194.138" height="201.802" filterUnits="userSpaceOnUse" color-interpolation-filters="sRGB">
<feFlood flood-opacity="0" result="BackgroundImageFix"/>
<feColorMatrix in="SourceAlpha" type="matrix" values="0 0 0 0 0 0 0 0 0 0 0 0 0 0 0 0 0 0 127 0"/>
<feOffset dy="4"/>
<feGaussianBlur stdDeviation="2"/>
<feColorMatrix type="matrix" values="0 0 0 0 0 0 0 0 0 0 0 0 0 0 0 0 0 0 0.25 0"/>
<feBlend mode="normal" in2="BackgroundImageFix" result="effect1_dropShadow"/>
<feBlend mode="normal" in="SourceGraphic" in2="effect1_dropShadow" result="shape"/>
</filter>
<filter id="filter2_d" x="190.378" y="12.0093" width="165.863" height="64.7221" filterUnits="userSpaceOnUse" color-interpolation-filters="sRGB">
<feFlood flood-opacity="0" result="BackgroundImageFix"/>
<feColorMatrix in="SourceAlpha" type="matrix" values="0 0 0 0 0 0 0 0 0 0 0 0 0 0 0 0 0 0 127 0"/>
<feOffset dy="4"/>
<feGaussianBlur stdDeviation="2"/>
<feColorMatrix type="matrix" values="0 0 0 0 0 0 0 0 0 0 0 0 0 0 0 0 0 0 0.25 0"/>
<feBlend mode="normal" in2="BackgroundImageFix" result="effect1_dropShadow"/>
<feBlend mode="normal" in="SourceGraphic" in2="effect1_dropShadow" result="shape"/>
</filter>
</defs>
</svg>
