<svg width="20" height="18" viewBox="0 0 20 18" fill="none" xmlns="http://www.w3.org/2000/svg">
<path d="M1.97941 4.2941C1.35364 5.49318 1 6.85569 1 8.30046C1 13.1051 4.91093 17 9.73531 17C14.5597 17 18.4706 13.1051 18.4706 8.30046C18.4706 6.85569 18.117 5.49318 17.4912 4.2941" stroke="#4654D1" stroke-width="1.48485" stroke-linecap="round"/>
<path d="M9.43363 9.70202L9.43363 1.01436C9.43363 0.866568 9.4933 0.724826 9.59951 0.62032C9.70573 0.515814 9.84979 0.457104 10 0.457104C10.1502 0.457104 10.2943 0.515814 10.4005 0.62032C10.5067 0.724826 10.5664 0.866568 10.5664 1.01436L10.5664 9.70202L13.5681 6.74855C13.6771 6.65796 13.8169 6.61118 13.9594 6.61757C14.1019 6.62396 14.2368 6.68305 14.3369 6.78302C14.4371 6.88299 14.4952 7.01647 14.4997 7.15679C14.5042 7.2971 14.4547 7.43391 14.3611 7.53986L10.3965 11.4407C10.2906 11.5428 10.1482 11.6 10 11.6C9.85175 11.6 9.70941 11.5428 9.60354 11.4407L5.63893 7.53986C5.54532 7.43391 5.49581 7.2971 5.50028 7.15679C5.50475 7.01647 5.56288 6.88299 5.66306 6.78302C5.76323 6.68305 5.89806 6.62396 6.04059 6.61757C6.18312 6.61118 6.32286 6.65796 6.43185 6.74855L9.43363 9.70759L9.43363 9.70202Z" fill="#5C50CA"/>
</svg>
