<svg width="20" height="18" viewBox="0 0 20 18" fill="none" xmlns="http://www.w3.org/2000/svg">
<path d="M1.97941 4.29408C1.35364 5.49317 1 6.85568 1 8.30045C1 13.1051 4.91093 17 9.73532 17C14.5597 17 18.4706 13.1051 18.4706 8.30045C18.4706 6.85568 18.117 5.49317 17.4912 4.29408" stroke="#4654D1" stroke-width="1.48485" stroke-linecap="round"/>
<path d="M10.5664 2.69795L10.5664 11.3856C10.5664 11.5334 10.5067 11.6751 10.4005 11.7797C10.2943 11.8842 10.1502 11.9429 10 11.9429C9.84978 11.9429 9.70573 11.8842 9.59951 11.7797C9.49329 11.6751 9.43362 11.5334 9.43362 11.3856V2.69795L6.43185 5.65142C6.32285 5.74201 6.18312 5.78878 6.04058 5.78239C5.89805 5.776 5.76322 5.71692 5.66305 5.61695C5.56288 5.51698 5.50474 5.3835 5.50027 5.24318C5.4958 5.10287 5.54531 4.96606 5.63892 4.86011L9.60353 0.959299C9.70941 0.857195 9.85175 0.800003 10 0.800003C10.1482 0.800003 10.2906 0.857195 10.3965 0.959299L14.3611 4.86011C14.4547 4.96606 14.5042 5.10287 14.4997 5.24318C14.4952 5.3835 14.4371 5.51698 14.3369 5.61695C14.2368 5.71692 14.1019 5.776 13.9594 5.78239C13.8169 5.78878 13.6771 5.74201 13.5681 5.65142L10.5664 2.69237V2.69795Z" fill="url(#paint0_linear)"/>
<defs>
<linearGradient id="paint0_linear" x1="6.57999" y1="11.9429" x2="6.66948" y2="0.737465" gradientUnits="userSpaceOnUse">
<stop stop-color="#4654D1"/>
<stop offset="0.762502" stop-color="#5C51CB"/>
</linearGradient>
</defs>
</svg>
