<svg width="34" height="31" viewBox="0 0 34 31" fill="none" xmlns="http://www.w3.org/2000/svg">
<circle cx="16" cy="14" r="14" fill="url(#paint0_linear)"/>
<circle cx="27" cy="22" r="7" fill="url(#paint1_linear)"/>
<path fill-rule="evenodd" clip-rule="evenodd" d="M27 16C27 16.4291 26.9792 16.8534 26.9386 17.2719C26.323 17.0949 25.6726 17 25 17C22.4408 17 20.2023 18.3734 18.9814 20.4234C18.1563 19.6947 17.1702 19.144 16.0832 18.8317C18.4313 17.971 20.1088 15.6971 20.1088 13.0273C20.1088 9.61818 17.3737 6.85455 13.9997 6.85455C10.6258 6.85455 7.89062 9.61818 7.89062 13.0273C7.89062 15.6972 9.56825 17.9712 11.9165 18.8318C8.77217 19.7355 6.47168 22.6332 6.47168 26.0681V26.5996C3.16009 24.2433 1 20.3739 1 16C1 8.8203 6.8203 3 14 3C21.1797 3 27 8.8203 27 16ZM7.52842 27.2772C9.43411 28.3732 11.6439 29 14 29C15.8484 29 17.6068 28.6142 19.1989 27.9188C18.442 26.8006 18 25.4519 18 24C18 23.0856 18.1753 22.2122 18.4942 21.4115C18.2278 21.1543 17.9394 20.9198 17.6322 20.7111C17.4851 20.9054 17.2828 21.1396 17.0194 21.3737C16.385 21.9376 15.3961 22.5 13.9997 22.5C12.6033 22.5 11.6144 21.9376 10.98 21.3737C10.7168 21.1397 10.5145 20.9057 10.3675 20.7114C8.65401 21.8756 7.52842 23.8404 7.52842 26.0681V27.2772ZM28 16C28 16.5513 27.9681 17.0952 27.9061 17.6299C30.3216 18.7336 32 21.1708 32 24C32 27.866 28.866 31 25 31C22.9567 31 21.1179 30.1246 19.8382 28.7283C18.0612 29.5448 16.0838 30 14 30C6.26801 30 0 23.732 0 16C0 8.26801 6.26801 2 14 2C21.732 2 28 8.26801 28 16ZM13.9997 18.2C16.4713 18.2 18.5452 16.4183 19.011 14.0403C18.7898 14.0069 18.5872 13.9162 18.4064 13.7888C18.0931 13.568 17.8386 13.233 17.6259 12.9335C17.5615 12.8428 17.5 12.7541 17.4398 12.6672L17.4398 12.6671L17.4398 12.667C17.2843 12.4426 17.1375 12.2307 16.9712 12.0302C16.746 11.7586 16.5266 11.5626 16.2912 11.4541C15.6386 11.1532 14.9871 11.357 14.1301 11.625L14.0329 11.6554C13.2099 11.9122 12.132 12.2252 11.1688 11.3748C10.6751 10.939 10.3255 10.2357 10.1077 9.70565L10.0995 9.68561C9.34604 10.5857 8.89062 11.7509 8.89062 13.0273C8.89062 15.8939 11.1878 18.2 13.9997 18.2ZM18.9825 12.9714C19.0276 13.0032 19.0685 13.0257 19.1088 13.0392L19.1088 13.0273C19.1088 10.1607 16.8116 7.85455 13.9997 7.85455C12.8282 7.85455 11.746 8.25485 10.8821 8.92919C10.9243 9.0494 10.9746 9.18424 11.0328 9.32571C11.2428 9.83701 11.5215 10.3523 11.8306 10.6252C12.3314 11.0673 12.8671 10.9716 13.7351 10.7008C13.7923 10.683 13.851 10.6642 13.9113 10.645L13.9114 10.645C14.6798 10.4001 15.6931 10.0772 16.7098 10.5459C17.14 10.7442 17.473 11.0688 17.7409 11.3918C17.9373 11.6285 18.1213 11.8943 18.2842 12.1295C18.3391 12.2088 18.3915 12.2845 18.4413 12.3545C18.6568 12.658 18.8249 12.8603 18.9825 12.9714ZM14 19.5965C14.985 19.5965 15.9185 19.8165 16.7542 20.2101C16.6496 20.3382 16.5171 20.4822 16.355 20.6263C15.8644 21.0624 15.1033 21.5 13.9997 21.5C12.8961 21.5 12.135 21.0624 11.6444 20.6263C11.4824 20.4823 11.35 20.3383 11.2454 20.2103C12.0812 19.8166 13.0149 19.5965 14 19.5965Z" fill="url(#paint2_linear)"/>
<path fill-rule="evenodd" clip-rule="evenodd" d="M29.3452 21.6383C29.545 21.829 29.5524 22.1455 29.3617 22.3452L24.2113 27.7408L21.6238 24.7855C21.4419 24.5777 21.4629 24.2619 21.6706 24.08C21.8784 23.898 22.1943 23.919 22.3762 24.1268L24.2432 26.2592L28.6383 21.6548C28.829 21.455 29.1455 21.4477 29.3452 21.6383Z" fill="white"/>
<defs>
<linearGradient id="paint0_linear" x1="32" y1="27.9999" x2="5.29901" y2="27.1929" gradientUnits="userSpaceOnUse">
<stop stop-color="#CECBEF"/>
<stop offset="1" stop-color="#C8CCF1"/>
</linearGradient>
<linearGradient id="paint1_linear" x1="31.5" y1="29" x2="3.41152" y2="28.8982" gradientUnits="userSpaceOnUse">
<stop stop-color="#CECBEF"/>
<stop offset="1" stop-color="#C8CCF1"/>
</linearGradient>
<linearGradient id="paint2_linear" x1="32" y1="27.52" x2="-0.180017" y2="27.291" gradientUnits="userSpaceOnUse">
<stop stop-color="#4654D1"/>
<stop offset="0.762502" stop-color="#5C51CB"/>
</linearGradient>
</defs>
</svg>
