<svg width="95" height="50" viewBox="0 0 95 50" fill="none" xmlns="http://www.w3.org/2000/svg">
<path fill-rule="evenodd" clip-rule="evenodd" d="M91.9041 1.74419H2.32669C2.00544 1.74419 1.74501 2.00449 1.74501 2.32558V47.6744C1.74501 47.9955 2.00544 48.2558 2.32668 48.2558H91.9041C92.2253 48.2558 92.4858 47.9955 92.4858 47.6744V2.32558C92.4858 2.00448 92.2253 1.74419 91.9041 1.74419ZM2.32669 0C1.04169 0 0 1.0412 0 2.32558V47.6744C0 48.9588 1.04169 50 2.32668 50H91.9041C93.1891 50 94.2308 48.9588 94.2308 47.6744V2.32558C94.2308 1.0412 93.1891 0 91.9041 0H2.32669Z" fill="white"/>
<path fill-rule="evenodd" clip-rule="evenodd" d="M47.1152 12.8606C47.1152 12.377 47.5073 11.9849 47.9909 11.9849H82.4346C82.9182 11.9849 83.3103 12.377 83.3103 12.8606C83.3103 13.3442 82.9182 13.7363 82.4346 13.7363H47.9909C47.5073 13.7363 47.1152 13.3442 47.1152 12.8606Z" fill="white"/>
<path fill-rule="evenodd" clip-rule="evenodd" d="M47.1152 19.8661C47.1152 19.3825 47.5073 18.9904 47.9909 18.9904H74.2615C74.7452 18.9904 75.1372 19.3825 75.1372 19.8661C75.1372 20.3497 74.7452 20.7418 74.2615 20.7418H47.9909C47.5073 20.7418 47.1152 20.3497 47.1152 19.8661Z" fill="white"/>
<path fill-rule="evenodd" clip-rule="evenodd" d="M47.1152 26.8716C47.1152 26.388 47.5073 25.9959 47.9909 25.9959H78.9319C79.4155 25.9959 79.8075 26.388 79.8075 26.8716C79.8075 27.3552 79.4155 27.7473 78.9319 27.7473H47.9909C47.5073 27.7473 47.1152 27.3552 47.1152 26.8716Z" fill="white"/>
<path fill-rule="evenodd" clip-rule="evenodd" d="M47.1152 33.8771C47.1152 33.3935 47.5073 33.0014 47.9909 33.0014H61.4181C61.9017 33.0014 62.2938 33.3935 62.2938 33.8771C62.2938 34.3607 61.9017 34.7528 61.4181 34.7528H47.9909C47.5073 34.7528 47.1152 34.3607 47.1152 33.8771Z" fill="white"/>
<path fill-rule="evenodd" clip-rule="evenodd" d="M64.4912 33.8771C64.4912 33.3935 64.8833 33.0014 65.3669 33.0014H78.7941C79.2777 33.0014 79.6698 33.3935 79.6698 33.8771C79.6698 34.3607 79.2777 34.7528 78.7941 34.7528H65.3669C64.8833 34.7528 64.4912 34.3607 64.4912 33.8771Z" fill="white"/>
<path fill-rule="evenodd" clip-rule="evenodd" d="M14.8786 32.7444C14.7609 33.9698 14.2664 36.2982 13.7954 38.2589C16.7163 40.8568 20.5076 41.248 24.6509 41.248C28.0429 41.248 31.1754 40.6999 33.8111 38.8932L33.7805 38.726C33.3066 36.1404 32.5521 32.0243 33.1282 27.1073C34.1879 18.4066 29.8315 13.1372 24.5333 13.1372C23.9446 13.1372 23.3559 13.2597 22.7672 13.3822C22.5317 13.3822 21.943 11.2245 21.943 11.2245C21.943 11.2245 21.3543 13.6273 20.8833 13.7499C20.0592 13.995 17.1157 11.9598 17.1157 11.9598C17.1157 11.9598 18.9995 14.4851 18.6463 14.9753C18.4108 15.343 16.056 15.2204 16.056 15.2204C16.056 15.2204 17.5866 16.4459 17.3512 16.691C15.8206 18.6517 14.8786 21.1026 14.8786 23.7986C14.8786 23.7986 15.1141 30.5386 14.8786 32.7444ZM21.2569 21.2097C21.4642 21.1505 21.6109 21.2045 21.7252 21.2807L21.905 21.4479C22.0868 21.7129 22.4485 21.7833 22.7168 21.6045C22.9873 21.4241 23.0604 21.0586 22.8801 20.7881L22.3946 21.1118C22.8801 20.7881 22.8799 20.7878 22.8798 20.7876L22.8795 20.7871L22.8788 20.7861L22.8773 20.7838L22.8736 20.7785L22.864 20.7648C22.8566 20.7544 22.847 20.7413 22.8353 20.7261C22.8119 20.6957 22.7797 20.6562 22.7388 20.6113C22.658 20.5226 22.5377 20.4073 22.3783 20.301C22.0511 20.0829 21.5503 19.9014 20.9334 20.0776C20.3358 20.2484 19.9897 20.6396 19.802 20.9732C19.7095 21.1376 19.6534 21.2907 19.6199 21.4041C19.603 21.4612 19.5915 21.5098 19.5838 21.5465C19.5799 21.5649 19.577 21.5804 19.5748 21.5928L19.5721 21.6089L19.5712 21.6151L19.5708 21.6178L19.5706 21.619L19.5705 21.6195C19.5705 21.6198 19.5704 21.6201 20.1528 21.7033L19.5704 21.6201C19.5245 21.9419 19.7481 22.2401 20.07 22.2861C20.3893 22.3317 20.6853 22.112 20.7349 21.7942L20.736 21.7884C20.738 21.7792 20.742 21.7615 20.7491 21.7377C20.7634 21.6891 20.7882 21.6215 20.8282 21.5504C20.9055 21.413 21.0303 21.2745 21.2569 21.2097ZM25.1383 21.1715C24.9769 21.4536 24.6175 21.5515 24.3353 21.3903C24.053 21.2289 23.9549 20.8693 24.1162 20.587L24.6274 20.8791C24.1162 20.587 24.1161 20.5872 24.1162 20.587L24.1171 20.5856L24.1181 20.5838L24.1207 20.5794L24.128 20.567C24.1339 20.5572 24.1417 20.5444 24.1515 20.529C24.1709 20.4982 24.1982 20.4568 24.233 20.4082C24.3017 20.312 24.4033 20.1824 24.5349 20.0508C24.7832 19.8025 25.2201 19.4662 25.8048 19.4662C26.3895 19.4662 26.8263 19.8025 27.0747 20.0508C27.2063 20.1824 27.3079 20.312 27.3766 20.4082C27.4113 20.4568 27.4386 20.4982 27.458 20.529C27.4678 20.5444 27.4756 20.5572 27.4815 20.567L27.4889 20.5794L27.4915 20.5838L27.4925 20.5856L27.4931 20.5867L26.9822 20.8791C27.4933 20.587 27.4932 20.5869 27.4931 20.5867C27.6544 20.869 27.5565 21.2289 27.2742 21.3903C26.9926 21.5512 26.634 21.4539 26.4722 21.1732L26.4631 21.1584C26.454 21.1441 26.439 21.1212 26.4185 21.0925C26.3768 21.0342 26.3165 20.9577 26.2421 20.8833C26.0783 20.7195 25.9265 20.6436 25.8048 20.6436C25.683 20.6436 25.5312 20.7195 25.3674 20.8833C25.293 20.9577 25.2327 21.0342 25.191 21.0925C25.1706 21.1212 25.1556 21.1441 25.1465 21.1584L25.1376 21.1727L25.1383 21.1715ZM29.6869 23.0611L29.7661 22.3221L19.0938 23.6561V24.1758C19.0938 26.8721 21.4835 29.3303 24.4574 29.5895C26.0267 29.7317 27.2685 28.8935 28.1273 27.6621C28.9799 26.4396 29.5032 24.7762 29.6869 23.0611ZM24.5605 28.4166C22.3275 28.2225 20.5911 26.5199 20.3108 24.6906L28.4126 23.6778C28.1894 24.9685 27.7569 26.135 27.1616 26.9886C26.4605 27.9939 25.5833 28.5096 24.5628 28.4169L24.5605 28.4166Z" fill="white"/>
<path fill-rule="evenodd" clip-rule="evenodd" d="M24.0386 8.86972C15.1301 8.86972 7.90835 16.0915 7.90835 25C7.90835 33.9085 15.1301 41.1303 24.0386 41.1303C32.9472 41.1303 40.1689 33.9085 40.1689 25C40.1689 16.0915 32.9472 8.86972 24.0386 8.86972ZM6.73096 25C6.73096 15.4412 14.4799 7.69232 24.0386 7.69232C33.5974 7.69232 41.3463 15.4412 41.3463 25C41.3463 34.5588 33.5974 42.3077 24.0386 42.3077C14.4799 42.3077 6.73096 34.5588 6.73096 25Z" fill="white"/>
</svg>
