<svg width="95" height="50" viewBox="0 0 95 50" fill="none" xmlns="http://www.w3.org/2000/svg">
<path fill-rule="evenodd" clip-rule="evenodd" d="M91.9041 1.74419H2.32669C2.00544 1.74419 1.74501 2.00449 1.74501 2.32558V47.6744C1.74501 47.9955 2.00544 48.2558 2.32668 48.2558H91.9041C92.2253 48.2558 92.4858 47.9955 92.4858 47.6744V2.32558C92.4858 2.00448 92.2253 1.74419 91.9041 1.74419ZM2.32669 0C1.04169 0 0 1.0412 0 2.32558V47.6744C0 48.9588 1.04169 50 2.32668 50H91.9041C93.1891 50 94.2308 48.9588 94.2308 47.6744V2.32558C94.2308 1.0412 93.1891 0 91.9041 0H2.32669Z" fill="white"/>
<path fill-rule="evenodd" clip-rule="evenodd" d="M47.1152 12.8606C47.1152 12.377 47.5073 11.9849 47.9909 11.9849H82.4346C82.9182 11.9849 83.3103 12.377 83.3103 12.8606C83.3103 13.3442 82.9182 13.7363 82.4346 13.7363H47.9909C47.5073 13.7363 47.1152 13.3442 47.1152 12.8606Z" fill="white"/>
<path fill-rule="evenodd" clip-rule="evenodd" d="M47.1152 19.8661C47.1152 19.3825 47.5073 18.9904 47.9909 18.9904H74.2615C74.7452 18.9904 75.1372 19.3825 75.1372 19.8661C75.1372 20.3497 74.7452 20.7418 74.2615 20.7418H47.9909C47.5073 20.7418 47.1152 20.3497 47.1152 19.8661Z" fill="white"/>
<path fill-rule="evenodd" clip-rule="evenodd" d="M47.1152 26.8716C47.1152 26.388 47.5073 25.9959 47.9909 25.9959H78.9319C79.4155 25.9959 79.8075 26.388 79.8075 26.8716C79.8075 27.3552 79.4155 27.7473 78.9319 27.7473H47.9909C47.5073 27.7473 47.1152 27.3552 47.1152 26.8716Z" fill="white"/>
<path fill-rule="evenodd" clip-rule="evenodd" d="M47.1152 33.8771C47.1152 33.3935 47.5073 33.0014 47.9909 33.0014H61.4181C61.9017 33.0014 62.2938 33.3935 62.2938 33.8771C62.2938 34.3607 61.9017 34.7528 61.4181 34.7528H47.9909C47.5073 34.7528 47.1152 34.3607 47.1152 33.8771Z" fill="white"/>
<path fill-rule="evenodd" clip-rule="evenodd" d="M64.4912 33.8771C64.4912 33.3935 64.8833 33.0014 65.3669 33.0014H78.7941C79.2777 33.0014 79.6698 33.3935 79.6698 33.8771C79.6698 34.3607 79.2777 34.7528 78.7941 34.7528H65.3669C64.8833 34.7528 64.4912 34.3607 64.4912 33.8771Z" fill="white"/>
<g clip-path="url(#clip0)">
<path fill-rule="evenodd" clip-rule="evenodd" d="M21.3928 12.6093L21.8621 11.6707L22.4184 12.5607L22.4193 12.5621L22.4233 12.5684L22.4402 12.595C22.4553 12.6184 22.4774 12.6524 22.5048 12.6935C22.56 12.7763 22.6344 12.8844 22.714 12.9906C22.7712 13.0669 22.8255 13.1346 22.8732 13.1887C23.3862 13.0879 23.944 12.9906 24.5095 12.9906C27.3589 12.9906 29.9491 14.3568 31.6734 16.8178C33.3936 19.273 34.2324 22.7833 33.6887 27.0743C33.1114 31.8103 33.8043 36.3305 34.2715 38.7831L33.1149 39.0034C32.6402 36.5112 31.9204 31.8484 32.5201 26.9303L32.5205 26.9275C33.0361 22.8596 32.2266 19.6593 30.7091 17.4934C29.1956 15.3332 26.9584 14.168 24.5095 14.168C23.9891 14.168 23.4582 14.2722 22.8589 14.392L22.8017 14.4035H22.7434C22.5371 14.4035 22.3818 14.3094 22.3139 14.2641C22.2302 14.2083 22.157 14.1418 22.099 14.0839C22.0532 14.038 22.0076 13.9881 21.9635 13.9369C21.8704 14.0675 21.7641 14.2028 21.6493 14.3229C21.5125 14.4659 21.2944 14.6625 21.013 14.7364C20.6861 14.8277 20.3238 14.8052 20.0159 14.7569C19.7635 14.7173 19.5069 14.6534 19.2691 14.5827C19.2841 14.6607 19.2958 14.7399 19.3028 14.819C19.3235 15.0538 19.3129 15.3968 19.1026 15.6863C18.9191 15.9498 18.6284 16.0531 18.4555 16.0996C18.2878 16.1448 18.1099 16.1671 17.9507 16.1782C17.9764 16.3343 17.9971 16.5089 17.9971 16.6736C17.9971 16.771 17.99 16.8855 17.963 17.0002C17.9395 17.1004 17.8897 17.2485 17.7724 17.3796C16.3282 19.1633 15.4461 21.38 15.4436 23.8122L15.4458 23.8754L15.4529 24.0856C15.4589 24.2675 15.4672 24.5296 15.4765 24.8506C15.4949 25.4926 15.5171 26.371 15.5318 27.3162C15.5611 29.1874 15.5627 31.3742 15.4403 32.4794C15.3175 33.7037 14.8374 35.9744 14.3664 37.8586L13.2241 37.5731C13.6946 35.6914 14.156 33.4903 14.2691 32.359L14.2698 32.3526C14.3826 31.3375 14.3842 29.2291 14.3546 27.3346C14.3399 26.3959 14.3179 25.5229 14.2996 24.8845C14.2904 24.5653 14.2821 24.3049 14.2762 24.1244L14.2691 23.9163L14.2666 23.8451L14.2662 23.8333V23.8226C14.2662 21.1141 15.2416 18.6542 16.8196 16.6856C16.8196 16.6819 16.8197 16.6779 16.8197 16.6736C16.8197 16.5818 16.8046 16.4524 16.7777 16.3043C16.7516 16.161 16.7184 16.0212 16.6912 15.9156C16.6777 15.8633 16.666 15.8206 16.6578 15.7915L16.6484 15.7588L16.6462 15.7512L16.6458 15.75L16.3931 14.9076L17.2676 14.995L17.2754 14.9957L17.3062 14.9983C17.334 15.0004 17.3752 15.0033 17.4258 15.0057C17.5282 15.0107 17.6633 15.0137 17.8011 15.0075C17.9344 15.0014 18.0491 14.9875 18.1326 14.967C18.1323 14.9544 18.1315 14.9396 18.13 14.9225C18.1194 14.8029 18.0809 14.6482 18.0221 14.4783C17.9649 14.313 17.8967 14.1568 17.8417 14.04C17.8145 13.9823 17.7912 13.9358 17.7751 13.9044L17.757 13.8696L17.7529 13.8619L17.7523 13.8607L16.8944 12.288L18.518 13.0457L18.5209 13.047L18.5332 13.0527C18.5446 13.0578 18.5621 13.0657 18.585 13.0759C18.6309 13.0962 18.6985 13.1255 18.7826 13.1601C18.9515 13.2298 19.1832 13.3196 19.437 13.402C19.693 13.485 19.9588 13.5562 20.1984 13.5938C20.4459 13.6326 20.6083 13.626 20.6929 13.6033C20.6984 13.599 20.7338 13.5766 20.7984 13.509C20.8865 13.417 20.9826 13.2901 21.0762 13.1497C21.168 13.012 21.2481 12.8754 21.3057 12.772C21.3343 12.7208 21.3567 12.6787 21.3718 12.6501L21.3884 12.618L21.3922 12.6106L21.3928 12.6093Z" fill="url(#paint0_linear)"/>
<path d="M24.0388 41.719C33.2725 41.719 40.7578 34.2336 40.7578 25C40.7578 15.7664 33.2725 8.28101 24.0388 8.28101C14.8052 8.28101 7.31982 15.7664 7.31982 25C7.31982 34.2336 14.8052 41.719 24.0388 41.719Z" fill="#5C51CB"/>
<path d="M13.7954 38.2589C14.2664 36.2982 14.7609 33.9698 14.8786 32.7444C15.1141 30.5386 14.8786 23.7986 14.8786 23.7986C14.8786 21.1026 15.8206 18.6517 17.3512 16.691C17.5866 16.4459 16.056 15.2204 16.056 15.2204C16.056 15.2204 18.4108 15.343 18.6463 14.9753C18.9995 14.4852 17.1157 11.9598 17.1157 11.9598C17.1157 11.9598 20.0592 13.995 20.8833 13.7499C21.3543 13.6273 21.943 11.2245 21.943 11.2245C21.943 11.2245 22.5317 13.3822 22.7672 13.3822C23.3559 13.2597 23.9446 13.1372 24.5333 13.1372C29.8315 13.1372 34.1879 18.4066 33.1282 27.1073C32.5395 32.1316 33.3402 36.3198 33.8111 38.8933" fill="white"/>
<path d="M13.7954 38.2589C14.2664 36.2982 14.7609 33.9698 14.8786 32.7444C15.1141 30.5386 14.8786 23.7986 14.8786 23.7986C14.8786 21.1026 15.8206 18.6517 17.3512 16.691C17.5866 16.4459 16.056 15.2204 16.056 15.2204C16.056 15.2204 18.4108 15.343 18.6463 14.9753C18.9995 14.4852 17.1157 11.9598 17.1157 11.9598C17.1157 11.9598 20.0592 13.995 20.8833 13.7499C21.3543 13.6273 21.943 11.2245 21.943 11.2245C21.943 11.2245 22.5317 13.3822 22.7672 13.3822C23.3559 13.2597 23.9446 13.1372 24.5333 13.1372C29.8315 13.1372 34.1879 18.4066 33.1282 27.1073C32.5395 32.1316 33.3402 36.3198 33.8111 38.8933C31.1754 40.6999 28.0429 41.248 24.6509 41.248C20.5076 41.248 16.7163 40.8568 13.7954 38.2589Z" fill="white"/>
<path fill-rule="evenodd" clip-rule="evenodd" d="M21.7252 21.2807C21.6109 21.2045 21.4642 21.1505 21.2569 21.2097C21.0303 21.2745 20.9055 21.413 20.8282 21.5504C20.7882 21.6215 20.7634 21.6891 20.7491 21.7377C20.742 21.7615 20.738 21.7792 20.736 21.7884C20.7354 21.7912 20.7351 21.7932 20.7349 21.7943C20.7349 21.7943 20.7349 21.7943 20.7349 21.7943C20.6853 22.112 20.3893 22.3317 20.07 22.2861C19.7481 22.2401 19.5245 21.9419 19.5704 21.6201L20.1532 21.7033C19.5704 21.6201 19.5705 21.6198 19.5705 21.6195L19.5706 21.619L19.5708 21.6178L19.5712 21.6151L19.5721 21.6089L19.5748 21.5928C19.577 21.5804 19.5799 21.5649 19.5838 21.5465C19.5915 21.5098 19.603 21.4612 19.6199 21.4041C19.6534 21.2907 19.7095 21.1376 19.802 20.9732C19.9897 20.6396 20.3358 20.2484 20.9334 20.0776C21.5503 19.9014 22.0511 20.0829 22.3783 20.301C22.5377 20.4073 22.658 20.5226 22.7388 20.6113C22.7797 20.6562 22.8119 20.6957 22.8353 20.7261C22.847 20.7413 22.8566 20.7544 22.864 20.7648L22.8736 20.7785L22.8773 20.7839L22.8788 20.7861L22.8795 20.7871L22.8798 20.7876C22.8799 20.7879 22.8801 20.7881 22.3946 21.1118L22.8801 20.7881C23.0605 21.0586 22.9873 21.4241 22.7168 21.6045C22.4485 21.7833 22.0868 21.7129 21.905 21.4479C21.9054 21.4485 21.9056 21.4488 21.9056 21.4487L21.9042 21.4467L21.9026 21.4444L21.9016 21.4429L21.9011 21.4421C21.9023 21.444 21.9037 21.4459 21.905 21.4479M21.9011 21.4421L21.901 21.4421L21.901 21.442C21.901 21.442 21.901 21.4421 21.9011 21.4421Z" fill="#5C50CA"/>
<path fill-rule="evenodd" clip-rule="evenodd" d="M25.1383 21.1715C24.9769 21.4536 24.6175 21.5515 24.3353 21.3903C24.053 21.229 23.9549 20.8693 24.1162 20.5871L24.6274 20.8791C24.1162 20.5871 24.1161 20.5872 24.1162 20.5871L24.1171 20.5856L24.1181 20.5838L24.1207 20.5794L24.128 20.567C24.1339 20.5572 24.1417 20.5444 24.1515 20.529C24.1709 20.4982 24.1982 20.4568 24.233 20.4082C24.3017 20.312 24.4033 20.1824 24.5349 20.0508C24.7832 19.8025 25.2201 19.4663 25.8048 19.4663C26.3895 19.4663 26.8263 19.8025 27.0747 20.0508C27.2063 20.1824 27.3079 20.312 27.3766 20.4082C27.4113 20.4568 27.4386 20.4982 27.458 20.529C27.4678 20.5444 27.4756 20.5572 27.4815 20.567L27.4889 20.5794L27.4915 20.5838L27.4925 20.5856L27.4931 20.5867C27.4932 20.5869 27.4933 20.5871 26.9822 20.8791L27.4931 20.5867C27.6544 20.869 27.5565 21.229 27.2742 21.3903C26.9921 21.5515 26.6327 21.4536 26.4713 21.1716L26.4722 21.1732C26.4723 21.1735 26.4729 21.1743 26.4722 21.1732L26.4631 21.1585C26.454 21.1441 26.439 21.1212 26.4185 21.0925C26.3768 21.0342 26.3165 20.9577 26.2421 20.8833C26.0783 20.7195 25.9265 20.6436 25.8048 20.6436C25.683 20.6436 25.5312 20.7195 25.3674 20.8833C25.293 20.9577 25.2327 21.0342 25.191 21.0925C25.1706 21.1212 25.1556 21.1441 25.1465 21.1585L25.1376 21.1728L25.1383 21.1715Z" fill="#5C50CA"/>
<path fill-rule="evenodd" clip-rule="evenodd" d="M29.7661 22.3221L29.6869 23.0612C29.5032 24.7762 28.9799 26.4396 28.1273 27.6621C27.2685 28.8936 26.0267 29.7317 24.4574 29.5895C21.4835 29.3303 19.0938 26.8721 19.0938 24.1758V23.6561L29.7661 22.3221ZM20.3108 24.6906C20.5911 26.5199 22.3275 28.2225 24.5605 28.4167L24.5628 28.4169C25.5833 28.5096 26.4605 27.9939 27.1616 26.9886C27.7569 26.135 28.1894 24.9685 28.4126 23.6778L20.3108 24.6906Z" fill="#5C50CA"/>
<path fill-rule="evenodd" clip-rule="evenodd" d="M24.0386 8.86972C15.1301 8.86972 7.90835 16.0915 7.90835 25C7.90835 33.9085 15.1301 41.1303 24.0386 41.1303C32.9472 41.1303 40.1689 33.9085 40.1689 25C40.1689 16.0915 32.9472 8.86972 24.0386 8.86972ZM6.73096 25C6.73096 15.4412 14.4799 7.69232 24.0386 7.69232C33.5974 7.69232 41.3463 15.4412 41.3463 25C41.3463 34.5588 33.5974 42.3077 24.0386 42.3077C14.4799 42.3077 6.73096 34.5588 6.73096 25Z" fill="white"/>
</g>
<defs>
<linearGradient id="paint0_linear" x1="33.6932" y1="35.7709" x2="13.6828" y2="35.6722" gradientUnits="userSpaceOnUse">
<stop stop-color="#4654D1"/>
<stop offset="1" stop-color="#5C51CB"/>
</linearGradient>
<clipPath id="clip0">
<rect width="34.6154" height="34.6154" fill="white" transform="translate(6.73096 7.69232)"/>
</clipPath>
</defs>
</svg>
