<svg width="148" height="123" viewBox="0 0 148 123" fill="none" xmlns="http://www.w3.org/2000/svg">
<ellipse cx="88" cy="61.3988" rx="60" ry="60.8324" fill="#EEEDF4"/>
<g filter="url(#filter0_d)">
<ellipse cx="118.8" cy="47.9376" rx="11.2308" ry="11.3866" fill="#5952FF"/>
<path d="M116.5 47.6207L118.231 49.4005L122.628 44.8474C122.884 44.6232 123.213 44.5073 123.548 44.5232C123.883 44.539 124.2 44.6853 124.436 44.9328C124.672 45.1803 124.808 45.5108 124.819 45.8582C124.83 46.2056 124.713 46.5443 124.493 46.8067L119.164 52.3256C118.915 52.5784 118.58 52.72 118.231 52.72C117.883 52.72 117.548 52.5784 117.299 52.3256L114.634 49.5661C114.414 49.3038 114.298 48.9651 114.308 48.6177C114.319 48.2703 114.456 47.9398 114.691 47.6922C114.927 47.4447 115.244 47.2984 115.579 47.2826C115.914 47.2668 116.243 47.3826 116.5 47.6069V47.6207Z" fill="#EEEDF4"/>
</g>
<mask id="mask0" mask-type="alpha" maskUnits="userSpaceOnUse" x="28" y="0" width="120" height="123">
<ellipse cx="88" cy="61.3988" rx="60" ry="60.8324" fill="#EEEDF4"/>
</mask>
<g mask="url(#mask0)">
<g filter="url(#filter1_d)">
<path fill-rule="evenodd" clip-rule="evenodd" d="M78.6539 74.0594L94.9254 61.644C97.3842 57.7263 99.9025 54.5838 102.48 52.2167C103.298 51.7162 104.782 51.2511 103.699 53.9764C102.617 56.7018 101.599 59.6131 102.422 60.263C103.246 60.913 104.9 59.5452 105.93 60.6805C106.617 61.4374 103.725 63.285 97.2551 66.2233L86.0525 79.9008L78.6539 74.0594ZM107.203 77.6036L114.348 72.1374C114.885 67.8754 115.904 65.6083 117.404 65.3361C118.488 64.6131 117.164 70.1044 119.294 69.2978C121.425 68.4912 126.243 63.6682 127.271 64.3186C128.792 65.2807 128.062 69.1201 126.872 71.1656C124.648 74.9885 122.587 76.509 117.314 78.9222C114.557 80.1839 111.674 82.2796 108.665 85.2093L107.203 77.6036Z" fill="#915B3C"/>
<path fill-rule="evenodd" clip-rule="evenodd" d="M69.356 74.2108C75.3435 72.691 83.0845 69.4878 90.5077 62.0241L95.3987 68.648C90.7116 75.8914 83.4185 82.6784 76.1361 84.234C70.3972 85.4598 66.0613 79.3024 69.356 74.2108Z" fill="#9B3F30"/>
<path fill-rule="evenodd" clip-rule="evenodd" d="M55.5987 45.0358C52.8231 42.495 50.7948 39.2136 50.7029 35.2708C50.4383 23.9103 66.8549 24.4139 70.5472 29.7135C74.2395 35.0132 75.2484 49.4758 71.2785 50.9878C69.6952 51.5908 66.1445 51.0199 62.4306 49.3951L66.0895 64.2572L53.0552 65.8473L55.5987 45.0358Z" fill="#915B3C"/>
<path fill-rule="evenodd" clip-rule="evenodd" d="M80.6939 84.1729C87.4706 84.7041 98.2124 80.9889 112.919 73.0274C117.804 80.2063 120.327 85.4826 120.488 88.8562C108.165 97.8603 97.2249 102.773 87.9 104.515C88.9366 109.937 88.9647 115.254 87.3385 120.384C83.9955 130.932 55.4576 126.379 46.5147 129.676C38.2749 112.211 48.3835 102.894 46.8001 91.111C45.0661 78.2069 52.8907 56.6143 54.4368 56.3594L68.5369 54.0346C70.6467 63.7601 76.0302 73.9742 80.6939 84.1729Z" fill="#B94937"/>
</g>
</g>
<path fill-rule="evenodd" clip-rule="evenodd" d="M62.8776 24.8447C61.2 24.776 56.7495 25.1392 55.933 25.241L53.7129 25.71C47.3822 27.7058 45.8224 36.141 48.3695 41.8736C49.7442 44.9677 56.1216 47.9908 58.2193 46.0131C59.5483 44.7602 58.4923 43.4639 57.8068 42.6068C56.4939 40.9653 55.8417 38.728 57.7228 37.2373C59.3453 35.9515 61.4943 38.2577 61.5288 38.2506C62.0056 38.1521 65.8771 35.2487 68.322 31.4107C71.1704 31.2286 71.3704 29.2848 70.508 27.8228C69.6456 26.3609 65.1954 24.9399 62.8776 24.8447Z" fill="#2F314D"/>
<g filter="url(#filter2_d)">
<path fill-rule="evenodd" clip-rule="evenodd" d="M51.3543 30.2277C51.3543 30.2277 50.3677 29.7923 49.9388 29.61C49.4407 29.3983 48.9285 29.2222 48.4168 29.048C46.9605 28.5523 45.4672 28.2546 43.9313 28.191C41.0497 28.0718 38.2722 28.8176 35.8948 30.4789C33.2696 32.3135 31.2612 35.003 29.8003 37.8452C28.237 40.8867 27.5546 44.1071 26.7469 47.4049C25.9771 50.5474 24.6185 53.4867 22.5169 55.947C20.3996 58.4259 17.6471 59.5641 14.8196 60.9911C11.925 62.4518 9.31368 64.5653 7.79098 67.5029C6.36966 70.245 5.94007 73.3336 6.02175 76.4023C6.09817 79.2735 6.6643 81.9633 8.33347 84.3422C10.129 86.9012 12.7904 88.5965 15.9666 88.2951C20.5704 87.8584 24.1552 83.8846 26.3897 80.1018C27.6823 77.9138 28.6083 75.546 29.1652 73.0574C29.9078 69.7384 29.7661 66.371 30.0463 63.0017C30.1778 61.4206 30.443 59.8686 30.8848 58.3463C31.3133 56.8689 31.9194 55.5311 33.3713 54.8717C34.9073 54.1742 36.3518 53.5926 37.6993 52.5334C38.9921 51.5174 40.124 50.2899 40.9846 48.878C42.659 46.1311 43.49 42.9008 44.5738 39.887C45.4577 37.4294 46.437 34.8213 48.2469 32.8952C51.095 29.3495 51.3543 30.2277 51.3543 30.2277Z" fill="#2F314D"/>
</g>
<defs>
<filter id="filter0_d" x="103.569" y="36.551" width="30.4615" height="30.7732" filterUnits="userSpaceOnUse" color-interpolation-filters="sRGB">
<feFlood flood-opacity="0" result="BackgroundImageFix"/>
<feColorMatrix in="SourceAlpha" type="matrix" values="0 0 0 0 0 0 0 0 0 0 0 0 0 0 0 0 0 0 127 0"/>
<feOffset dy="4"/>
<feGaussianBlur stdDeviation="2"/>
<feColorMatrix type="matrix" values="0 0 0 0 0 0 0 0 0 0 0 0 0 0 0 0 0 0 0.25 0"/>
<feBlend mode="normal" in2="BackgroundImageFix" result="effect1_dropShadow"/>
<feBlend mode="normal" in="SourceGraphic" in2="effect1_dropShadow" result="shape"/>
</filter>
<filter id="filter1_d" x="39.2417" y="26.0977" width="92.8886" height="111.578" filterUnits="userSpaceOnUse" color-interpolation-filters="sRGB">
<feFlood flood-opacity="0" result="BackgroundImageFix"/>
<feColorMatrix in="SourceAlpha" type="matrix" values="0 0 0 0 0 0 0 0 0 0 0 0 0 0 0 0 0 0 127 0"/>
<feOffset dy="4"/>
<feGaussianBlur stdDeviation="2"/>
<feColorMatrix type="matrix" values="0 0 0 0 0 0 0 0 0 0 0 0 0 0 0 0 0 0 0.25 0"/>
<feBlend mode="normal" in2="BackgroundImageFix" result="effect1_dropShadow"/>
<feBlend mode="normal" in="SourceGraphic" in2="effect1_dropShadow" result="shape"/>
</filter>
<filter id="filter2_d" x="2.01221" y="28.1787" width="53.3421" height="68.1511" filterUnits="userSpaceOnUse" color-interpolation-filters="sRGB">
<feFlood flood-opacity="0" result="BackgroundImageFix"/>
<feColorMatrix in="SourceAlpha" type="matrix" values="0 0 0 0 0 0 0 0 0 0 0 0 0 0 0 0 0 0 127 0"/>
<feOffset dy="4"/>
<feGaussianBlur stdDeviation="2"/>
<feColorMatrix type="matrix" values="0 0 0 0 0 0 0 0 0 0 0 0 0 0 0 0 0 0 0.25 0"/>
<feBlend mode="normal" in2="BackgroundImageFix" result="effect1_dropShadow"/>
<feBlend mode="normal" in="SourceGraphic" in2="effect1_dropShadow" result="shape"/>
</filter>
</defs>
</svg>
