<svg width="124" height="120" viewBox="0 0 124 120" fill="none" xmlns="http://www.w3.org/2000/svg">
<circle cx="64.9051" cy="58.117" r="58.117" fill="#BBE0DC"/>
<path fill-rule="evenodd" clip-rule="evenodd" d="M58.117 116C88.005 116 112.234 91.771 112.234 61.883C112.234 31.995 88.005 7.76599 58.117 7.76599C28.229 7.76599 4 31.995 4 61.883C4 91.771 28.229 116 58.117 116ZM58.117 120C90.2141 120 116.234 93.9801 116.234 61.883C116.234 29.7859 90.2141 3.76599 58.117 3.76599C26.0199 3.76599 0 29.7859 0 61.883C0 93.9801 26.0199 120 58.117 120Z" fill="#1B998B"/>
<path fill-rule="evenodd" clip-rule="evenodd" d="M86.5403 36.2297C87.4051 36.9169 87.5491 38.175 86.862 39.0398L52.6219 82.1316L35.8585 59.1309C35.2079 58.2383 35.4041 56.9873 36.2968 56.3367C37.1894 55.6861 38.4404 55.8823 39.091 56.775L52.7593 75.5289L83.7302 36.5514C84.4174 35.6866 85.6755 35.5426 86.5403 36.2297Z" fill="#1B998B"/>
</svg>
