<svg width="510" height="208" viewBox="0 0 510 208" fill="none" xmlns="http://www.w3.org/2000/svg">
<circle cx="261.905" cy="98.0663" r="58.117" fill="#BBE0DC"/>
<path fill-rule="evenodd" clip-rule="evenodd" d="M255.117 155.949C285.005 155.949 309.234 131.72 309.234 101.832C309.234 71.9443 285.005 47.7153 255.117 47.7153C225.229 47.7153 201 71.9443 201 101.832C201 131.72 225.229 155.949 255.117 155.949ZM255.117 159.949C287.214 159.949 313.234 133.929 313.234 101.832C313.234 69.7351 287.214 43.7153 255.117 43.7153C223.02 43.7153 197 69.7351 197 101.832C197 133.929 223.02 159.949 255.117 159.949Z" fill="#1B998B"/>
<path fill-rule="evenodd" clip-rule="evenodd" d="M283.54 76.179C284.405 76.8662 284.549 78.1243 283.862 78.9891L249.622 122.081L232.858 99.0802C232.208 98.1876 232.404 96.9366 233.297 96.286C234.189 95.6354 235.44 95.8316 236.091 96.7243L249.759 115.478L280.73 76.5007C281.417 75.6359 282.676 75.4919 283.54 76.179Z" fill="#1B998B"/>
<path d="M132.234 18.4819L120.704 15.6368L134.42 6.80871L132.234 18.4819Z" fill="#BBE0DC"/>
<path d="M344.666 86.9604C344.666 86.9604 344.61 77.6475 349.5 75C355.308 71.8559 359.262 81.2316 368.5 80C377.738 78.7684 377.92 70.949 377.92 70.949" stroke="#BBE0DC" stroke-width="4" stroke-linecap="round"/>
<path d="M423.84 90.1477C423.84 90.1477 433.616 88.2221 438 91.6433C443.207 95.7061 437.009 100.141 441.837 108.113C446.664 116.085 451.826 114.209 451.826 114.209" stroke="#1B998B" stroke-width="4" stroke-linecap="round"/>
<path d="M351.615 176.065C351.615 176.065 345.857 175.156 341.74 171.419C336.85 166.979 345.961 162.82 341.74 154.511C337.52 146.202 329.632 147.886 329.632 147.886" stroke="#1B998B" stroke-width="4" stroke-linecap="round"/>
<path d="M293.935 23.575C293.935 23.575 293.156 20.1404 294.332 16.993C295.728 13.2552 300.102 17.4369 303.82 13.2081C307.538 8.97933 304.827 4.92994 304.827 4.92994" stroke="#1B998B" stroke-width="4" stroke-linecap="round"/>
<path d="M128.713 46.277C128.713 46.277 130.09 49.5184 129.492 52.8247C128.782 56.7512 123.735 53.4135 120.827 58.2358C117.92 63.0581 121.307 66.5612 121.307 66.5612" stroke="#BBE0DC" stroke-width="4" stroke-linecap="round"/>
<path d="M199.208 191.67C199.208 191.67 198.555 188.209 199.845 185.107C201.377 181.422 205.595 185.761 209.465 181.671C213.336 177.581 210.774 173.435 210.774 173.435" stroke="#BBE0DC" stroke-width="4" stroke-linecap="round"/>
<path d="M181.856 15.2334C181.856 15.2334 190.75 16.8697 192.361 20.6205C194.274 25.0748 186.853 26.301 186.294 33.3919" stroke="#1B998B" stroke-width="4" stroke-linecap="round"/>
<path d="M389.35 114.506L392.635 128.093L375.971 118.557L389.35 114.506Z" fill="#1B998B"/>
<path d="M163.449 70.5009L174.458 79.1149L155.474 81.9812L163.449 70.5009Z" fill="#1B998B"/>
<path d="M457.517 154.639C457.517 154.639 459.667 144.909 464.558 142.261C470.365 139.117 471.948 146.572 481.186 145.34C490.424 144.109 490.772 138.627 490.772 138.627" stroke="#1B998B" stroke-width="4" stroke-linecap="round"/>
<path d="M428.384 18.4668C428.384 18.4668 430.927 16.0306 434.231 15.4185C438.154 14.6917 436.821 20.5941 442.36 21.6048C447.9 22.6155 449.976 18.2067 449.976 18.2067" stroke="#1B998B" stroke-width="4" stroke-linecap="round"/>
<path d="M493.02 191.67C493.02 191.67 492.366 188.209 493.656 185.107C495.189 181.422 499.407 185.761 503.277 181.671C507.147 177.581 504.586 173.435 504.586 173.435" stroke="#1B998B" stroke-width="4" stroke-linecap="round"/>
<path d="M487.079 21.1811C487.079 21.1811 494.821 16.5083 498.514 18.2473C502.9 20.3125 498.159 26.1514 502.443 31.8292" stroke="#BBE0DC" stroke-width="4" stroke-linecap="round"/>
<path d="M84.3222 183.805C84.3222 183.805 82.3302 192.625 78.5178 194.085C73.9903 195.817 73.0629 188.354 66.0002 187.511" stroke="#BBE0DC" stroke-width="4" stroke-linecap="round"/>
<path d="M473.449 70.5009L484.458 79.1149L465.474 81.9812L473.449 70.5009Z" fill="#1B998B"/>
<path d="M302.817 187.558L316.784 188.122L303.047 201.534L302.817 187.558Z" fill="#1B998B"/>
<circle cx="246.311" cy="22.7063" r="3.69493" fill="#C2DEE4"/>
<circle cx="351" cy="25.1696" r="6.15822" fill="#BBE0DC"/>
<circle cx="263.554" cy="185.283" r="3.69493" fill="#1B998B"/>
<circle cx="417.695" cy="51.6949" r="3.07911" fill="#3891A6" stroke="#3891A6" stroke-width="1.23164"/>
<path d="M426.441 185.215L443.103 198.253L414.37 202.591L426.441 185.215Z" fill="#BBE0DC"/>
<path d="M6.51713 68.9604C6.51713 68.9604 8.66728 59.2305 13.5575 56.5831C19.3652 53.439 20.9478 60.8938 30.1857 59.6622C39.4236 58.4305 39.7715 52.9491 39.7715 52.9491" stroke="#BBE0DC" stroke-width="4" stroke-linecap="round"/>
<path d="M77.1579 98.6742C77.1579 98.6742 84.3452 93.2474 88.1281 94.5958C92.6206 96.1972 88.4847 102.475 93.1998 107.671C97.9148 112.867 101.597 109.243 101.597 109.243" stroke="#1B998B" stroke-width="4" stroke-linecap="round"/>
<path d="M23.0538 188.215C23.0538 188.215 20.8787 182.807 21.9743 177.355C23.2755 170.881 31.5204 176.566 36.4864 168.68C41.4524 160.793 35.9592 154.888 35.9592 154.888" stroke="#1B998B" stroke-width="4" stroke-linecap="round"/>
<path d="M142.806 133.814C142.806 133.814 146.203 129.078 151.392 127.078C157.555 124.703 157.179 134.711 166.499 134.672C175.818 134.632 177.856 126.829 177.856 126.829" stroke="#1B998B" stroke-width="4" stroke-linecap="round"/>
<path d="M39.3502 105.506L42.635 119.093L25.9714 109.557L39.3502 105.506Z" fill="#1B998B"/>
<circle cx="41" cy="15.1696" r="6.15822" fill="#1B998B"/>
<circle cx="83.5543" cy="44.2832" r="3.69493" fill="#1B998B"/>
<path d="M101.782 144.389L106.676 164.972L81.51 150.443L101.782 144.389Z" fill="#BBE0DC"/>
<circle cx="393.158" cy="160.158" r="6.15822" fill="#1B998B"/>
<circle cx="138.158" cy="183.158" r="6.15822" fill="#1B998B"/>
</svg>
