<svg width="124" height="120" viewBox="0 0 124 120" fill="none" xmlns="http://www.w3.org/2000/svg">
<circle cx="65.1122" cy="58.117" r="58.117" fill="#FFCDCE"/>
<path fill-rule="evenodd" clip-rule="evenodd" d="M58.117 116C88.005 116 112.234 91.7711 112.234 61.8831C112.234 31.9951 88.005 7.76611 58.117 7.76611C28.229 7.76611 4 31.9951 4 61.8831C4 91.7711 28.229 116 58.117 116ZM58.117 120C90.2141 120 116.234 93.9802 116.234 61.8831C116.234 29.786 90.2141 3.76611 58.117 3.76611C26.0199 3.76611 0 29.786 0 61.8831C0 93.9802 26.0199 120 58.117 120Z" fill="#F86263"/>
<path fill-rule="evenodd" clip-rule="evenodd" d="M23.568 74.0471C24.6465 73.8086 25.7142 74.4895 25.9527 75.568C26.6544 78.7398 27.8928 80.1513 29.2854 80.8451C30.8235 81.6115 32.9928 81.7381 36.0199 81.358C38.097 81.0972 40.3404 80.6373 42.8243 80.1281C43.9579 79.8957 45.1416 79.6531 46.3824 79.4144C50.26 78.6685 54.5346 77.9999 58.9999 77.9999C67.7671 77.9999 74.3687 83.1224 78.8329 86.5863C79.1314 86.8178 79.4203 87.042 79.6996 87.2567C80.853 88.1433 81.8013 88.8422 82.6172 89.3201C83.4689 89.819 83.9184 89.918 84.1064 89.9165C84.107 89.9165 84.1943 89.9762 84.446 89.6248C84.7712 89.1709 85.1732 88.2584 85.5471 86.568C85.7857 85.4895 86.8534 84.8086 87.9319 85.0471C89.0104 85.2857 89.6913 86.3534 89.4527 87.4319C89.0388 89.3031 88.4937 90.8431 87.6978 91.9542C86.8284 93.1678 85.6207 93.9049 84.1376 93.9164C82.842 93.9265 81.6193 93.3712 80.5955 92.7716C79.5359 92.1509 78.4053 91.3069 77.2619 90.4281C77.0188 90.2412 76.7728 90.0512 76.5239 89.859C71.9326 86.3128 66.3487 81.9999 58.9999 81.9999C54.9151 81.9999 50.9335 82.6122 47.1379 83.3424C46.0242 83.5566 44.9105 83.7848 43.8109 84.0101C41.2441 84.5359 38.754 85.0461 36.5183 85.3268C33.3269 85.7276 30.1494 85.7446 27.5016 84.4253C24.7081 83.0335 22.9212 80.3834 22.0471 76.4319C21.8086 75.3534 22.4895 74.2857 23.568 74.0471Z" fill="#F86263"/>
<ellipse cx="38.2211" cy="48.923" rx="6.62499" ry="6.11538" fill="#F86263"/>
<ellipse cx="78.9906" cy="48.923" rx="6.62499" ry="6.11538" fill="#F86263"/>
</svg>
