<?xml version="1.0" encoding="UTF-8" standalone="no"?>
<svg
   xmlns:dc="http://purl.org/dc/elements/1.1/"
   xmlns:cc="http://creativecommons.org/ns#"
   xmlns:rdf="http://www.w3.org/1999/02/22-rdf-syntax-ns#"
   xmlns:svg="http://www.w3.org/2000/svg"
   xmlns="http://www.w3.org/2000/svg"
   xmlns:sodipodi="http://sodipodi.sourceforge.net/DTD/sodipodi-0.dtd"
   xmlns:inkscape="http://www.inkscape.org/namespaces/inkscape"
   width="56.422695"
   height="56.23238"
   viewBox="0 0 56.422695 56.23238"
   id="svg2"
   version="1.1"
   inkscape:version="0.91 r13725"
   sodipodi:docname="handy-phone.svg"
   style="fill:none">
  <metadata
     id="metadata24">
    <rdf:RDF>
      <cc:Work
         rdf:about="">
        <dc:format>image/svg+xml</dc:format>
        <dc:type
           rdf:resource="http://purl.org/dc/dcmitype/StillImage" />
        <dc:title></dc:title>
      </cc:Work>
    </rdf:RDF>
  </metadata>
  <defs
     id="defs22" />
  <sodipodi:namedview
     pagecolor="#ffffff"
     bordercolor="#666666"
     borderopacity="1"
     objecttolerance="10"
     gridtolerance="10"
     guidetolerance="10"
     inkscape:pageopacity="0"
     inkscape:pageshadow="2"
     inkscape:window-width="640"
     inkscape:window-height="480"
     id="namedview20"
     showgrid="false"
     fit-margin-top="0"
     fit-margin-left="0"
     fit-margin-right="0"
     fit-margin-bottom="0"
     inkscape:zoom="2.2142857"
     inkscape:cx="29.44496"
     inkscape:cy="27.923724"
     inkscape:window-x="0"
     inkscape:window-y="0"
     inkscape:window-maximized="0"
     inkscape:current-layer="svg2" />
  <path
     d="m 33.78896,0.09146693 -20.475,6.25681997 c -1.1423,0.34904 -1.7896,1.59554 -1.4459,2.78417 l 12.3419,42.6837001 c 0.3436,1.1886 1.5482,1.8691 2.6904,1.5201 l 20.475,-6.2568 c 1.1423,-0.3491 1.7896,-1.5956 1.4459,-2.7842 L 36.47936,1.6115769 c -0.3436,-1.18857997 -1.5482,-1.86915997 -2.6904,-1.52010997 z"
     id="path4"
     inkscape:connector-curvature="0"
     style="fill:#fa9192" />
  <path
     d="m 32.12176,3.2439869 c 0.0082,-0.0025 0.0164,-0.00487 0.0247,-0.00713 0.2291,-0.06257 0.479,-0.02847 0.6938,0.09148 0.221,0.1253 0.3965,0.33856 0.4811,0.60098 0.0034,0.0108 0.0068,0.0217 0.0099,0.03272 l 0.6002,2.07547 -22.3162,6.8194501 -0.6001,-2.0754 c -0.0804,-0.278 -0.0487,-0.5692 0.0753,-0.8079001 l 9e-4,-0.0018 c 0.1163,-0.2196 0.3068,-0.3873 0.531,-0.4632 0.0081,-0.0027 0.0162,-0.0053 0.0244,-0.0078 l 20.475,-6.25687 z m -20.1732,10.7657701 22.3162,-6.8194601 10.1641,35.1518601 -22.3162,6.8193 -10.1641,-35.1517 z m 33.6867,33.3657 c -0.1134,0.2671 -0.3321,0.4713 -0.5936,0.5513 l -20.475,6.2568 c -0.2246,0.0686 -0.4714,0.0427 -0.6866,-0.0673 -0.0101,-0.0052 -0.0201,-0.0107 -0.03,-0.0163 -0.2307,-0.1303 -0.412,-0.3565 -0.4924,-0.6344 l -0.9112,-3.1514 22.3157,-6.8193 0.9111,3.1512 c 0.0156,0.0538 0.027,0.1072 0.0344,0.1599 0.027,0.1971 6e-4,0.3945 -0.0724,0.5695 z m -20.911,8.0064 c -1.0875,0.2325 -2.1887,-0.4379 -2.5147,-1.5657 l -11.4086,-39.4557 -0.9334005,-3.2283 0,0 C 9.5238595,9.9435569 10.17126,8.6970869 11.31346,8.3480369 l 0,0 20.475,-6.25683 0,-1e-5 c 0.5317,-0.16247 1.0769,-0.10183 1.5425,0.1293 0.0345,0.01707 0.0685,0.03513 0.1022,0.05416 0.0357,0.02016 0.0707,0.0413 0.1051,0.06338 0.4135,0.26549 0.7438,0.67503 0.9131,1.1847 0.0098,0.02928 0.019,0.05883 0.0276,0.08862 l 0.9334,3.22824 0,10e-6 10.1641,35.1518501 4e-4,-2e-4 1.2446,4.3042 c 0.0516,0.1786 0.0812,0.3614 0.0893,0.5443 0.0051,0.1154 0.0016,0.2301 -0.0102,0.343 -0.0296,0.2847 -0.1117,0.5632 -0.2448,0.8196 -0.1053,0.2027 -0.2392,0.3852 -0.3956,0.5423 -0.1641,0.1652 -0.3554,0.3046 -0.5697,0.41 -0.101,0.0499 -0.2062,0.0917 -0.3149,0.1249 l -20.475,6.2568 c -0.0584,0.0178 -0.1172,0.033 -0.1763,0.0455 z"
     id="path6"
     inkscape:connector-curvature="0"
     style="clip-rule:evenodd;fill:#ffffff;fill-rule:evenodd" />
  <path
     d="m 34.76666,50.535657 c 0.8426,-0.2575 1.3202,-1.1771 1.0666,-2.054 -0.2535,-0.8768 -1.1421,-1.3789 -1.9847,-1.1214 -0.8426,0.2575 -1.3201,1.1771 -1.0666,2.0539 0.2535,0.8769 1.1421,1.379 1.9847,1.1215 z"
     id="path8"
     inkscape:connector-curvature="0"
     style="fill:#ffffff" />
  <path
     d="m 33.78246,25.508857 -7.8152,-6.8876 c -0.0602,-0.0517 -0.1317,-0.0873 -0.2081,-0.1037 -0.0764,-0.0164 -0.1554,-0.013 -0.2301,0.0098 -0.0746,0.0228 -0.1425,0.0643 -0.1978,0.121 -0.0553,0.0566 -0.0963,0.1266 -0.1193,0.2038 l -2.8866,10.1579 c -0.019,0.0616 -0.0258,0.1267 -0.0201,0.1913 0.0057,0.0645 0.0238,0.1274 0.0534,0.1847 0.0295,0.0573 0.0697,0.108 0.1184,0.1489 0.0486,0.041 0.1046,0.0715 0.1646,0.0896 l 0.1557,0.0246 5.9551,0.4888 c 0.0847,0.0048 0.1682,-0.0208 0.2366,-0.0723 l 4.7458,-3.728 c 0.1059,-0.0686 0.1812,-0.1779 0.2095,-0.3043 0.0284,-0.1263 0.0075,-0.2596 -0.058,-0.3707 -0.0218,-0.0491 -0.0546,-0.0921 -0.0957,-0.1254 l -0.0082,-0.0284 z m -7.1021,-2.9829 c 0.3599,-0.11 0.7439,-0.1064 1.1034,0.0102 0.3595,0.1167 0.6783,0.3412 0.9161,0.6452 0.2378,0.3039 0.384,0.6737 0.42,1.0626 0.036,0.3888 -0.0398,0.7793 -0.2177,1.1219 -0.178,0.3427 -0.4501,0.6222 -0.7821,0.8031 -0.3319,0.181 -0.7087,0.2553 -1.0827,0.2136 -0.374,-0.0417 -0.7284,-0.1976 -1.0185,-0.4479 -0.29,-0.2504 -0.5026,-0.5839 -0.611,-0.9585 -0.1452,-0.5023 -0.0927,-1.0427 0.1459,-1.5021 0.2386,-0.4595 0.6439,-0.8005 1.1266,-0.9481 z m 1.6428,5.6819 c -1.82,0.5562 -3.8598,0.592 -4.1501,-0.4117 -0.1752,-0.6061 0.3905,-1.2531 1.2566,-1.7857 0.1048,0.1234 0.2203,0.2364 0.3452,0.3377 -0.847,0.4959 -1.268,1.0265 -1.1832,1.32 0.0384,0.1326 0.1795,0.2441 0.4208,0.3249 0.0018,-0.0414 0.0101,-0.0822 0.0245,-0.1208 0.3551,-0.5513 0.8763,-0.9642 1.4828,-1.1746 0.448,0.1458 0.9268,0.1504 1.3755,0.0133 0.4488,-0.1372 0.8474,-0.4099 1.1452,-0.7836 0.6049,-0.1731 1.2483,-0.1424 1.8378,0.0877 0.035,0.0282 0.0673,0.0597 0.0966,0.0941 0.15,-0.2004 0.2182,-0.3758 0.1798,-0.5084 -0.0848,-0.2936 -0.7103,-0.5044 -1.6924,-0.4413 0.0479,-0.1542 0.0816,-0.3129 0.1006,-0.4739 0.9812,-0.0319 1.8261,0.184 2.0013,0.7901 0.3012,1.0416 -1.4392,2.1816 -3.241,2.7322 z"
     id="path10"
     inkscape:connector-curvature="0"
     style="fill:#ffffff" />
  <path
     d="m 8.5117595,5.8810369 c 0.0913,0.32169 -0.0911,0.65388 -0.4073,0.74197 -1.7701,0.49302 -3.0711,2.83545 -1.9013,4.9498501 0.162,0.2927 0.0608,0.6596 -0.2258,0.8196 -0.2866,0.1601 -0.6502,0.0525 -0.8121,-0.2401 -1.5869,-2.8683001 0.176,-6.0167701 2.6084,-6.6942801 0.3163,-0.08809 0.6467,0.10128 0.7381,0.42296 z"
     id="path12"
     inkscape:connector-curvature="0"
     style="clip-rule:evenodd;fill:#ffffff;fill-rule:evenodd" />
  <path
     d="m 5.7260595,2.5250769 c 0.0913,0.32169 -0.091,0.65388 -0.4073,0.74197 -3.1103,0.86632 -5.3884,4.95987 -3.3394,8.6633101 0.1619,0.2926 0.0608,0.6596 -0.2259,0.8196 -0.2866,0.16 -0.6502,0.0525 -0.8121,-0.2402 -2.466,-4.4572701 0.274,-9.3568201 4.0467,-10.4076301 0.3163,-0.08809 0.6467,0.10127 0.738,0.42295 z"
     id="path14"
     inkscape:connector-curvature="0"
     style="clip-rule:evenodd;fill:#ffffff;fill-rule:evenodd" />
  <path
     d="m 47.89416,52.414557 c -0.0896,-0.3222 0.0945,-0.6535 0.4112,-0.7398 1.7726,-0.4835 3.0854,-2.8188 1.9264,-4.9395 -0.1604,-0.2935 -0.0574,-0.6599 0.23,-0.8184 0.2874,-0.1585 0.6504,-0.0491 0.8108,0.2444 1.5723,2.8769 -0.2068,6.0159 -2.6426,6.6803 -0.3168,0.0863 -0.6462,-0.1048 -0.7358,-0.427 z"
     id="path16"
     inkscape:connector-curvature="0"
     style="clip-rule:evenodd;fill:#ffffff;fill-rule:evenodd" />
  <path
     d="m 50.66376,55.784657 c -0.0897,-0.3222 0.0944,-0.6534 0.4112,-0.7398 3.1146,-0.8495 5.4136,-4.9306 3.3836,-8.645 -0.1604,-0.2935 -0.0574,-0.6599 0.23,-0.8184 0.2874,-0.1586 0.6505,-0.0491 0.8109,0.2444 2.4432,4.4705 -0.322,9.3553 -4.1,10.3858 -0.3167,0.0863 -0.6461,-0.1048 -0.7357,-0.427 z"
     id="path18"
     inkscape:connector-curvature="0"
     style="clip-rule:evenodd;fill:#ffffff;fill-rule:evenodd" />
</svg>
