<svg xmlns="http://www.w3.org/2000/svg" viewBox="0 0 348.8 414.1"><defs><style>.cls-1{fill:#8b81da;}.cls-2{fill:#bbbbea;}</style></defs><title>Asset 3</title><g id="Layer_2" data-name="Layer 2"><g id="Layer_1-2" data-name="Layer 1"><g id="Layer_5" data-name="Layer 5"><path class="cls-1" d="M346.9,235.73a15.71,15.71,0,0,1-.9-2.3c-.3-.8-.4-1.7-.6-2.4-.3-1.5-.8-2.9-1.2-4.4-1-2.9-2-6-2.8-9s-1.8-6-2.7-8.9c-.5-1.5-.9-3-1.5-4.4a34.3,34.3,0,0,1-1.6-4.5,43.55,43.55,0,0,1-1.1-4.6c-.2-.7-.4-1.5-.6-2.2a11.08,11.08,0,0,1-.5-2.5c-.1-.8,0-1.7-.1-2.3a2.35,2.35,0,0,0-.7-1.4,7.12,7.12,0,0,0-1.7-1.1,3.92,3.92,0,0,0-1.8-.4,10.43,10.43,0,0,0-2.1.5,10.05,10.05,0,0,1-2.5.4h-2.4a17.7,17.7,0,0,0-2.3.1c-1.6.1-3.2.2-4.8.2a2.81,2.81,0,0,1-.8-.1,6.89,6.89,0,0,1-.8-.3,3.74,3.74,0,0,1-1.2-1.3c-.1-.3-.2-.5-.3-.8a2.49,2.49,0,0,1-.1-.8V182c.1-3.2.3-6.2.1-9.3a38.44,38.44,0,0,1,0-4.8c0-1.6.1-3.1.2-4.7s0-3-.1-4.6-.1-3.2-.1-4.8.1-3.1.2-4.7,0-3.2.1-4.7c.1-3.1.1-6.3.2-9.4,0-1.6,0-3-.1-4.6a40,40,0,0,1,0-4.9c.1-.8.2-1.7.3-2.4a15,15,0,0,0,.2-2.2v-4.6c-.1-1.6,0-3.2,0-4.7s-.2-3.1-.2-4.7.1-3.2.2-4.8c0-.8.1-1.5.1-2.3v-.7a.22.22,0,0,0-.2-.2c-.1-.1-.3-.1-.6-.1h-8.3a19.27,19.27,0,0,1-2.4-.1,17.7,17.7,0,0,0-2.3-.1,33.89,33.89,0,0,0-4.5.2c-.7.1-1.6.2-2.4.3a19.27,19.27,0,0,1-2.4.1l-4.7.1-9.4.2a21.75,21.75,0,0,1-2.5-.1l-2.3-.3a33.78,33.78,0,0,0-4.5,0c-1.5.1-3.1.2-4.7.2l-4.7.1-9.4.2h-9.4l-4.7.1h-1.1a.76.76,0,0,0-.4.2c-.2.1-.3.3-.4.4s-.1.1-.1.2v.4c0,1.5,0,3,.1,4.7s-.1,3.1,0,4.7V115l-.1,4.7a19.27,19.27,0,0,1-.1,2.4c-.1.8-.2,1.7-.3,2.4a33.14,33.14,0,0,0-.2,4.5,19.53,19.53,0,0,0,.2,2.3v2.4a2.93,2.93,0,0,1-.8,1.9,3.27,3.27,0,0,1-1.6.9,2.2,2.2,0,0,1-.8.1h-1.7a19.53,19.53,0,0,0-2.3.2,20.9,20.9,0,0,1-2.5.1l-4.7-.1c-1.6,0-3.1-.1-4.8-.2s-3.1-.3-4.6-.3v-2c1.6,0,3.2.1,4.7.2s3.1.1,4.6.1h4.7a15.48,15.48,0,0,0,2.2-.1,17.91,17.91,0,0,1,2.4-.2h1.8a.37.37,0,0,0,.3-.1l.4-.2c.1-.1.1-.1.1-.3v-2.2a23.2,23.2,0,0,0-.2-2.4,41,41,0,0,1,.2-4.9c.1-.8.2-1.5.3-2.3s.1-1.5.1-2.3v-4.7c0-1.6.1-3.1,0-4.7v-4.7c0-1.5-.1-3.1-.1-4.7v-.3a.9.9,0,0,1,.1-.5l.3-.9a3.74,3.74,0,0,1,1.2-1.3,3.49,3.49,0,0,1,1.7-.6h1.2l4.7-.1c1.6,0,3.2-.1,4.8,0a35.29,35.29,0,0,0,4.6,0l9.4-.2,4.7-.1c1.6,0,3-.1,4.7-.2s3.2-.1,4.9,0l2.3.3a16.2,16.2,0,0,0,2.2.1l9.4-.1,4.7-.1a22.82,22.82,0,0,0,4.5-.4,41,41,0,0,1,4.9-.2,19.42,19.42,0,0,1,2.4.2,17.7,17.7,0,0,0,2.3.1H312a3.53,3.53,0,0,1,1.7.4,2.78,2.78,0,0,1,1.3,1.5,3.55,3.55,0,0,1,.2,1v.6a19.27,19.27,0,0,1-.1,2.4c-.1,1.6-.2,3.1-.2,4.6s.1,3,.1,4.7v4.7a38.44,38.44,0,0,1,0,4.8,21.05,21.05,0,0,1-.2,2.5,19.19,19.19,0,0,0-.3,2.2,33.79,33.79,0,0,0,0,4.5c.1,1.5.1,3.2.1,4.8-.1,3.2-.1,6.2-.2,9.4-.1,1.6-.1,3.1-.1,4.7s-.1,3.2-.2,4.7-.1,3.1,0,4.6.1,3.2.1,4.8-.1,3.2-.2,4.7-.1,3.1,0,4.6c.2,3.2,0,6.4-.1,9.5v1.6c0,.1.1.2.1.3a.78.78,0,0,0,.4.4.35.35,0,0,1,.2.1h.4c1.6,0,3.1,0,4.6-.1.8,0,1.6-.1,2.4-.1h2.3a7.79,7.79,0,0,0,2.1-.4,8.5,8.5,0,0,1,2.5-.5,5.25,5.25,0,0,1,2.8.6,7.82,7.82,0,0,1,2.2,1.5,4.43,4.43,0,0,1,1.4,2.7c.1.9,0,1.7.1,2.4a19.14,19.14,0,0,0,.4,2.1c.2.8.4,1.5.6,2.3a32.85,32.85,0,0,0,1.1,4.5,31.6,31.6,0,0,0,1.6,4.3c.6,1.5,1,3,1.5,4.5.9,3,1.9,6,2.8,9s1.8,5.9,2.8,8.9a34.71,34.71,0,0,1,1.3,4.6c.2.8.3,1.5.5,2.2a18,18,0,0,0,.8,2.1Z"/><path class="cls-1" d="M276.5,285l.1-9.3c0-3.1,0-6.2.1-9.3s.1-6.2.1-9.3c0-1.6,0-3.1-.1-4.6l-.3-4.7a1.09,1.09,0,0,1,.9-1.1c.5-.1,1,.4,1.1.9v.2a35.29,35.29,0,0,0,0,4.6c.1,1.6,0,3.1,0,4.7,0,3.1.1,6.2,0,9.3s0,6.2,0,9.3.1,6.2.2,9.3a.94.94,0,0,1-1,1,1,1,0,0,1-1.1-1Z"/><path class="cls-1" d="M239.3,247.93c0,2.6-.1,5.3-.1,7.9,0,1.3.1,2.6.1,3.9v15.8a26.8,26.8,0,0,1-.2,4,49.33,49.33,0,0,0-.1,7.7c.1,1.3,0,2.7.1,4l.1,3.9c0,1.3,0,2.6-.1,4s-.3,2.6-.3,3.9,0,2.6.1,3.9.1,2.7.1,4,0,2.7-.1,4-.1,2.6-.1,3.9.2,2.5.3,3.9a26.69,26.69,0,0,1,0,4c0,1.3-.1,2.6-.1,3.9v4c-.1,2.6-.1,5.2-.1,7.9s0,5.2.1,7.9c0,1.3,0,2.7.1,4s.1,2.6.1,3.9v4a25.73,25.73,0,0,0-.1,3.9,23.58,23.58,0,0,0,.2,3.8,26.93,26.93,0,0,1,.3,4h0a1,1,0,0,1-2,0h0c0-1.3,0-2.5-.1-3.9s-.1-2.7-.1-4,.1-2.7.2-4,.1-2.6.1-3.9-.1-2.6-.1-3.9v-3.9c-.1-2.6-.1-5.3-.1-7.9s0-5.3.1-7.9v-3.9c0-1.3.1-2.7.1-3.9v-3.9c-.1-1.2-.3-2.6-.3-4v-4c.1-1.3.1-2.6.1-3.9s0-2.6-.1-3.9-.1-2.7-.1-4,.2-2.7.3-4a25.39,25.39,0,0,0,0-3.9l-.1-3.9c0-1.3,0-2.6-.1-3.9a42.87,42.87,0,0,1,.1-8,24.2,24.2,0,0,0,.2-3.8v-15.7c0-1.3-.1-2.6-.1-4V248a.94.94,0,0,1,1-1c.3-.1.7.3.7.9Z"/><path class="cls-1" d="M237.4,242.33a19,19,0,0,1,2.4-2.5l2.3-2.3c.8-.8,1.4-1.6,2.2-2.5s1.6-1.7,2.3-2.5,1.3-1.6,2.1-2.5a30.7,30.7,0,0,1,2.5-2.6,17.41,17.41,0,0,1,1.4-1.2c.5-.4.9-.7,1.2-1a11.41,11.41,0,0,0,1.1-1.1l.2-.2.3-.3a2.09,2.09,0,0,1,.6-.4,3.39,3.39,0,0,1,1.5-.6,4.15,4.15,0,0,1,1.9.1,2.62,2.62,0,0,1,.9.5,4.68,4.68,0,0,1,.6.5,15.93,15.93,0,0,1,1.3,1.3,17.41,17.41,0,0,0,1.2,1.4,11,11,0,0,0,1,1.1c1.5,1.5,3.2,3,4.8,4.6l2.3,2.5,2.2,2.5c1.5,1.7,2.9,3.5,4.3,5.3a1.06,1.06,0,0,1-.2,1.4,1.08,1.08,0,0,1-1.1,0c-1.9-1.3-3.7-2.7-5.5-4.1-.9-.7-1.7-1.5-2.6-2.2l-2.5-2.2c-1.6-1.5-3.3-3-5-4.7a17.41,17.41,0,0,1-1.2-1.4c-.4-.5-.7-.9-1-1.2a11.41,11.41,0,0,0-1.1-1.1c-.2-.1-.1-.1,0,0s.1.1.2.1h0l-.1.1a17.41,17.41,0,0,1-1.4,1.2c-.5.4-1,.8-1.4,1.1l-1.2.9c-.8.7-1.6,1.4-2.3,2.1s-1.5,1.7-2.4,2.5-1.7,1.5-2.5,2.3-1.7,1.6-2.5,2.3a30.13,30.13,0,0,1-2.8,2.2,25.6,25.6,0,0,0-2.6,2,1,1,0,0,1-1.4-.1A1.05,1.05,0,0,1,237.4,242.33Z"/><path class="cls-1" d="M261.2,279a30.38,30.38,0,0,1-3.5-.1c-.9,0-1.7-.1-3.5-.1h-7a2.09,2.09,0,0,1-2.1-2v-7a32.33,32.33,0,0,0-.1-3.5c0-.9-.1-1.8-.1-3.5a30.38,30.38,0,0,1,.1-3.5c0-.9.1-1.7.1-3.5v-7a2.18,2.18,0,0,1,2.1-2.1h7a28,28,0,0,1,3.6.2,25.57,25.57,0,0,0,3.4.2,29.34,29.34,0,0,0,3.4-.1c.9,0,1.8-.1,3.6-.1a2,2,0,0,1,2,2,32.33,32.33,0,0,0,.1,3.5c0,.9.1,1.8.1,3.5a33.42,33.42,0,0,1-.1,3.6c0,.9-.1,1.7-.1,3.4v14a1.71,1.71,0,0,1-1.9,1.8c-1.7,0-2.5.1-3.4.1A31.2,31.2,0,0,1,261.2,279Zm-7-2.1a30.38,30.38,0,0,1,3.5.1c.9,0,1.7.1,3.5.1s2.5-.1,3.4-.1a30.29,30.29,0,0,1,3.4-.1v-13.8a30.38,30.38,0,0,1,.1-3.5c0-.9.1-1.7.1-3.4a32.33,32.33,0,0,0-.1-3.5c0-.9-.1-1.8-.1-3.5a30.29,30.29,0,0,0-3.4.1c-.9,0-1.8.1-3.6.1a28,28,0,0,1-3.6-.2,25.57,25.57,0,0,0-3.4-.2h-7l-.1.1v7a30.38,30.38,0,0,1-.1,3.5c0,.9-.1,1.7-.1,3.5a32.33,32.33,0,0,0,.1,3.5c0,.9.1,1.8.1,3.5v7h3.6A18.41,18.41,0,0,1,254.2,276.93Z"/><path class="cls-1" d="M258.2,321a20.24,20.24,0,0,1-2.8-.1,18.64,18.64,0,0,0-2.7-.1,19.4,19.4,0,0,0-2.7.1c-.7,0-1.4.1-2.8.1a1.92,1.92,0,0,1-1.9-2v-7a32.33,32.33,0,0,0-.1-3.5c0-.9-.1-1.8-.1-3.5V291a1.92,1.92,0,0,1,2-1.9h14c1.7,0,2.5-.1,3.4-.1s1.8-.1,3.6-.1a1.94,1.94,0,0,1,1.8,2.1,7.45,7.45,0,0,0,.2,1.8,10.18,10.18,0,0,1,.2,2.2,1,1,0,0,1-2,0,7.45,7.45,0,0,0-.2-1.8,10.18,10.18,0,0,1-.2-2.2v-.1c-1.6,0-2.3.1-3.2.1a33.42,33.42,0,0,1-3.6.1h-14V305a32.33,32.33,0,0,0,.1,3.5c0,.9.1,1.8.1,3.5v7c1.3,0,1.9-.1,2.6-.1s1.4-.1,2.8-.1a20.24,20.24,0,0,1,2.8.1,18.64,18.64,0,0,0,2.7.1.94.94,0,0,1,1,1A1,1,0,0,1,258.2,321Z"/><path class="cls-1" d="M185.8,51c-3.2.4-6.3,1-9.7,1.2-1.7.1-3.2.2-4.7.4a15.72,15.72,0,0,0-2.3.4,20.48,20.48,0,0,1-2.4.5,38.59,38.59,0,0,1-4.9.6,37.48,37.48,0,0,0-4.7.5c-1.6.2-3.1.6-4.7.9a39.34,39.34,0,0,1-4.8.6l-2.4.3-1.1.2a.85.85,0,0,0-.5.3.91.91,0,0,0-.3.7v8.3c0,1.6,0,3.3-.1,4.9-.1,3.2,0,6.4,0,9.6l.1,9.7a1,1,0,0,1-2,0h0l.1-9.7c0-3.2-.1-6.4,0-9.7.1-1.6.1-3.2.1-4.8s0-3.2.1-4.8v-2.4a6.64,6.64,0,0,1,.1-1.3,3.4,3.4,0,0,1,.7-1.5,2.9,2.9,0,0,1,1.5-.9c.5-.1.8-.1,1.2-.2l2.4-.3c1.6-.1,3.2-.4,4.7-.6s3.1-.6,4.8-.9a27.15,27.15,0,0,1,4.9-.5,37.76,37.76,0,0,0,4.7-.6c1.5-.3,3.1-.8,4.8-1a40.68,40.68,0,0,1,4.9-.5c3.1-.3,6.3-1,9.5-1.5h0a.94.94,0,0,1,1.1.8,1.48,1.48,0,0,1-1.1,1.3Z"/><path class="cls-1" d="M133.1,332a.94.94,0,0,1-1-1v-7.2a36.61,36.61,0,0,1,.1-3.7c0-.9.1-1.8.1-3.6s-.1-2.6-.1-3.6a34.52,34.52,0,0,1-.1-3.7,28.58,28.58,0,0,1,.2-3.7,27.38,27.38,0,0,0,.2-3.5,33.42,33.42,0,0,0-.1-3.6,34.52,34.52,0,0,1-.1-3.7v-7.3a33.42,33.42,0,0,0-.1-3.6c0-.9-.1-1.8-.1-3.7v-7.2a35.56,35.56,0,0,1,.1-3.7c0-.9.1-1.8.1-3.6s.1-2.8.1-3.7a33.42,33.42,0,0,0,.1-3.6c0-1.8-.1-2.6-.1-3.6a35.56,35.56,0,0,1-.1-3.7,36.61,36.61,0,0,1,.1-3.7c0-.9.1-1.8.1-3.6s-.1-2.6-.1-3.6a35.56,35.56,0,0,1-.1-3.7v-7.2a36.61,36.61,0,0,1,.1-3.7c0-.9.1-1.8.1-3.6v-7.3a36.61,36.61,0,0,1,.1-3.7c0-.9.1-1.8.1-3.6v-7.2a36.61,36.61,0,0,1,.1-3.7v-3.6a35.56,35.56,0,0,1,.1-3.7c0-.9.1-1.8.1-3.6s-.1-2.6-.1-3.6a35.56,35.56,0,0,1-.1-3.7,33.42,33.42,0,0,0-.1-3.6c0-.9-.1-1.8-.1-3.7a35.56,35.56,0,0,1,.1-3.7c0-.9.1-1.8.1-3.6v-7.2a33.42,33.42,0,0,0-.1-3.6c0-.9-.1-1.8-.1-3.7a35.56,35.56,0,0,1,.1-3.7c0-.9.1-1.8.1-3.6v-14.5a26.14,26.14,0,0,0-.2-3.5,29.86,29.86,0,0,1-.2-3.7,36.61,36.61,0,0,1,.1-3.7c0-.9.1-1.8.1-3.6a35.56,35.56,0,0,1,.1-3.7c0-.9.1-1.8.1-3.6a2.7,2.7,0,0,1,.9-2c1.8-1.8,2.7-2.7,3.5-3.6s1.8-1.9,3.6-3.7c1.4-1.3,2.1-1.9,2.8-2.5s1.4-1.2,2.7-2.4,1.9-1.9,2.5-2.6a26.36,26.36,0,0,1,2.6-2.8c1.4-1.3,2.1-1.9,2.8-2.6s1.4-1.2,2.7-2.5,2.1-1.9,2.8-2.6,1.4-1.2,2.7-2.5,2-1.9,2.6-2.6,1.3-1.4,2.6-2.7,2-1.9,2.7-2.6,1.4-1.2,2.7-2.5,2-1.9,2.7-2.6,1.3-1.3,2.7-2.6,2-1.9,2.7-2.6,1.3-1.3,2.7-2.6a3,3,0,0,1,3.1-.7,2.75,2.75,0,0,1,1.7,2.7,25,25,0,0,0,.2,3.3,27.38,27.38,0,0,1,.2,3.5c0,1.7-.1,2.6-.1,3.5a29.26,29.26,0,0,0-.1,3.3c0,1.7.1,2.5.1,3.3a31.35,31.35,0,0,1,.1,3.5,26.14,26.14,0,0,1-.2,3.5,22.68,22.68,0,0,0-.2,3.3,27.4,27.4,0,0,0,.1,3.3,31.35,31.35,0,0,1,.1,3.5,30.29,30.29,0,0,0,.1,3.4c0,.9.1,1.7.1,3.4s-.1,2.6-.1,3.5a29.26,29.26,0,0,0-.1,3.3,1,1,0,1,1-2,0c0-1.7.1-2.6.1-3.5a29.26,29.26,0,0,0,.1-3.3,30.29,30.29,0,0,0-.1-3.4c0-.9-.1-1.7-.1-3.4a27.4,27.4,0,0,0-.1-3.3,31.35,31.35,0,0,1-.1-3.5,26.14,26.14,0,0,1,.2-3.5,22.68,22.68,0,0,0,.2-3.3c0-1.7-.1-2.5-.1-3.3a31.35,31.35,0,0,1-.1-3.5c0-1.7.1-2.6.1-3.5a29.26,29.26,0,0,0,.1-3.3,25,25,0,0,0-.2-3.3,27.38,27.38,0,0,1-.2-3.5.94.94,0,0,0-.5-.9,1,1,0,0,0-.9.2c-1.3,1.3-2,1.9-2.7,2.6s-1.3,1.3-2.7,2.6-2,1.9-2.7,2.6-1.3,1.3-2.7,2.6-2,1.9-2.7,2.6-1.4,1.2-2.7,2.5l-2.6,2.6c-.6.7-1.3,1.4-2.6,2.7s-2.1,1.9-2.8,2.6-1.4,1.2-2.7,2.5a37.07,37.07,0,0,1-2.8,2.5c-.7.6-1.4,1.2-2.7,2.5s-1.9,1.9-2.5,2.6a26.36,26.36,0,0,1-2.6,2.8c-1.4,1.3-2.1,1.9-2.8,2.5s-1.4,1.2-2.7,2.4c-1.8,1.8-2.7,2.7-3.5,3.6s-1.8,1.9-3.6,3.7c-.3.3-.3.4-.3.6a35.56,35.56,0,0,1-.1,3.7c0,.9-.1,1.8-.1,3.6a36.61,36.61,0,0,1-.1,3.7c0,.9-.1,1.8-.1,3.6a26.14,26.14,0,0,0,.2,3.5,29.86,29.86,0,0,1,.2,3.7v14.5a35.56,35.56,0,0,1-.1,3.7c0,.9-.1,1.8-.1,3.6a33.42,33.42,0,0,0,.1,3.6c0,.9.1,1.8.1,3.7v7.2a35.56,35.56,0,0,1-.1,3.7c0,.9-.1,1.8-.1,3.6a33.42,33.42,0,0,0,.1,3.6c0,.9.1,1.8.1,3.7s.1,2.6.1,3.6a68.5,68.5,0,0,1,0,7.4c0,.9-.1,1.8-.1,3.6a36.61,36.61,0,0,1-.1,3.7v10.8a36.61,36.61,0,0,1-.1,3.7c0,.9-.1,1.8-.1,3.6v7.3a36.61,36.61,0,0,1-.1,3.7c0,.9-.1,1.8-.1,3.6v7.2c0,1.8.1,2.6.1,3.6a35.56,35.56,0,0,1,.1,3.7,36.61,36.61,0,0,1-.1,3.7c0,.9-.1,1.8-.1,3.6s.1,2.6.1,3.6a35.56,35.56,0,0,1,.1,3.7c0,1.8-.1,2.8-.1,3.7a33.42,33.42,0,0,0-.1,3.6,35.56,35.56,0,0,1-.1,3.7c0,.9-.1,1.8-.1,3.6v7.2a33.42,33.42,0,0,0,.1,3.6c0,.9.1,1.8.1,3.7v7.3a33.42,33.42,0,0,0,.1,3.6,34.52,34.52,0,0,1,.1,3.7,28.58,28.58,0,0,1-.2,3.7,27.38,27.38,0,0,0-.2,3.5c0,1.8.1,2.6.1,3.6a34.52,34.52,0,0,1,.1,3.7,36.61,36.61,0,0,1-.1,3.7c0,.9-.1,1.8-.1,3.6v7.2C134.1,331.53,133.7,332,133.1,332Z"/><path class="cls-1" d="M62.7,179.23a1,1,0,0,1,0-2,28,28,0,0,0,3.6-.2,30.48,30.48,0,0,1,3.8-.2,31.81,31.81,0,0,1,3.8.2,32.5,32.5,0,0,0,7.2,0,30.48,30.48,0,0,1,3.8-.2h7.4c.6,0,1.1-.3,1.1-.9,0-1.9,0-2.9-.1-3.9s-.1-2-.1-3.9a37.85,37.85,0,0,1,.1-3.9c0-1,.1-1.9.1-3.9a31.81,31.81,0,0,0-.2-3.8,34.48,34.48,0,0,1-.2-4v-15.6c0-.6-.3-1.2-.8-1.2-1.8,0-2.7.1-3.6.1a36.69,36.69,0,0,1-3.8.1H77.4a31.81,31.81,0,0,1-3.8-.2,33.42,33.42,0,0,0-3.6-.1c-1.8,0-2.7.1-3.6.1a36.69,36.69,0,0,1-3.8.1,32.42,32.42,0,0,0-3.6.1c-.9,0-1.9.1-3.7.1a31.81,31.81,0,0,1-3.8-.2,28,28,0,0,0-3.6-.2H40.5a34.52,34.52,0,0,1-3.7-.1c-.9,0-1.8-.1-3.7-.1-.5,0-.8.6-.8,1.2a34.52,34.52,0,0,1-.1,3.7c0,.9-.1,1.8-.1,3.6a33.42,33.42,0,0,0,.1,3.6c0,.9.1,1.9.1,3.7v7.4a30.48,30.48,0,0,1-.2,3.8,28,28,0,0,0-.2,3.6,1,1,0,0,1-2,0,30.48,30.48,0,0,1,.2-3.8,28,28,0,0,0,.2-3.6v-7.4a33.42,33.42,0,0,0-.1-3.6c0-.9-.1-1.9-.1-3.7a34.52,34.52,0,0,1,.1-3.7c0-.9.1-1.8.1-3.6a3,3,0,0,1,2.8-3.2,34.52,34.52,0,0,1,3.7.1c.9,0,1.8.1,3.7.1h7.4a31.81,31.81,0,0,1,3.8.2,28,28,0,0,0,3.6.2,32.42,32.42,0,0,0,3.6-.1c.9,0,1.9-.1,3.7-.1s2.7-.1,3.6-.1a36.69,36.69,0,0,1,3.8-.1,31.81,31.81,0,0,1,3.8.2,33.42,33.42,0,0,0,3.6.1h7.4c1.8,0,2.7-.1,3.6-.1a36.69,36.69,0,0,1,3.8-.1,3,3,0,0,1,2.8,3.2v15.6a31.81,31.81,0,0,0,.2,3.8,34.48,34.48,0,0,1,.2,4,37.85,37.85,0,0,1-.1,3.9c0,1-.1,1.9-.1,3.9s0,2.9.1,3.9.1,2,.1,3.9a3,3,0,0,1-3.1,2.9H84.9a28,28,0,0,0-3.6.2,30.48,30.48,0,0,1-3.8.2,31.81,31.81,0,0,1-3.8-.2,32.5,32.5,0,0,0-7.2,0A33.21,33.21,0,0,1,62.7,179.23Z"/><path class="cls-1" d="M84.2,131.53a17.83,17.83,0,0,1-2.5-3.6c-.7-1.2-1.5-2.5-2.1-3.8-.3-.7-.6-1.4-.9-2s-.6-1.3-.9-1.9c-.6-1.3-1.3-2.5-2-3.7a18.58,18.58,0,0,1-1.1-1.9l-.5-1-.2-.4h0a15.78,15.78,0,0,0-3-.1c-2.9,0-5.8-.1-8.6,0H58a30,30,0,0,1-4.4-.4,14.77,14.77,0,0,0-2.1-.1H51a1.44,1.44,0,0,0-.3.2l-.2.2-.2.4-.5,1-1,1.9-4.1,7.6c-.7,1.3-1.4,2.6-2.2,3.8s-1.5,2.4-2.2,3.7a1,1,0,0,1-1.4.4,1,1,0,0,1-.4-1.3h0c.6-1.3,1.3-2.7,2-3.9s1.3-2.5,1.9-3.8c1.2-2.6,2.5-5.2,3.8-7.8l1-1.9.5-1,.3-.5a3,3,0,0,1,.5-.7,5.26,5.26,0,0,1,1.4-1.1,3.59,3.59,0,0,1,1.1-.2h.6a18.48,18.48,0,0,1,2.3.1,31,31,0,0,0,4.2.2c1.4,0,2.8,0,4.2-.1,2.9-.1,5.8-.1,8.7-.1h3.1a.9.9,0,0,1,.5.1,3.43,3.43,0,0,1,1.8.9,2.7,2.7,0,0,1,.7.8l.3.5.5.9a17.39,17.39,0,0,0,1.1,1.8c.8,1.3,1.5,2.6,2.2,3.9.3.7.7,1.4,1,2s.6,1.3.9,1.9a35.23,35.23,0,0,1,1.8,3.9,28.28,28.28,0,0,1,1.4,4.1,1,1,0,0,1-.8,1.2C84.8,131.93,84.4,131.83,84.2,131.53Z"/><path class="cls-1" d="M63.8,106.63v-2.1l-.1-2.9-.1-5.8c-.1-1.9-.1-3.9-.1-5.7,0-.9.1-1.9.1-2.9a28,28,0,0,0,0-2.9c0-1.9-.1-3.9-.2-5.8s-.1-3.9-.2-5.8-.1-3.8-.2-5.8L62.8,64l-.1-1.4v-1.3c0-.1-.1-.2-.2-.3s-.1,0-.2-.1h-.4l.3.7h0a.22.22,0,0,1-.2-.2h0v.1h0a.37.37,0,0,1-.1-.3v-.3c-.1,0-.1.1-.2.1a.85.85,0,0,0-.3.6v5c0,1.9-.1,3.9-.1,5.8s-.1,3.9-.1,5.8a26.42,26.42,0,0,0,.2,2.9,13.1,13.1,0,0,1,0,2.8,25.28,25.28,0,0,1-.1,2.8,26.42,26.42,0,0,0-.2,2.9,58.05,58.05,0,0,0,0,5.9c.1,1.9.1,3.8.1,5.7v5.4a1,1,0,0,0,.2.6v.8h1a1.49,1.49,0,0,0,.8-.3l.3-.3a1.61,1.61,0,0,0,.4-.7C63.8,106.93,63.8,106.53,63.8,106.63Z"/><path class="cls-1" d="M62,61l-.1-.3v.4c0-.1,0-.1.1-.1Z"/><path class="cls-1" d="M93.1,286a16.68,16.68,0,0,1-.5-3.1c-.1-1.1-.1-2-.1-3s-.1-1.9-.1-2.9a28.1,28.1,0,0,0-.1-2.9c-.2-4.2,0-8.1,0-12.1a28.1,28.1,0,0,0-.1-2.9c-.1-1-.1-2.1-.1-3.1v-1.2a.44.44,0,0,0-.1-.3,11.44,11.44,0,0,0-1.9-.1c-2-.1-4-.2-6-.2s-4-.1-6-.3a1,1,0,0,1,0-2q6-.45,12-.6l1.5-.1h1.1a3.51,3.51,0,0,1,1.4.6,4,4,0,0,1,1.4,2.3c0,.2.1.4.1.6v1.2a28.25,28.25,0,0,0,.2,2.9c.1,1,.2,2.1.2,3.1l.1,6c0,2,0,4,.1,5.9.1,1,.1,2,.1,3.1s0,2-.1,3.1a23.42,23.42,0,0,1-.5,3c-.2.9-.4,1.9-.7,2.9h0a1,1,0,0,1-1.3.7A.65.65,0,0,1,93.1,286Z"/><path class="cls-1" d="M85.5,249.33a23.82,23.82,0,0,1-3.3-.2,20,20,0,0,0-3-.2,2,2,0,0,1-2.2-1.8,28,28,0,0,1,.2-3.6,25.57,25.57,0,0,0,.2-3.4,29.34,29.34,0,0,0-.1-3.4c0-.9-.1-1.8-.1-3.6a31.35,31.35,0,0,1,.1-3.5c0-.9.1-1.7.1-3.5v-7a32.33,32.33,0,0,0-.1-3.5c0-.9-.1-1.8-.1-3.5a30.38,30.38,0,0,1,.1-3.5c0-.9.1-1.7.1-3.4a25.57,25.57,0,0,0-.2-3.4,28,28,0,0,1-.2-3.6v-14a2.26,2.26,0,0,1,2-2.2,23.82,23.82,0,0,1,3.3.2,20,20,0,0,0,3,.2h6.3a1.84,1.84,0,0,1,1.9,1.9v14a31.35,31.35,0,0,1-.1,3.5v3.5a32.33,32.33,0,0,0,.1,3.5c0,.9.1,1.8.1,3.5v35a1.82,1.82,0,0,1-1.8,1.9c-1.5,0-2.3.1-3,.1Zm-6.5-2.4h.2a23.82,23.82,0,0,1,3.3.2,20,20,0,0,0,3,.2c1.5,0,2.3-.1,3-.1a25.46,25.46,0,0,1,3.1-.1v-35a32.33,32.33,0,0,0-.1-3.5c0-.9-.1-1.8-.1-3.5a31.35,31.35,0,0,1,.1-3.5v-17.4H85.3A23.82,23.82,0,0,1,82,184a19.53,19.53,0,0,0-2.9-.2l-.1.2v14a25.57,25.57,0,0,0,.2,3.4,28,28,0,0,1,.2,3.6,30.38,30.38,0,0,1-.1,3.5c0,.9-.1,1.7-.1,3.4a32.33,32.33,0,0,0,.1,3.5c0,.9.1,1.8.1,3.5v7a31.35,31.35,0,0,1-.1,3.5c0,.9-.1,1.7-.1,3.5a29.34,29.34,0,0,0,.1,3.4c0,.9.1,1.8.1,3.6a28,28,0,0,1-.2,3.6A31.14,31.14,0,0,0,79,246.93Z"/><path class="cls-1" d="M68.2,185.23a35.17,35.17,0,0,1-4.1-.2,32.45,32.45,0,0,0-3.9-.2,1,1,0,0,1,0-2,35.17,35.17,0,0,1,4.1.2,32.45,32.45,0,0,0,3.9.2.94.94,0,0,1,1,1A1,1,0,0,1,68.2,185.23Z"/><path class="cls-2" d="M118,103.9c0,1,0,2,.1,3.1s.2,2.2.2,3.2,0,2.2-.1,3.3-.3,2.1-.3,3.1,0,2,0,3.1.1,2,.2,3.1c.1,2.2.1,4.3,0,6.5a32.1,32.1,0,0,0,0,6.2c.1,1,.2,2.1.3,3.2v3.2c-.1,2.2-.2,4.2-.1,6.3,0,1,.1,2.1.1,3.1a23.2,23.2,0,0,1-.4,3.9v1.1l.1,2.2c0,1.5.1,3,.1,4.4l.3,4.4c.1,1.5,0,3,.1,4.5v4.4l.2,4.4c.2,2.9.2,5.9.3,8.8s.4,5.8.4,8.9c0,1.5-.1,3-.1,4.5a31,31,0,0,0,.2,4.3c.1,1.5.3,2.9.3,4.5a33.43,33.43,0,0,1-.1,4.5,30.85,30.85,0,0,0,0,4.3l.2,4.4c.1,2.9.3,5.9.5,8.8.1,1.4.2,2.9.4,4.4.1.7.1,1.5.2,2.3l.1,2.2.2,4.4c.1,1.5,0,3.1,0,4.5s-.1,2.9,0,4.3.3,2.9.4,4.4c.2,3,.3,5.9.5,8.9l.3,4.4c.1,1.5.2,2.9.2,4.5s-.1,3-.1,4.4c0,.7.1,1.4.1,2.2l.2,2.2c.2,2.9.4,5.9.6,8.8s.5,5.9.7,8.8l.5,8.8.3,4.4c.1,1.5.2,2.9.4,4.3s.4,2.9.5,4.5.1,3,.1,4.5a14.77,14.77,0,0,0,.1,2.1l.2,2.2.4,4.4c.2,2.9.8,5.7,1.1,8.8.1,1.5.1,3,.2,4.4s.3,2.9.4,4.3c.3,2.9.6,5.9.8,8.8a28.18,28.18,0,0,0,.5,4.3l.8,4.3c.5,3.1.6,6,1.1,8.8s.9,5.8,1.4,8.7l.7,4.3c.3,1.4.6,2.9.8,4.3s.5,2.9.9,4.3l1.2,4.2.3,1.1a3.1,3.1,0,0,1,.2.7,2,2,0,0,1,0,1.1,2.59,2.59,0,0,1-1.2,1.7,3.58,3.58,0,0,1-1.1.4h-9.5c-1.4,0-2.9.1-4.4.1h-4.5c-1.6-.1-2.9-.3-4.4-.3h-4.4c-1.5.1-3,.1-4.5.1H87.9a1.27,1.27,0,0,1-.6-.1,3,3,0,0,1-1.6-1.2,2.62,2.62,0,0,1-.5-1.9.9.9,0,0,1,.1-.5l.1-.4.1-.5.3-1.1.6-2.1c.4-1.4.8-2.8,1.1-4.2,1.3-5.7,2-11.5,3.1-17.3l1.4-8.7c.4-2.8.5-5.8.9-8.8l.6-4.4c.2-1.4.3-2.9.4-4.4l.4-4.4.5-4.4.2-2.2c.1-.7.1-1.4.2-2.1.1-1.4.1-2.9.2-4.4.2-3.1.9-6,1-8.7v-4.4a17,17,0,0,1,.1-2.3l.2-2.2.4-4.4c.1-1.5.3-3,.5-4.5a30,30,0,0,0,.3-4.3l.2-4.4c.1-1.5.1-2.9.1-4.4s0-3,.1-4.5c.2-3,.4-5.9.6-8.9.1-1.5.3-2.9.4-4.4l.2-4.4c.3-5.9.4-11.8.6-17.7s.4-11.8.5-17.7c0-1.5,0-2.9.1-4.5l.3-4.4c.1-1.4.1-3,.2-4.4s.2-2.9.3-4.4c0-2.9.1-6,.1-8.8,0-1.5-.1-2.9-.1-4.5s.1-3,.2-4.4c.2-5.9.3-11.8.4-17.7l.3-8.9c.1-1.5.2-3,.3-4.4v-4.4c0-5.9.1-11.8.2-17.7h0a1,1,0,0,1,1-1,1.08,1.08,0,0,1,1,1c-.1,5.9-.1,11.8-.1,17.7v4.4c0,1.5-.2,3-.2,4.4l-.2,8.8c0,5.9,0,11.8-.3,17.7,0,1.5-.1,3-.1,4.4s.1,2.9.1,4.4v8.9c0,1.5-.1,3-.2,4.5s-.2,2.9-.2,4.4l-.3,4.4c-.1,1.4-.1,2.9-.1,4.4-.1,5.9-.2,11.8-.5,17.7-.1,5.9-.2,11.8-.5,17.7l-.2,4.4c-.1,1.5-.2,3-.4,4.5-.2,2.9-.4,5.9-.6,8.8-.1,1.5-.1,2.9-.1,4.4s-.1,3-.1,4.5l-.2,4.4a34,34,0,0,1-.3,4.5c-.2,1.5-.4,2.9-.5,4.3l-.3,4.4-.2,2.2a14.77,14.77,0,0,0-.1,2.1c0,1.4.1,2.9,0,4.5-.1,3.2-.9,6-1,8.8-.1,1.4-.1,2.9-.2,4.4a19.53,19.53,0,0,1-.2,2.3l-.2,2.2-.5,4.4-.4,4.4c-.1,1.5-.2,2.9-.4,4.4l-.6,4.4c-.4,2.8-.5,5.8-.9,8.8l-1.4,8.8c-1,5.8-1.8,11.7-3.1,17.5-.3,1.5-.7,2.9-1.1,4.4l-1.1,4c0,.1,0,.1.1.2l.1.1h15.2c1.5,0,2.9,0,4.4-.1s3-.1,4.5,0,3.1.2,4.5.3,2.9.1,4.3.1,2.9-.1,4.4-.1h9.2v-.1c.1.3-.3-.8-.5-1.5a34.52,34.52,0,0,1-1.2-4.3c-.4-1.5-.6-2.9-.9-4.4s-.6-2.9-.8-4.4l-.7-4.4c-.5-2.9-.9-5.9-1.4-8.8s-.6-6-1-8.8c-.2-1.4-.6-2.8-.8-4.3s-.3-3-.5-4.5c-.3-2.9-.5-5.9-.8-8.8-.1-1.5-.3-2.9-.4-4.5s-.1-3-.2-4.4c-.2-2.8-.8-5.7-1-8.8l-.4-4.4-.2-2.2a17.7,17.7,0,0,1-.1-2.3c0-1.5,0-3-.1-4.4s-.3-2.8-.5-4.3a34.19,34.19,0,0,1-.4-4.5l-.2-4.4-.5-8.8c-.2-2.9-.5-5.9-.7-8.8s-.4-5.9-.6-8.8l-.2-2.2-.1-1.1v-1.2c0-1.5.1-3,.1-4.5s-.1-2.9-.2-4.3l-.3-4.4c-.1-2.9-.2-5.9-.4-8.8-.1-1.4-.3-2.9-.4-4.4a33.78,33.78,0,0,1,0-4.5,30.84,30.84,0,0,0,0-4.3l-.2-4.4-.1-2.2c0-.7-.1-1.4-.1-2.2-.1-1.5-.3-2.9-.4-4.5-.1-3-.3-5.9-.5-8.9L118,220a33.78,33.78,0,0,1,0-4.5c.1-1.5.1-2.9.1-4.3s-.2-2.9-.3-4.4a33.81,33.81,0,0,1-.1-4.5c0-1.5.1-3,.1-4.4,0-2.8-.4-5.8-.4-8.8s0-5.9-.2-8.9l-.2-4.4v-4.4c0-1.5.1-3,0-4.4l-.3-4.4c-.1-1.5-.1-3-.1-4.5v-2.2a48.81,48.81,0,0,0,.3-4.9c-.1-1-.1-2.1-.1-3.2-.1-2.1.1-4.3.1-6.4v-3.1c0-1-.2-2-.3-3.1a47,47,0,0,1,0-6.5,32.1,32.1,0,0,0,0-6.2c-.1-1-.2-2.1-.2-3.2v-3.2c.1-1.1.2-2.2.3-3.2s.1-2,.1-3.1-.1-2-.2-3.1-.1-2.2-.2-3.2a.94.94,0,0,1,1-1C118,102.5,118,103.3,118,103.9Z"/><path class="cls-2" d="M104.1,148.4h0a1,1,0,0,1-1-1c0-1.8-.1-2.6-.1-3.5a35.56,35.56,0,0,1-.1-3.7,33.42,33.42,0,0,1,.1-3.6c0-.9,0-1.8.1-3.6a28.58,28.58,0,0,1,.2-3.7,27.38,27.38,0,0,0,.2-3.5c0-1.8-.1-2.6-.1-3.5a35.56,35.56,0,0,1-.1-3.7v-7.2c0-1.8.1-2.8.1-3.7a33.42,33.42,0,0,0,.1-3.6,1,1,0,0,1,2,0c0,1.8-.1,2.8-.1,3.7a33.42,33.42,0,0,0-.1,3.6v7.2c0,1.8.1,2.6.1,3.5a35.56,35.56,0,0,1,.1,3.7,29.86,29.86,0,0,1-.2,3.7,27.38,27.38,0,0,0-.2,3.5,36.61,36.61,0,0,1-.1,3.7c0,.9,0,1.8-.1,3.6s.1,2.6.1,3.5a35.56,35.56,0,0,1,.1,3.7A1,1,0,0,1,104.1,148.4Z"/><path class="cls-2" d="M110,49.9a21.19,21.19,0,0,1-.7-6.1c0-1,0-2.1.1-3.1a26.61,26.61,0,0,1,.2-3v-3c0-1-.1-1.9-.1-3-.1-2.2,0-4.2,0-6.2s.1-4,.2-6.2.2-4,.2-6.1l.2-6.1c.1-2.1.2-4.1.3-6.1a1,1,0,0,1,1-1,1.06,1.06,0,0,1,1,.9h0c.1,2.1.1,4.1.1,6.1s.1,4.1.1,6.1.1,4.2,0,6.2.1,4,.1,6.1,0,4.1.1,6c.1,1,.2,2.1.2,3.1v3.2c0,1.1-.1,2.1-.1,3.1v3a18,18,0,0,1-.8,6.1,1,1,0,0,1-1.3.7A1.14,1.14,0,0,1,110,49.9Z"/><path class="cls-2" d="M133.2,76.9a.76.76,0,0,0-.2-.5,19.77,19.77,0,0,0-.8-6,20.77,20.77,0,0,0-3.3-5.8l-.3-.4a19.32,19.32,0,0,0-4.7-5.2,20.59,20.59,0,0,0-6.3-3.1,23.8,23.8,0,0,0-7-1.1,21.11,21.11,0,0,0-7,1A20.77,20.77,0,0,0,97.3,59a23.7,23.7,0,0,0-5,5,20.59,20.59,0,0,0-3.1,6.3,21.92,21.92,0,0,0-1.2,7,24.33,24.33,0,0,0,1.1,7,21.34,21.34,0,0,0,3.4,6.2,23.33,23.33,0,0,0,5,4.9l.3.2a20.77,20.77,0,0,0,5.8,3.3,20.91,20.91,0,0,0,6.6.7h.4a23.15,23.15,0,0,0,6.9-1.1,20.72,20.72,0,0,0,6.4-3,23.7,23.7,0,0,0,5-5,25.32,25.32,0,0,0,3-6.4,23,23,0,0,0,1.1-6.8C133.1,77.3,133.2,77.2,133.2,76.9ZM93.9,65.2a21.88,21.88,0,0,1,4.5-4.6,19.7,19.7,0,0,1,5.8-2.9,20.16,20.16,0,0,1,6.4-.9,19.32,19.32,0,0,1,6.3,1,24.09,24.09,0,0,1,5.8,2.8,20.15,20.15,0,0,1,4.3,4.8l.2.3a18.07,18.07,0,0,1,3,5.2,19.47,19.47,0,0,1,.7,5h-5.8c-1.7,0-2.5-.1-3.4-.1a33.42,33.42,0,0,0-3.6-.1,33.42,33.42,0,0,0-3.6.1c-.9,0-1.7.1-3.5.1h-7a30.38,30.38,0,0,0-3.5.1c-.9,0-1.7.1-3.5.1a25.57,25.57,0,0,1-3.4-.2,28,28,0,0,0-3.6-.2h-.1a20.83,20.83,0,0,1,1-4.7A31.36,31.36,0,0,1,93.9,65.2Zm33.4,24.3a22.28,22.28,0,0,1-4.6,4.6,20.8,20.8,0,0,1-5.8,2.7,18.9,18.9,0,0,1-6.3,1h-.2a20.76,20.76,0,0,1-6.2-.6,20.42,20.42,0,0,1-5.3-3.1l-.3-.2A24.33,24.33,0,0,1,94,89.5a19.9,19.9,0,0,1-3.1-5.6,18.56,18.56,0,0,1-1-6.1H90a25.57,25.57,0,0,1,3.4.2,28,28,0,0,0,3.6.2,30.38,30.38,0,0,0,3.5-.1c.9,0,1.7-.1,3.5-.1h7a33.42,33.42,0,0,0,3.6-.1c.9,0,1.7-.1,3.4-.1s2.5.1,3.4.1a33.42,33.42,0,0,0,3.6.1h5.8a22.76,22.76,0,0,1-1,5.7A16.18,16.18,0,0,1,127.3,89.5Z"/><path class="cls-2" d="M230.2,413.73c-3.3,0-6.7.2-10.1,0-1.7-.1-3.3-.1-5-.1H210a26.34,26.34,0,0,0-4.9.3,30.3,30.3,0,0,1-5.2.1,55.67,55.67,0,0,0-10,0c-3.5.1-6.8,0-10.2,0a22.75,22.75,0,0,1-2.6-.2,19.48,19.48,0,0,0-2.5-.2,39.34,39.34,0,0,0-4.9.2,30.12,30.12,0,0,1-5.2.1c-1.7-.1-3.4-.2-5-.2s-3.4,0-5.1-.1h-2.2a.75.75,0,0,1-.5-.1,2.66,2.66,0,0,1-1-.6,1.66,1.66,0,0,1-.5-1.2v-1.3c-.1-3.3-.2-6.8,0-10.1.1-1.6,0-3.4.1-5.1s.2-3.3.2-5v-7.6c0-.8-.2-1.6-.2-2.5-.3-3.5.1-6.8,0-10.2s.2-6.7-.1-10a22.6,22.6,0,0,1-.1-2.6v-.5a.6.6,0,0,1,.3-.6,1.78,1.78,0,0,1,.8-.7,1.69,1.69,0,0,1,1-.3h.7a20.9,20.9,0,0,0,2.5-.1c.8,0,1.7-.1,2.6-.1h.5c.2,0,.3,0,.4-.1a2,2,0,0,0,.8-.4,1.87,1.87,0,0,0,.8-1.4,44.56,44.56,0,0,0-.3-5,45.09,45.09,0,0,1,0-5.2,27.9,27.9,0,0,0,.2-5,21.75,21.75,0,0,0-.1-2.5,21.12,21.12,0,0,1-.2-2.6c0-1.8,0-3.4-.1-5.1-.2-3.4,0-6.8,0-10.2a42.64,42.64,0,0,1,.2-5.1c.1-1.6,0-3.3,0-5s-.1-3.4-.2-5.1-.1-3.3-.2-5-.1-3.4-.1-5.1a41.7,41.7,0,0,0,0-5c0-.8-.1-1.6-.1-2.4a21.12,21.12,0,0,1-.2-2.6c-.1-1.7,0-3.5,0-5.2s.1-3.3.1-5v-5.1c0-3.4.1-6.8,0-10a22.86,22.86,0,0,0-.2-2.5,23.48,23.48,0,0,1-.1-2.6v-10.2c0-1.7.1-3.3.1-5s.1-3.4.1-5.1,0-3.4.1-5.1.1-3.3,0-5-.1-3.4-.1-5.1v-2.6a21.12,21.12,0,0,1,.2-2.6c.1-1.6.1-3.3.1-4.9l-.1-2.5v-2.6a2.25,2.25,0,0,1,.8-1.6,2.18,2.18,0,0,1,1.4-.5h4.3a.37.37,0,0,0,.3-.1,2.09,2.09,0,0,0,.6-.4,1.56,1.56,0,0,0,.6-1.2,20.08,20.08,0,0,0-.1-2.4,19.66,19.66,0,0,1-.2-2.6,29.92,29.92,0,0,1,.1-5.2,40.48,40.48,0,0,0,.1-4.9c0-1.6-.1-3.4-.1-5.1v-.6a.6.6,0,0,1,.1-.4,3.6,3.6,0,0,1,.8-1.2,2.73,2.73,0,0,1,1.2-.6h.7a1.34,1.34,0,0,0,.5-.1c.2,0,.6-.1.8-.1h.6a.37.37,0,0,0,.3-.1,1.09,1.09,0,0,0,.8-.8c0-.1.1-.2.1-.3v-1.8l.1-5.1v-2.8a2.92,2.92,0,0,1,.2-.9,2.14,2.14,0,0,1,1.2-1,4.14,4.14,0,0,1,1-.1h.6c1.7,0,3.3-.1,5-.1h10.1c3.3,0,6.8-.1,10.1,0h2.6a1.89,1.89,0,0,1,1.5.8,2.38,2.38,0,0,1,.4,1.2v1.3c0,1.7.2,3.3.3,5,0,.9.1,1.7.1,2.6v1.1a1.33,1.33,0,0,0,.3.8,1.64,1.64,0,0,0,1.2.8h1.2c.4,0,.9.1,1.3.1h1.2a2.21,2.21,0,0,1,1.3.4,1.87,1.87,0,0,1,.6.7,1.76,1.76,0,0,1,.1.6v1.3a4.87,4.87,0,0,0,.1,1.2,21.05,21.05,0,0,1,.2,2.5v2.6a22.6,22.6,0,0,1-.1,2.6,20.9,20.9,0,0,0-.1,2.5,41.8,41.8,0,0,0,.2,5,22.6,22.6,0,0,1,.1,2.6,2.79,2.79,0,0,0,.1,1,1.61,1.61,0,0,0,.4.7,1.75,1.75,0,0,0,1.5.6,23.48,23.48,0,0,1,2.6.1h1.9a1.76,1.76,0,0,1,1.3.6,1.86,1.86,0,0,1,.4,1.1v2c0,1.7.1,3.4.1,5.1v10.1c0,1.7.1,3.4.1,5.1s-.2,3.5-.3,5.1c-.1,3.3,0,6.7-.1,10.1,0,1.7.1,3.3.1,5.1a41.8,41.8,0,0,0,.2,5c.1,1.7.1,3.4.1,5.1s-.3,3.4-.3,5-.1,3.4-.2,5.1a41.7,41.7,0,0,0,0,5,49.68,49.68,0,0,1,.1,10.2c-.1,1.7,0,3.3,0,5l.2,5.1c.1,1.7.2,3.4.2,5.1v10.2c-.1,1.7-.2,3.4-.2,5,0,3.4-.2,6.8-.1,10.1.1,1.6.2,3.4.2,5.1s-.2,3.5-.2,5.1l-.1,10.1v5.1c0,1.7,0,3.3.1,5,0,.9.1,1.7.1,2.6v1a2,2,0,0,0,.4.8,2.14,2.14,0,0,0,1.5.9h1.1a5.7,5.7,0,0,1,1.3.1,21.75,21.75,0,0,0,2.5.1h.6a3.08,3.08,0,0,1,.9.1,1.51,1.51,0,0,1,1.1,1.6v5.4c0,3.4.1,6.7,0,10.2,0,.9-.2,1.7-.2,2.5a20.08,20.08,0,0,0-.1,2.5v15.2c0,3.4,0,6.7.1,10.1V408l-.1,2.5v1.4a1.38,1.38,0,0,1-.6,1.1C230.9,413.63,230.5,413.73,230.2,413.73Zm0-1.6h0l.1-1.2v-7.5c-.1-3.4-.1-6.8-.1-10.1l-.1-10.1v-5.1a22.6,22.6,0,0,1,.1-2.6,22.86,22.86,0,0,0,.2-2.5c.1-3.3-.1-6.7,0-10.1l-.1-5.1v-.2c0,.1.1.1,0,.1h-.9c-.9,0-1.8-.1-2.6-.1h-2.5a4,4,0,0,1-2.8-1.6,4.13,4.13,0,0,1-.7-1.5,2.2,2.2,0,0,1-.1-.8v-.6a20.9,20.9,0,0,0-.1-2.5c-.1-1.7-.1-3.4-.1-5.1v-15.2c.1-1.8.2-3.4.2-5s-.1-3.3-.2-5c-.2-3.5,0-6.8,0-10.2,0-1.7.1-3.5.2-5.1v-5c0-3.4,0-6.7.2-10.1a41.7,41.7,0,0,0,0-5c-.1-1.7-.1-3.4-.1-5.1a47.69,47.69,0,0,0-.1-10,45.13,45.13,0,0,1-.1-5.2,41.73,41.73,0,0,0,.1-5c0-1.7.2-3.5.2-5.1s0-3.3-.1-5a44.34,44.34,0,0,1-.2-5.1c0-1.7-.2-3.3-.2-5.1,0-3.4-.1-6.7,0-10.2a43.5,43.5,0,0,0,.2-5c0-1.7,0-3.3-.1-5l-.1-10.1c0-1.7-.1-3.3-.1-5v-1.8h0c0,.1.2.1.2.1h-4.4a3.88,3.88,0,0,1-3-1.3,4.35,4.35,0,0,1-.8-1.5,4.42,4.42,0,0,1-.2-1.5,21.75,21.75,0,0,0-.1-2.5,45.2,45.2,0,0,1-.2-5.2,22.6,22.6,0,0,1,.1-2.6c0-.8.1-1.6.1-2.5v-2.5a22.86,22.86,0,0,0-.2-2.5c0-.4-.1-.9-.1-1.3v-1.2c0-.1,0,.1.2.3s.2.1.1.1h-1.3c-.5,0-.8-.1-1.2-.1h-1.3a3.91,3.91,0,0,1-2.9-1.9,4.42,4.42,0,0,1-.6-1.6c0-.3-.1-.6-.1-.8v-.6a20.9,20.9,0,0,0-.1-2.5c-.1-1.6-.3-3.4-.3-5.1v-1.2c0-.1,0-.1.1,0s.4.3.4.2h-2.5c-3.4-.1-6.7,0-10.1,0l-10.1.1c-1.6,0-3.3.1-5.1.1h-.8a.75.75,0,0,0,.3-.3.37.37,0,0,0,.1-.3v2.8l-.1,5v2a2.92,2.92,0,0,1-.2.9,3.78,3.78,0,0,1-2.6,2.6,2.92,2.92,0,0,1-.9.2H172c-.2,0-.3,0-.4.1s-.5.1-.8.1h-.4a.35.35,0,0,0,.1-.2v-.1h0v.3c0,1.7.1,3.3.1,5s0,3.5-.1,5.2a40.05,40.05,0,0,0,0,4.9c0,.8.2,1.6.2,2.5a23.48,23.48,0,0,1,.1,2.7,4.72,4.72,0,0,1-1.6,3.2,5.07,5.07,0,0,1-1.6.9,2.92,2.92,0,0,1-.9.2h-4.5a.31.31,0,0,0,.2-.1.68.68,0,0,0,.3-.5v2.3l.1,2.5c0,1.7.1,3.4,0,5.2-.1.9-.1,1.7-.2,2.5v2.5c0,1.7.1,3.3.2,5v10.1c0,1.7-.1,3.4-.1,5v15.2a19.27,19.27,0,0,0,.1,2.4,19.48,19.48,0,0,1,.2,2.5c.2,3.6,0,6.8.1,10.2v5.1c0,1.7,0,3.4-.1,5.1s-.1,3.3-.1,4.9a21.75,21.75,0,0,0,.1,2.5,22.53,22.53,0,0,1,0,2.6,42.36,42.36,0,0,1-.3,5.1c-.1,1.6-.2,3.3-.2,5v10.1c0,1.7,0,3.4-.1,5.1s-.2,3.3-.2,5c0,3.4-.1,6.7,0,10.1.1,1.7,0,3.4.1,5.1a22.86,22.86,0,0,0,.2,2.5,22.6,22.6,0,0,1,.1,2.6v2.6a22.75,22.75,0,0,1-.2,2.6c-.1,1.6-.1,3.3-.1,4.9a42.64,42.64,0,0,1,.2,5.1,3.78,3.78,0,0,1-1.5,2.9,3.69,3.69,0,0,1-1.4.7,2.2,2.2,0,0,1-.8.1h-.7a20.9,20.9,0,0,0-2.5.1c-.8,0-1.7.1-2.6.1h-.6a.31.31,0,0,0-.2.1.1.1,0,0,0-.1.1v-.1h0v.2a20.9,20.9,0,0,0,.1,2.5c.3,3.4.1,6.9.1,10.2s-.3,6.8,0,10a21.05,21.05,0,0,1,.2,2.5,22.55,22.55,0,0,1,0,2.6v5.1a42.64,42.64,0,0,1-.2,5.1c-.1,1.6-.1,3.3-.1,5-.2,3.4-.1,6.6,0,10.1v1.2c0-.1,0,0,.1,0h2.3c1.7,0,3.4.1,5,.1s3.5.1,5.1.2a39.67,39.67,0,0,0,4.9-.1,30.17,30.17,0,0,1,5.2-.2,21.12,21.12,0,0,1,2.6.2c.8.1,1.6.1,2.5.2,3.3,0,6.8.1,10.1,0a57.91,57.91,0,0,1,10.2,0,26.57,26.57,0,0,0,4.9-.1l2.6-.3h2.6l5.1.1c1.7,0,3.4,0,5.1.1s3.3.1,5,.1C226.8,412.13,228.5,412.13,230.2,412.13Z"/><path class="cls-2" d="M200.3,157a.94.94,0,0,1-1-1v-7.9a37.85,37.85,0,0,0-.1-3.9c0-1-.1-2-.1-4v-7.9a.53.53,0,0,0-.6-.6h-1v-.2a2.93,2.93,0,0,1-1.9-2.7v-6.6c0-1.5.1-2.4.1-3.1a17.49,17.49,0,0,0,.1-3.5c-.1-2.3-.3-3.2-.4-4.4-.1-.8-.2-1.8-.4-3.4-.2-2-.3-3-.3-4s-.1-1.9-.3-3.9-.4-2.8-.5-3.8a23.5,23.5,0,0,1-.5-4c-.2-2-.3-2.9-.4-3.9s-.2-2-.4-3.9a1,1,0,0,0-1-.9h0a1,1,0,0,0-1,.9,37.94,37.94,0,0,0-.3,3.9c-.1,1-.1,2-.3,4s-.3,2.9-.4,3.9-.1,2-.4,4a35.56,35.56,0,0,1-.6,4,34.12,34.12,0,0,0-.6,3.8c-.4,3.4-.4,3.9-.6,6.6l-.1,1.2c-.1,1.8,0,2.6,0,3.5a26.42,26.42,0,0,1,.1,3.2,27.38,27.38,0,0,1-.2,3.5,22.68,22.68,0,0,0-.2,3.3,2.08,2.08,0,0,1-1.4,2.1v.5h-1c-.3,0-.6.1-.6.4a32.45,32.45,0,0,0,.2,3.9,35.17,35.17,0,0,1,.2,4.1v8c0,2-.1,3.1-.1,4.1s-.1,2-.1,3.9a1,1,0,0,1-2,0c0-2,.1-3.1.1-4.1s.1-2,.1-3.9v-8a32.45,32.45,0,0,0-.2-3.9,35.17,35.17,0,0,1-.2-4.1,2.48,2.48,0,0,1,1.6-2.2v-.5h1c.4,0,.4-.2.4-.3a27.38,27.38,0,0,1,.2-3.5,22.68,22.68,0,0,0,.2-3.3c0-1.4-.1-2.2-.1-3a20.91,20.91,0,0,1-.1-3.8l.1-1.2c.2-2.8.2-3.2.6-6.7a35.56,35.56,0,0,1,.6-4,34.12,34.12,0,0,0,.6-3.8,37.94,37.94,0,0,0,.3-3.9c.1-1,.1-2,.4-4a37.94,37.94,0,0,0,.3-3.9c.1-1,.1-2,.3-4a3,3,0,0,1,3-2.7h0a2.89,2.89,0,0,1,3,2.7c.2,2,.3,2.9.4,3.9s.2,2,.4,3.9.4,2.8.5,3.8a23.5,23.5,0,0,1,.5,4c.2,2,.3,3,.3,4s.1,1.9.3,3.9c.2,1.6.3,2.5.4,3.3a33.65,33.65,0,0,1,.4,4.6,19.35,19.35,0,0,1-.1,3.7,21.92,21.92,0,0,0-.1,2.9v6.6a1.06,1.06,0,0,0,.9.9h1v.2a2.41,2.41,0,0,1,1.6,2.4v7.9a37.85,37.85,0,0,0,.1,3.9c0,1,.1,2,.1,4v7.9A.84.84,0,0,1,200.3,157Z"/><path class="cls-2" d="M72.3,271.4a2.42,2.42,0,0,1-2.3-1.5c-.4-1.1-.7-2.2-1-3.2-.4-1.2-.7-2.4-1.1-3.5a35.17,35.17,0,0,0-1.7-3.9c-.4-.9-.8-1.7-1.1-2.6l-.2-.6c-.9-2.1-1.7-4.1-2.6-5.9q-1-2.25-2.1-4.2c-.4-.7-.7-1.4-1.1-2.1-.5-1.1-1-2.1-1.4-3.2a25.21,25.21,0,0,0-1.5-3.3,38.7,38.7,0,0,0-2.1-3.4c-.6-.9-1.1-1.7-1.7-2.6s-1.1-2-1.6-3-1.2-2.2-1.8-3.2c-.3-.5-.7-1-1-1.5s-.7-1-1.1-1.6c-.8-1.4-1.5-2.7-2.1-4-.4-.8-.8-1.5-1.2-2.3-.3-.5-.5-1-.8-1.4a48,48,0,0,1-4.9-11.7,38.88,38.88,0,0,1-.8-5.1c-.1-.7-.1-1.4-.2-2.1a68.46,68.46,0,0,1-.4-7.1,1.87,1.87,0,0,1,.9-1.8c3.4-1.2,6.2-.5,9.7,2.5a29.9,29.9,0,0,1,4.8,5.3,70.38,70.38,0,0,1,3.9,6.6c.9,1.9,1.8,4,2.6,6.1l.4.9c.9,2.2,1.7,4.5,2.6,7.1.5,1.3.8,2.7,1.2,4.1.2.9.5,1.7.7,2.6s.7,1.9,1,2.9c.5,1.2.9,2.4,1.3,3.6.6,2.2,1.2,4.4,1.8,6.7.3,1.2.5,2.5.7,3.7.2,1,.4,2.1.6,3.1l.9,4.2c.2.9.4,1.8.5,2.6.2,1.1.5,2.1.8,3.2s.7,2.4.9,3.6.4,2.5.5,3.7.2,2.1.4,3.2.5,2.2.7,3.2c.3,1.2.5,2.4.7,3.5a1.54,1.54,0,0,1-.5,1.4,1.68,1.68,0,0,1-1.1,1.1C72.6,271.4,72.5,271.4,72.3,271.4ZM38.5,188.1a64.31,64.31,0,0,0,.4,6.9,14.92,14.92,0,0,1,.2,2.1,31.09,31.09,0,0,0,.7,4.7,52.2,52.2,0,0,0,2.3,6.6c.7,1.6,1.5,3.1,2.4,4.8.3.5.5,1,.8,1.5.4.8.8,1.5,1.2,2.3a37.16,37.16,0,0,0,2.1,3.9,12.13,12.13,0,0,0,1,1.4,15.26,15.26,0,0,1,1.1,1.6c.6,1.1,1.2,2.1,1.8,3.3.5,1,1.1,1.9,1.6,2.9.5.8,1,1.7,1.6,2.5.7,1.1,1.5,2.3,2.2,3.5a37.27,37.27,0,0,1,1.6,3.5c.4,1,.8,2,1.3,3.1a21.16,21.16,0,0,0,1.1,2.1c.7,1.4,1.4,2.8,2.1,4.3.9,1.9,1.7,3.9,2.6,6l.2.6a27.18,27.18,0,0,0,1.1,2.5c.6,1.3,1.2,2.6,1.7,4,.5,1.2.8,2.5,1.2,3.7.3,1,.6,2.1,1,3.1,0,.1.1.1.2.2,0-.1.1-.2.2-.3h0c-.2-1-.4-2.1-.7-3.2s-.5-2.2-.7-3.3-.3-2.2-.4-3.3a19.68,19.68,0,0,0-.5-3.5,24.59,24.59,0,0,0-.9-3.4c-.3-1.1-.6-2.2-.8-3.3a25.58,25.58,0,0,1-.5-2.7c-.3-1.4-.6-2.7-.9-4.1-.2-1.1-.4-2.2-.6-3.2-.2-1.2-.4-2.4-.7-3.6-.6-2.3-1.2-4.5-1.7-6.7a34,34,0,0,0-1.2-3.4,28.27,28.27,0,0,1-1.1-3.1c-.3-.9-.5-1.8-.8-2.6a35.94,35.94,0,0,0-1.2-3.9c-.9-2.6-1.7-4.9-2.6-7.1l-.4-.9c-.8-2.1-1.7-4.2-2.6-6a44.6,44.6,0,0,0-3.8-6.4,25.36,25.36,0,0,0-4.4-4.9c-2.1-1.8-3.8-2.6-5.5-2.6C39.8,187.8,39.2,187.9,38.5,188.1Z"/><path class="cls-2" d="M79.6,313.4c0,1.6-.1,3.3-.2,4.8s-.1,3.1-.1,4.6a17.85,17.85,0,0,0,.2,2.3,20.08,20.08,0,0,1,.1,2.5v19.1a37.28,37.28,0,0,1-.4,4.8l-2,.1-1-4.6-.5-2.3-.6-2.3-1.2-4.5c-.5-1.4-1.1-2.8-1.7-4.3-1.3-2.9-2.1-6-3.4-8.7l-2-4.2c-.3-.7-.7-1.4-1-2.1l-1.1-2c-3-5.4-6.1-10.9-9.4-16.1-1.7-2.6-3.6-5.1-5.2-7.8l-2.7-3.8c-.9-1.3-1.7-2.7-2.5-4s-1.6-2.6-2.5-4.1-1.4-2.9-2.1-4.3-1.5-2.7-2.2-4.1-1.6-2.8-2.3-4.1l-2.2-4.1a34.34,34.34,0,0,1-1.9-4.4c-.6-1.5-1.2-2.9-1.8-4.4L28.2,251a19.45,19.45,0,0,1-.8-2.2l-.7-2.3L25.3,242l-1.2-4.6-.6-2.3c-.2-.7-.4-1.4-.7-2.2a34.71,34.71,0,0,1-1.3-4.6l-.9-4.6-.5-2.3c-.1-.8-.3-1.6-.4-2.4-.2-1.6-.4-3.1-.6-4.6a2.49,2.49,0,0,1,.1-.8c.1-.2.2-.3.2-.4v0l.2-.5.3-1.1.7-2.3a15.55,15.55,0,0,1,.8-2.3,14.72,14.72,0,0,1,1-2.2c.7-1.5,1.4-2.8,2.1-4.2s1.6-2.8,2.4-4.2l.6-1,.3-.5.2-.3a2.25,2.25,0,0,1,.5-.5,2.84,2.84,0,0,1,1.3-.4,1,1,0,0,1,.4.1l.2.1a2.36,2.36,0,0,1,.9.6,2.1,2.1,0,0,1,.7,1.4l.1.6c.1,1.6.2,3.1.4,4.6.3,2.9,1.4,5.8,2.3,8.9l1.4,4.4.7,2.2c.3.7.6,1.4.9,2.2l1.7,4.3c.6,1.4,1.3,2.8,1.9,4.3,2.5,5.7,5.1,11.4,7.9,16.9l2.2,4.1a15.05,15.05,0,0,1,1.1,2.2c.3.8.6,1.5.9,2.2a12.15,12.15,0,0,0,.9,2l1.1,2.1,2.1,4.2c.7,1.3,1.5,2.6,2.3,4a36.12,36.12,0,0,1,2.2,4.4q.9,2.25,1.8,4.2l2,4.3,1,2.1c.3.7.7,1.4,1,2.1.7,1.4,1.5,2.8,2.1,4.3s1.2,3,1.7,4.4l1.7,4.4,1.7,4.4,1.6,4.5,1.5,4.5.7,2.3.3,1.1.2.6v.1c-.1-.1.2.4-.2-.3-.3-.3-.3-.3-.4-.3h0l.2.1c.1,0,.1,0,.3.1C79,312.4,79.5,312.4,79.6,313.4Zm-2.4,0a1.23,1.23,0,0,0,.5,1l.1.1h-.1a.31.31,0,0,1-.2-.1,3.91,3.91,0,0,1-.5-.4c-.4-.8-.1-.3-.2-.5v-.1l-.2-.6-.4-1.1-.7-2.2c-.5-1.5-.9-3-1.5-4.4l-1.6-4.4-1.7-4.3L69,292c-.6-1.5-1.1-2.9-1.7-4.3a39.76,39.76,0,0,0-2.1-4.1c-.4-.7-.7-1.4-1.1-2.1l-1-2.1-2-4.2c-.7-1.5-1.3-3-1.9-4.4a29.86,29.86,0,0,0-2-4c-.8-1.3-1.7-2.7-2.4-4.1l-2.1-4.2-1.1-2.1a22.88,22.88,0,0,1-1-2.3c-.3-.7-.6-1.5-.8-2.1s-.7-1.3-1-2l-2.2-4.1c-2.9-5.6-5.5-11.3-8-17.1-.6-1.4-1.3-2.9-1.9-4.3l-1.8-4.4c-.3-.7-.6-1.5-.9-2.2l-.7-2.3-1.4-4.5a63.22,63.22,0,0,1-2.3-9.3c-.2-1.6-.3-3.2-.4-4.7v-.6c0,.2.1.4.2.4h.1a1.45,1.45,0,0,0,.7-.2c.2-.2,0,0,0,.1l-.3.5-.6,1c-.8,1.3-1.6,2.6-2.3,3.9l-2.1,4.2-.9,2.1a17.23,17.23,0,0,0-.7,2.1l-.7,2.2-.4,1.2-.2.6-.1.1c0,.1-.1.3-.2.3v-.1a.45.45,0,0,0,0-.5c.2,1.6.4,3.2.6,4.7.1.8.2,1.5.3,2.2l.5,2.3.9,4.6a36.62,36.62,0,0,0,1.3,4.4c.2.8.5,1.5.7,2.3l.6,2.3,1.2,4.5,1.3,4.5.7,2.2a19.45,19.45,0,0,0,.8,2.2l1.6,4.4,1.7,4.3c.6,1.4,1.1,2.9,1.8,4.2l2.2,4.1c.7,1.4,1.5,2.7,2.3,4.1s1.5,2.7,2.3,4.2,1.3,2.9,2,4.2,1.6,2.6,2.4,4,1.6,2.7,2.5,3.9l2.7,3.9c1.6,2.7,3.4,5.3,5.2,7.9,3.4,5.3,6.4,10.8,9.5,16.3l1.1,2.1a20,20,0,0,1,1,2.1l2,4.3c1.3,3,2.1,6,3.3,8.8a47,47,0,0,1,1.7,4.5,39,39,0,0,1,1.2,4.6l.6,2.3.5,2.3,1,4.6-2,.1c.1-1.6.3-3.1.3-4.7v-4.7l-.1-9.5v-4.7c0-.8-.1-1.5-.1-2.3a19.42,19.42,0,0,1-.2-2.4,40,40,0,0,1,0-4.9C77.1,316.4,77.2,315,77.2,313.4Z"/><path class="cls-2" d="M73.3,414.1a2.13,2.13,0,0,1-1.9-1.6c-.8-2.5-1.7-5-2.3-6.8-.5-1.4-1.1-2.8-1.6-4.1-.4-.9-.7-1.7-1.1-2.6l-.3-.8c-.8-2-1.6-4-2.4-5.9a16.67,16.67,0,0,1-.8-2c-.7-1.6-1.3-3.1-2-4.6-1-2.1-2-4.4-3.1-6.5s-2.2-4.3-3.3-6.4c-.8-1.5-1.6-3-2.4-4.4-.4-.6-.7-1.3-1.1-1.9l-.3-.5c-1.1-2-2.2-3.9-3.3-5.8-.7-1.3-1.5-2.5-2.3-3.8L43.6,354a32.39,32.39,0,0,1-1.7-3.2c-.6-1.1-1.1-2.2-1.7-3.2-.7-1.2-1.4-2.3-2.2-3.5-.6-.9-1.1-1.8-1.7-2.7l-.9-1.2a5.83,5.83,0,0,1-1.1-1.5c-.7-1.1-1.3-2.2-1.9-3.3s-1.1-2-1.7-3-1.3-1.9-1.9-2.8a35.29,35.29,0,0,1-2.1-3.2c-.8-1.4-1.6-2.8-2.3-4.2-.4-.7-.8-1.5-1.2-2.2a31.4,31.4,0,0,1-1.8-3.7c-.4-1-.9-1.9-1.4-2.9-.4-.8-.9-1.7-1.4-2.5L16.5,307l-.9-1.8c-.8-1.6-1.6-3.2-2.3-4.8s-1.1-3-1.6-4.4c-.3-.8-.6-1.6-.9-2.5q-1.35-3.75-2.4-6.9c-.5-1.8-1-3.6-1.4-5.4-.1-.6-.3-1.1-.4-1.7-.5-2.2-1-4.5-1.5-6.7-.5-.4-.6-.8-.5-1.1l.1-.6c.4-2.3.8-4.8,1.3-7.3.3-1.3.7-2.7,1-4s.7-2.5,1-3.7c.2-1,.4-1.9.6-2.9.3-1.6.6-3.3,1-4.9.3-1.1.5-2.3.7-3.5.3-1.4.5-2.9.9-4.4a2.11,2.11,0,0,1,2.3-1.6,2.45,2.45,0,0,1,2.1,1.9l.1.7c.4,2.2.8,4.2,1.3,6.2s1.1,4.5,1.9,6.8c.2.6.4,1.3.6,1.9.5,1.7,1,3.3,1.6,4.9s1.4,3.5,2.1,5.1l.6,1.5c.6,1.3,1.2,2.7,1.9,3.9.4.8.8,1.6,1.2,2.5s.9,2,1.3,2.9a39.21,39.21,0,0,0,1.6,3.6c.6,1.2,1.4,2.5,2.1,3.7.5.8,1,1.7,1.4,2.5l2.7,4.8.8,1.4c.5.9,1,1.8,1.6,2.8s1.3,2.3,2,3.4,1.3,2.1,1.9,3,1.3,2,1.9,3l1.5,2.5c1.1,1.9,2.3,3.8,3.5,5.8.5.9,1.1,1.7,1.6,2.6.7,1.1,1.4,2.2,2.1,3.4a35.92,35.92,0,0,1,1.7,3.4c.5,1,.9,1.9,1.5,2.9s1.1,1.8,1.7,2.7c.7,1.1,1.4,2.2,2,3.3s1.2,2.4,1.7,3.6c.4.9.8,1.8,1.3,2.7.6,1.2,1.1,2.5,1.6,3.7l1.2,2.7.7,1.5c.7,1.6,1.5,3.2,2.2,4.9.4.8.7,1.7,1.1,2.5.6,1.3,1.2,2.6,1.7,3.9a29.07,29.07,0,0,1,1.2,3.9c.3.9.6,1.9.9,2.8a19.45,19.45,0,0,0,.8,2.2q.75,2.1,1.5,4.5c.3.9.6,1.8.9,2.8.4,1.3.9,2.6,1.3,3.9s.6,2.8.9,4.1c.2.9.4,1.8.6,2.8a2,2,0,0,1-.1.7v6.5a27.4,27.4,0,0,0,.1,3.3c0,.8.1,1.7.1,3.4V405c0,1.7.1,2.5.1,3.3a29.34,29.34,0,0,1,.1,3.4,2,2,0,0,1-2.2,1.9c-.9,0-1.4.1-1.9.1A5.27,5.27,0,0,1,73.3,414.1ZM6.8,271.4a.6.6,0,0,1,.3.6c.4,2.4.9,4.7,1.5,7,.1.6.3,1.1.4,1.7.4,1.8.9,3.5,1.4,5.2.6,2.1,1.4,4.3,2.3,6.8.3.8.6,1.7.9,2.5.5,1.4,1,2.9,1.6,4.3.7,1.6,1.5,3.2,2.2,4.7l.9,1.8c.6,1.3,1.3,2.6,2,3.8.5.8.9,1.7,1.4,2.5.5,1,1,2,1.4,3a37.78,37.78,0,0,0,1.7,3.5c.4.7.8,1.5,1.2,2.2.7,1.4,1.5,2.8,2.3,4.1.6,1,1.3,2,2,3.1a31.27,31.27,0,0,1,2,3c.6,1,1.2,2.1,1.7,3.1s1.2,2.2,1.8,3.2a9.38,9.38,0,0,0,.9,1.2,5.83,5.83,0,0,1,1.1,1.5c.5.9,1.1,1.8,1.7,2.7.7,1.2,1.4,2.3,2.2,3.5s1.2,2.2,1.8,3.3,1.1,2.1,1.7,3.1l1.5,2.4c.8,1.3,1.5,2.5,2.3,3.8,1.1,1.9,2.2,3.9,3.3,5.9l.3.5c.3.6.7,1.2,1.1,1.9.8,1.5,1.7,3,2.5,4.5,1.1,2.1,2.2,4.3,3.3,6.5s2.1,4.4,3.1,6.6c.7,1.5,1.4,3.2,2,4.7.3.7.5,1.3.8,2l2.4,6,.3.8c.3.9.7,1.7,1,2.6.6,1.4,1.1,2.8,1.7,4.2.7,1.9,1.5,4.3,2.3,6.9,0,.1.1.1.1.2.9,0,1.3-.1,1.8-.1a11.57,11.57,0,0,1,2.1-.1h.2c0-1.6-.1-2.4-.1-3.2a29.34,29.34,0,0,1-.1-3.4v-6.7a27.4,27.4,0,0,0-.1-3.3c0-.8-.1-1.7-.1-3.4v-6.7a.6.6,0,0,1,.1-.4c-.2-.8-.3-1.6-.5-2.4-.3-1.4-.5-2.7-.9-4s-.8-2.6-1.2-3.8c-.3-.9-.7-1.9-.9-2.8-.4-1.5-1-3-1.5-4.4-.3-.7-.5-1.5-.8-2.2-.3-1-.6-1.9-.9-2.9-.4-1.3-.7-2.5-1.2-3.7s-1.1-2.6-1.6-3.8c-.4-.9-.8-1.7-1.1-2.6l-2.1-4.8-.7-1.5c-.4-.9-.8-1.8-1.2-2.8a30,30,0,0,0-1.6-3.6c-.5-.9-.9-1.9-1.3-2.8-.6-1.2-1.1-2.4-1.7-3.5s-1.3-2.1-1.9-3.2a26.06,26.06,0,0,1-1.7-2.8l-1.5-3c-.6-1.1-1.1-2.2-1.7-3.2s-1.3-2.2-2-3.3c-.5-.9-1.1-1.7-1.6-2.6-1.1-1.9-2.3-3.8-3.4-5.7l-1.5-2.5a29,29,0,0,0-1.9-2.9c-.7-1-1.3-2.1-2-3.1-.7-1.2-1.3-2.3-2-3.5l-1.5-2.7-.8-1.4c-.9-1.6-1.9-3.2-2.8-4.8-.5-.8-.9-1.7-1.4-2.5-.7-1.2-1.5-2.5-2.1-3.8s-1.2-2.5-1.7-3.7c-.4-.9-.8-1.9-1.2-2.8l-1.2-2.4a30.5,30.5,0,0,1-1.9-4.1l-.6-1.4c-.7-1.7-1.5-3.4-2.1-5.2-.6-1.6-1.1-3.3-1.6-5-.2-.6-.4-1.3-.6-1.9-.8-2.4-1.4-4.9-1.9-7s-.9-4.2-1.3-6.3l-.1-.7a.45.45,0,0,0-.3-.3.35.35,0,0,0-.2.1l-.9,4.2c-.2,1.2-.4,2.4-.7,3.5-.4,1.6-.7,3.3-1,4.9-.2,1-.4,1.9-.6,2.9-.3,1.3-.6,2.6-1,3.9s-.7,2.6-1,3.8C7.6,266.7,7.2,269.1,6.8,271.4Z"/><path class="cls-2" d="M43.1,412.7c-2,0-3,0-4-.1s-2-.1-4-.1a1.77,1.77,0,0,1-1.5-1c-.5-.9-1.4-2.3-2.5-4.1l-1-1.6c-.4-.6-.8-1.3-1.2-1.9-.7-1.1-1.5-2.4-2.2-3.7-1-1.8-2.1-3.7-3.2-5.8l-2.1-3.9c-.3-.6-.7-1.3-1-1.9-.4-.8-.8-1.5-1.3-2.3-.6-1.1-1.3-2.3-1.9-3.5l-2.4-5.1-.6-1.3c-.8-1.7-1.6-3.6-2.4-5.3l-.5-1.2c-.4-.8-.7-1.6-1.1-2.5-.6-1.3-1.2-2.7-1.8-4-.8-1.9-1.6-4.1-2.5-6.7-.7-1.8-1.2-3.7-1.8-5.4L3.7,350c-.8-2.6-1.4-4.8-2-6.9a61.93,61.93,0,0,1-1.3-6.5.87.87,0,0,1-.4-.8H0c0-1.5.1-2.9.2-4.3.1-1.1.2-2.2.2-3.3v-7.6c0-1,.1-1.9.1-2.9,0-1.5.1-3.1.2-4.7.1-1.4.2-2.8.4-4.3.1-1.1.2-2.1.3-3.3s.3-2.5.4-3.7.3-2.3.4-3.6l2-.1.1.4c.4,2,.9,4,1.5,6.2.5,1.5,1,3,1.6,4.6.2.7.5,1.3.7,2l.3.9,2.1,5.7.7,1.7c.6,1.5,1.2,3,1.9,4.5,1.1,2.5,1.9,4.3,2.7,6.1.4.8.7,1.6,1.1,2.5.5,1.2,1.1,2.4,1.7,3.7a32.39,32.39,0,0,0,1.7,3.2l1.5,2.7c.4.9.9,1.8,1.3,2.7.5,1.1,1.1,2.3,1.7,3.4s1.1,2,1.7,3,1.2,1.9,1.7,2.8a24.37,24.37,0,0,1,1.4,2.8c.6,1.2,1.2,2.4,1.9,3.6s1.3,2.3,2,3.5c.5.9,1.1,1.8,1.6,2.7s1.1,2,1.6,3l1.8,3.3c.6,1,1.1,1.9,1.6,2.9s1.3,2.3,1.9,3.4,1.2,2.1,1.7,3.1,1.2,2.1,1.8,3.2,1.4,2.3,2.1,3.4c.6.9,1.1,1.8,1.6,2.6l1.5,2.4c.8,1.3,1.5,2.5,2.2,3.7s1.5,2.4,2.3,3.5c.6.9,1.1,1.7,1.6,2.5.8,1.3,1.6,2.6,2.2,3.6s1,1.8,1.5,2.5a1.66,1.66,0,0,1,.1,1.9,1.75,1.75,0,0,1-1.7.9c-2,0-2.9.1-3.9.1s-2,.1-4.1.1-3,0-4,.1A16.9,16.9,0,0,0,43.1,412.7Zm-7.8-2.1a36.69,36.69,0,0,1,3.8.1c1,0,2,.1,4,.1s3,0,4-.1,2-.1,4-.1,2.9-.1,3.9-.1a36.69,36.69,0,0,1,3.8-.1c-.4-.7-.9-1.4-1.3-2.2a39,39,0,0,0-2.2-3.6c-.5-.8-1-1.6-1.6-2.5-.7-1.1-1.5-2.3-2.3-3.5s-1.5-2.4-2.3-3.7l-1.5-2.4c-.5-.9-1.1-1.7-1.6-2.6-.7-1.1-1.4-2.3-2.2-3.5-.6-1-1.2-2.2-1.8-3.2s-1.1-2-1.7-3a37.18,37.18,0,0,1-1.9-3.4c-.5-.9-1.1-1.9-1.6-2.8-.6-1.1-1.2-2.2-1.9-3.4-.5-1-1-1.9-1.6-2.9L31.8,365c-.7-1.2-1.4-2.3-2-3.5s-1.3-2.4-1.9-3.6c-.5-.9-.9-1.8-1.4-2.7s-1.1-1.8-1.6-2.7a31.36,31.36,0,0,1-1.8-3.1c-.6-1.1-1.1-2.3-1.7-3.4a21,21,0,0,0-1.3-2.6c-.5-.9-.9-1.8-1.4-2.7-.6-1.1-1.2-2.2-1.7-3.3s-1.2-2.5-1.7-3.7c-.4-.8-.7-1.6-1.1-2.4-.8-1.8-1.7-3.7-2.8-6.2-.7-1.5-1.3-3.1-1.9-4.6l-.7-1.7c-.8-2-1.5-3.9-2.2-5.8l-.3-.9c-.2-.7-.5-1.3-.7-2-.6-1.6-1.2-3.2-1.6-4.7l-.3-1.2c-.1.6-.1,1.1-.2,1.7l-.3,3.3c-.2,1.5-.3,2.8-.4,4.2s-.1,3-.2,4.6a28.1,28.1,0,0,1-.1,2.9c-.1,1.3,0,2.7,0,4.1v3.4c0,1.1-.1,2.2-.2,3.4s-.2,2.3-.2,3.5a.71.71,0,0,1,.3.6c.5,2.7.9,4.8,1.4,6.9s1.1,4.1,1.9,6.7l.4,1.3c.5,1.8,1.1,3.6,1.7,5.4.9,2.6,1.7,4.7,2.5,6.6.5,1.3,1.1,2.7,1.7,3.9a27.18,27.18,0,0,1,1.1,2.5l.5,1.2c.8,1.7,1.5,3.5,2.4,5.3l.6,1.3c.8,1.8,1.6,3.4,2.4,5,.6,1.2,1.2,2.3,1.8,3.4.4.8.9,1.6,1.3,2.4s.7,1.3,1,1.9c.7,1.3,1.4,2.7,2.1,3.9,1.1,2.1,2.2,4,3.2,5.8.8,1.3,1.5,2.5,2.2,3.7.4.7.8,1.3,1.2,2l1,1.6c1.1,1.8,1.9,3.2,2.4,4C35.3,410.5,35.3,410.5,35.3,410.6Z"/><path class="cls-2" d="M11.7,412.4H4.8a1.83,1.83,0,0,1-2-1.7c0-.6-.1-1.4-.1-2.3q-.15-1.95-.3-4.8c0-1-.1-2-.2-3.1-.1-1.3-.2-2.6-.3-4l-.4-7.1c-.1-1.2,0-2.4,0-3.5s.1-2.4,0-3.6a1.72,1.72,0,0,1,.7-1.4,3.81,3.81,0,0,1,1.7-.8,4.44,4.44,0,0,1,2,.1,1.68,1.68,0,0,1,1.2,1.1c.6,1.6,1.3,3.1,1.9,4.6.4.9.8,1.7,1.1,2.5l.5,1.2c.9,2.1,1.7,4.1,2.5,5.9,1.2,2.7,2.5,5.1,3.4,6.9,1.4,2.7,2.7,5.1,3.7,6.8a1.82,1.82,0,0,1,0,2,2.1,2.1,0,0,1-1.8,1H15A13.36,13.36,0,0,1,11.7,412.4Zm-7-2.1H18.4c-1-1.8-2.3-4.1-3.7-6.8-1.2-2.3-2.3-4.5-3.5-7-.9-1.9-1.7-3.9-2.6-6l-.5-1.2A27.18,27.18,0,0,0,7,386.8c-.7-1.5-1.3-3-1.9-4.6a1.7,1.7,0,0,0-1,0c-.3,0-.5.2-.8.3V386c0,1.2-.1,2.3,0,3.4l.3,7.1q.15,2.1.3,3.9c.1,1.1.2,2.2.2,3.1.1,1.8.2,3.4.3,4.7A8.81,8.81,0,0,1,4.7,410.3Z"/><path class="cls-1" d="M259.2,89.33h-7.8a34.48,34.48,0,0,1-4-.2,31.81,31.81,0,0,0-3.8-.2,3,3,0,0,1-3.1-2.9,23.82,23.82,0,0,1,.2-3.3,20.51,20.51,0,0,0,.2-3.1,21.61,21.61,0,0,0-.2-3.1,23.82,23.82,0,0,1-.2-3.3,3.29,3.29,0,0,1,3.2-3.2h7.8a34.48,34.48,0,0,1,4,.2,31.81,31.81,0,0,0,3.8.2c1.9,0,2.9,0,3.9-.1s2-.1,3.9-.1h7.8c1.9,0,2.9-.1,3.9-.1s2-.1,4-.1a3,3,0,0,1,2.8,3.2c0,1.5.1,2.3.1,3.1a27.4,27.4,0,0,1,.1,3.3c0,1.6-.1,2.5-.1,3.3a25.46,25.46,0,0,0-.1,3.1,2.93,2.93,0,0,1-2.8,3.1H275c-1.9,0-2.9,0-3.9.1s-2,.1-3.9.1h-8Zm-7.8-17.1h-7.8a1.29,1.29,0,0,0-1.2,1.2,21.61,21.61,0,0,0,.2,3.1,27.32,27.32,0,0,1,0,6.6,20.51,20.51,0,0,0-.2,3.1c0,.5.6.9,1.1.9a34.48,34.48,0,0,1,4,.2,31.81,31.81,0,0,0,3.8.2h15.6c1.9,0,2.9,0,3.9-.1s2-.1,3.9-.1h7.8c.5,0,.8-.5.8-1.1,0-1.6.1-2.5.1-3.3a25.46,25.46,0,0,0,.1-3.1c0-1.5-.1-2.3-.1-3.1a27.4,27.4,0,0,1-.1-3.3c0-.6-.3-1.2-.8-1.2-1.9,0-2.9.1-3.9.1s-2,.1-4,.1h-7.8c-1.9,0-2.9,0-3.9.1s-2,.1-3.9.1a34.48,34.48,0,0,1-4-.2A15.83,15.83,0,0,0,251.4,72.23Z"/><path class="cls-1" d="M247.7,95.93a.94.94,0,0,1-1-1V91a1,1,0,0,1,2,0v3.9A.94.94,0,0,1,247.7,95.93Z"/><path class="cls-1" d="M278.1,95.93a.94.94,0,0,1-1-1,8.16,8.16,0,0,0-.1-1.8c0-.5-.1-1-.1-2a1,1,0,0,1,2,0,8.16,8.16,0,0,0,.1,1.8c0,.5.1,1,.1,2A1,1,0,0,1,278.1,95.93Z"/><path class="cls-1" d="M293.3,133v4.9c0,1.6,0,3.2.1,4.8.3,3.2.2,6.6.2,9.8,0,1.6,0,3.2.1,4.8l.1,2.4v2a3.18,3.18,0,0,1-.3.9,2.89,2.89,0,0,1-1.2,1.5,4.05,4.05,0,0,1-.9.5,1.09,1.09,0,0,1-.5.1h-.5a20.9,20.9,0,0,1-2.5-.1c-1.7-.1-3.2-.3-4.8-.3s-3.1.1-4.7.2-3.3.1-4.9.1h-9.7c-1.6,0-3.2-.1-4.8,0h-8.1a2.28,2.28,0,0,1-1.1-.3,4,4,0,0,1-1.7-1.7,2.28,2.28,0,0,1-.3-1.1v-2a19.27,19.27,0,0,0-.1-2.4c-.1-1.6-.1-3.3-.1-4.9s.2-3.4.2-4.9c.1-3.1,0-6.4,0-9.6,0-1.6-.1-3.1-.2-4.8s-.1-3.3-.1-4.9v-6.5c0-.2.1-.4.1-.6a5.36,5.36,0,0,1,.5-1.1,4.2,4.2,0,0,1,1.8-1.4,3.59,3.59,0,0,1,1.1-.2h.7c1.6,0,3.1-.1,4.8-.2a40,40,0,0,1,4.9,0c1.7,0,3.2.1,4.8.1s3.3.1,4.9.2,3.1.2,4.8.2l4.9.2c1.6,0,3.2.2,4.7.1.8,0,1.6-.1,2.4-.1a20.9,20.9,0,0,1,2.5.1,1,1,0,0,1,0,2c-1.6.1-3.1.3-4.8.5a41.54,41.54,0,0,1-4.9.3l-4.8.1c-1.6,0-3.3.1-4.9,0a38.43,38.43,0,0,0-4.8,0c-1.6,0-3.3,0-4.9-.1h-4.8a39.67,39.67,0,0,1-4.9.1H251a.1.1,0,0,0-.1.1h0v6.1c0,1.6,0,3.2.1,4.8a40.08,40.08,0,0,1,.1,4.9v9.7c-.1,1.7-.2,3.2-.2,4.8s0,3.2.1,4.8c0,.8.1,1.6.1,2.5v1.7H254l4.8.1c1.6,0,3.3.1,4.9.1l9.7.2c1.6,0,3.2,0,4.7-.1a40.08,40.08,0,0,1,4.9-.1c1.6,0,3.4.2,4.9.3a17.7,17.7,0,0,0,2.3.1h.1a.1.1,0,0,0,.1-.1,1.38,1.38,0,0,0,.3-.4.35.35,0,0,1,.1-.2v-8.9c.1-3.3.2-6.4.1-9.6v-4.9c.1-1.6.1-3.2.1-4.8a1,1,0,0,1,1-1c.8.2,1.2.6,1.3,1.2Z"/></g></g></g></svg>