<svg width="24" height="34" viewBox="0 0 24 34" fill="none" xmlns="http://www.w3.org/2000/svg">
<path fill-rule="evenodd" clip-rule="evenodd" d="M12.6996 0C10.1591 0 8.09961 2.0595 8.09961 4.60003V10.6491C4.48386 12.4513 2 16.1856 2 20.5C2 26.5751 6.92487 31.5 13 31.5C19.0751 31.5 24 26.5751 24 20.5C24 16.1853 21.5158 12.4508 17.8996 10.6487V4.60003C17.8996 2.0595 15.8401 0 13.2996 0H12.6996ZM16.8996 10.2112V4.60003C16.8996 2.61179 15.2878 1 13.2996 1H12.6996C10.7114 1 9.09961 2.61179 9.09961 4.60003V10.2115C10.3119 9.75172 11.6265 9.5 13 9.5C14.3732 9.5 15.6876 9.75161 16.8996 10.2112Z" fill="url(#paint0_linear)"/>
<path fill-rule="evenodd" clip-rule="evenodd" d="M10.7 1.73333C8.15951 1.73333 6.10001 3.79283 6.10001 6.33336V12.6489C2.48405 14.451 0 18.1854 0 22.5C0 28.5751 4.92487 33.5 11 33.5C17.0751 33.5 22 28.5751 22 22.5C22 18.1854 19.516 14.451 15.9 12.6489V6.33336C15.9 3.79283 13.8405 1.73333 11.3 1.73333H10.7ZM14.9 12.2114V6.33336C14.9 4.34512 13.2882 2.73333 11.3 2.73333H10.7C8.71179 2.73333 7.10001 4.34512 7.10001 6.33336V12.2114C8.31216 11.7517 9.62669 11.5 11 11.5C12.3733 11.5 13.6879 11.7517 14.9 12.2114ZM21 22.5C21 28.0228 16.5228 32.5 11 32.5C5.47715 32.5 1 28.0228 1 22.5C1 16.9772 5.47715 12.5 11 12.5C16.5228 12.5 21 16.9772 21 22.5Z" fill="url(#paint1_linear)"/>
<path fill-rule="evenodd" clip-rule="evenodd" d="M12.0985 22.1716C12.6415 21.814 13 21.1989 13 20.5C13 19.3954 12.1046 18.5 11 18.5C9.89543 18.5 9 19.3954 9 20.5C9 21.1991 9.35871 21.8145 9.90213 22.172L9.26795 26.51H12.7321L12.0985 22.1716Z" fill="url(#paint2_linear)"/>
<defs>
<linearGradient id="paint0_linear" x1="21" y1="31.5" x2="-1.7963" y2="28.4591" gradientUnits="userSpaceOnUse">
<stop stop-color="#CECBEF"/>
<stop offset="0.970533" stop-color="#C8CCF1"/>
</linearGradient>
<linearGradient id="paint1_linear" x1="20" y1="32.5" x2="-2.72031" y2="30.3394" gradientUnits="userSpaceOnUse">
<stop stop-color="#4654D1"/>
<stop offset="0.994403" stop-color="#5C51CB"/>
</linearGradient>
<linearGradient id="paint2_linear" x1="17.5" y1="31" x2="6.97229" y2="32.4135" gradientUnits="userSpaceOnUse">
<stop stop-color="#4654D1"/>
<stop offset="0.762502" stop-color="#5C51CB"/>
</linearGradient>
</defs>
</svg>
