<svg id="Layer_1" data-name="Layer 1" xmlns="http://www.w3.org/2000/svg" viewBox="0 0 734 170"><title>serto_black_horizontal</title><circle cx="235.43" cy="83.52" r="8.99"/><path d="M216,55.25v51.13H200.68v-4.8c-2.76,3.78-7.88,6.24-14.63,6.24-10.32,0-19.12-7.37-19.12-21.17V55.25h15.34V84.4c0,6.34,4,9.3,8.9,9.3,5.62,0,9.51-3.27,9.51-10.53V55.25Z"/><path d="M309.85,80.21c0,15.24-11,27-24.44,27-6.85,0-11.86-2.35-15.23-6.24v25.26H254.84v-71h15.34v4.2c3.37-3.88,8.38-6.23,15.23-6.23C298.81,53.22,309.85,65,309.85,80.21Zm-15.33,0c0-7.67-5.12-12.47-12.17-12.47s-12.17,4.8-12.17,12.47,5.11,12.48,12.17,12.48S294.52,87.88,294.52,80.21Z"/><path d="M316.54,80.21a27.1,27.1,0,1,1,27.1,27A26.8,26.8,0,0,1,316.54,80.21Zm38.86,0c0-7.26-5.11-12.06-11.76-12.06S331.88,73,331.88,80.21,337,92.28,343.64,92.28,355.4,87.47,355.4,80.21Z"/><path d="M411.13,54.14V71.52c-6.34-1-15.34,1.53-15.34,11.66v23.11H380.45V55.16h15.34v9.1C397.84,57.41,404.69,54.14,411.13,54.14Z"/><path d="M438.17,70V88.74c0,4.4,3.79,4.81,10.53,4.4v13.91c-20,2-25.87-4-25.87-18.31V46.2l15.34-4.6V55.22H448.7V70Z"/><path d="M483,68.13a6.18,6.18,0,0,0,3.1,5.43,28.11,28.11,0,0,0,7.51,3.27l8.79,2.51a15.73,15.73,0,0,1,7.42,4.54,12.24,12.24,0,0,1,3,8.61,12.93,12.93,0,0,1-5.16,10.63q-5.16,4.09-13.34,4.09a22.93,22.93,0,0,1-12.52-3.27,17.49,17.49,0,0,1-7.2-8.48l5.72-3.38a11.92,11.92,0,0,0,5.16,6.29,16.54,16.54,0,0,0,8.84,2.3,16.22,16.22,0,0,0,8.38-2,6.68,6.68,0,0,0,3.38-6.18A6.34,6.34,0,0,0,503,87a26.59,26.59,0,0,0-7.46-3.29l-8.79-2.51a16.26,16.26,0,0,1-7.46-4.48,11.71,11.71,0,0,1-3.07-8.43,13.11,13.11,0,0,1,5-10.43,18.74,18.74,0,0,1,12.52-4.19,20.92,20.92,0,0,1,10.93,2.81,17.29,17.29,0,0,1,7,7.62L506,67.35q-3-7.15-12.26-7.16a13.64,13.64,0,0,0-7.57,2.06A6.62,6.62,0,0,0,483,68.13Z"/><path d="M546.14,53.65q11.36,0,18.35,8a27.89,27.89,0,0,1,7,19c0,.75-.07,1.8-.2,3.16H526.42A18.29,18.29,0,0,0,533,96.12a21,21,0,0,0,13.75,4.55,20.08,20.08,0,0,0,10.06-2.4A16.19,16.19,0,0,0,563.21,92l5.93,3.48a24.3,24.3,0,0,1-9.2,8.58,27.37,27.37,0,0,1-13.29,3.17q-12.06,0-19.62-7.56t-7.56-19.22q0-11.45,7.46-19.11T546.14,53.65Zm0,6.54a19.13,19.13,0,0,0-19.72,17.07h38.12q-1-8.07-6.23-12.57A18.05,18.05,0,0,0,546.14,60.19Z"/><path d="M589,63.92q4.69-9.3,16.15-9.3v6.54a16.7,16.7,0,0,0-11.55,4.09Q589,69.33,589,78.13v28.41h-6.75V55.44H589Z"/><path d="M637.42,61.42H622.71v31c0,2.79.54,4.79,1.63,6a6.46,6.46,0,0,0,4.91,1.84q3.27,0,8.17-.15V106q-10.73,1.63-16.09-1.53T616,92.39V42.61l6.75-2V54.88h14.71Z"/><path d="M688.48,99.49a27.4,27.4,0,0,1-38.13,0,25.71,25.71,0,0,1-7.82-19.06,25.73,25.73,0,0,1,7.82-19.06,27.4,27.4,0,0,1,38.13,0,25.73,25.73,0,0,1,7.82,19.06A25.71,25.71,0,0,1,688.48,99.49Zm-33.38-4.7a20.35,20.35,0,0,0,28.62,0,19.6,19.6,0,0,0,5.83-14.36,19.61,19.61,0,0,0-5.83-14.36,20.35,20.35,0,0,0-28.62,0,19.64,19.64,0,0,0-5.82,14.36A19.63,19.63,0,0,0,655.1,94.79Z"/><path d="M90,85.78a6.48,6.48,0,1,1-4.45-8,6.47,6.47,0,0,1,4.45,8m12.43,3.55a19.41,19.41,0,1,0-24,13.33,19.43,19.43,0,0,0,24-13.33Z"/><path d="M83.72,116.36v13A45.41,45.41,0,0,0,129.08,84h-13A32.39,32.39,0,0,1,83.72,116.36Z"/><path d="M83.72,51.64v-13A45.41,45.41,0,0,0,38.36,84h13A32.39,32.39,0,0,1,83.72,51.64Z"/><circle cx="101.23" cy="49.4" r="6.48"/><circle cx="118.21" cy="66.28" r="6.48"/><circle cx="66.21" cy="118.6" r="6.48"/><circle cx="49.23" cy="101.72" r="6.48"/></svg>