<svg id="Layer_1" data-name="Layer 1" xmlns="http://www.w3.org/2000/svg" viewBox="0 0 734 170"><defs><style>.cls-1{fill:#fff;}</style></defs><title>serto_white_horizontal</title><circle class="cls-1" cx="233.91" cy="84.72" r="8.99"/><path class="cls-1" d="M214.5,56.46v51.13H199.16v-4.81c-2.76,3.79-7.88,6.24-14.63,6.24-10.32,0-19.12-7.36-19.12-21.17V56.46h15.34V85.6c0,6.35,4,9.31,8.9,9.31,5.62,0,9.51-3.27,9.51-10.53V56.46Z"/><path class="cls-1" d="M308.33,81.42c0,15.24-11,27-24.44,27-6.85,0-11.86-2.35-15.23-6.24v25.26H253.32v-71h15.34v4.2c3.37-3.89,8.38-6.24,15.23-6.24C297.29,54.42,308.33,66.18,308.33,81.42Zm-15.34,0c0-7.67-5.11-12.48-12.17-12.48s-12.16,4.81-12.16,12.48,5.11,12.48,12.16,12.48S293,89.09,293,81.42Z"/><path class="cls-1" d="M315,81.42a27.1,27.1,0,1,1,27.1,27A26.8,26.8,0,0,1,315,81.42Zm38.86,0c0-7.26-5.11-12.07-11.76-12.07s-11.76,4.81-11.76,12.07,5.11,12.07,11.76,12.07S353.88,88.68,353.88,81.42Z"/><path class="cls-1" d="M409.61,55.34V72.73c-6.34-1-15.34,1.53-15.34,11.66V107.5H378.93V56.37h15.34v9.1C396.32,58.62,403.17,55.34,409.61,55.34Z"/><path class="cls-1" d="M436.65,71.15V90c0,4.4,3.78,4.81,10.53,4.4v13.9c-20,2-25.87-4-25.87-18.3V47.41l15.34-4.61V56.43h10.53V71.15Z"/><path class="cls-1" d="M481.46,69.34a6.18,6.18,0,0,0,3.1,5.43A27.65,27.65,0,0,0,492.07,78l8.79,2.52a15.7,15.7,0,0,1,7.41,4.54,12.2,12.2,0,0,1,3,8.61,12.93,12.93,0,0,1-5.16,10.63q-5.16,4.1-13.34,4.09a22.93,22.93,0,0,1-12.52-3.27,17.46,17.46,0,0,1-7.2-8.49l5.72-3.37A12,12,0,0,0,484,99.58a16.54,16.54,0,0,0,8.84,2.3,16.22,16.22,0,0,0,8.38-2,6.66,6.66,0,0,0,3.38-6.17,6.33,6.33,0,0,0-3.07-5.52,26.82,26.82,0,0,0-7.47-3.3l-8.78-2.51a16.24,16.24,0,0,1-7.46-4.47,11.71,11.71,0,0,1-3.07-8.43,13.11,13.11,0,0,1,5-10.43,18.72,18.72,0,0,1,12.52-4.19,20.92,20.92,0,0,1,10.93,2.81,17.24,17.24,0,0,1,7,7.62l-5.63,3.27q-3-7.16-12.26-7.16a13.64,13.64,0,0,0-7.57,2.06A6.62,6.62,0,0,0,481.46,69.34Z"/><path class="cls-1" d="M544.62,54.86q11.36,0,18.35,8a27.94,27.94,0,0,1,7,19c0,.75-.07,1.81-.2,3.17H524.9a18.29,18.29,0,0,0,6.59,12.32,21,21,0,0,0,13.75,4.55,20,20,0,0,0,10.06-2.41,16.16,16.16,0,0,0,6.39-6.28l5.93,3.47a24.24,24.24,0,0,1-9.2,8.59,27.37,27.37,0,0,1-13.29,3.17q-12.06,0-19.62-7.57T518,81.64q0-11.44,7.46-19.11T544.62,54.86Zm0,6.54A19.11,19.11,0,0,0,524.9,78.47H563q-1-8.07-6.24-12.57A18,18,0,0,0,544.62,61.4Z"/><path class="cls-1" d="M587.45,65.13q4.69-9.3,16.15-9.31v6.55a16.74,16.74,0,0,0-11.55,4.08q-4.6,4.1-4.6,12.88v28.42H580.7V56.64h6.75Z"/><path class="cls-1" d="M635.9,62.63H621.18v31c0,2.79.55,4.79,1.64,6a6.49,6.49,0,0,0,4.91,1.84q3.27,0,8.17-.16v5.93q-10.73,1.64-16.1-1.53T614.44,93.6V43.82l6.74-2V56.09H635.9Z"/><path class="cls-1" d="M687,100.7a27.4,27.4,0,0,1-38.13,0A25.73,25.73,0,0,1,641,81.64a25.73,25.73,0,0,1,7.82-19.06,27.4,27.4,0,0,1,38.13,0,25.72,25.72,0,0,1,7.81,19.06A25.72,25.72,0,0,1,687,100.7ZM653.58,96a20.35,20.35,0,0,0,28.62,0A19.6,19.6,0,0,0,688,81.64a19.6,19.6,0,0,0-5.83-14.36,20.35,20.35,0,0,0-28.62,0,20.63,20.63,0,0,0,0,28.72Z"/><path class="cls-1" d="M86.73,86.66a6.48,6.48,0,1,1-4.45-8,6.48,6.48,0,0,1,4.45,8m12.43,3.55a19.41,19.41,0,1,0-24,13.33,19.44,19.44,0,0,0,24-13.33Z"/><path class="cls-1" d="M80.5,117.24v13a45.41,45.41,0,0,0,45.36-45.36h-13A32.4,32.4,0,0,1,80.5,117.24Z"/><path class="cls-1" d="M80.5,52.51v-13A45.42,45.42,0,0,0,35.13,84.88h13A32.41,32.41,0,0,1,80.5,52.51Z"/><circle class="cls-1" cx="98.01" cy="50.28" r="6.48"/><circle class="cls-1" cx="114.99" cy="67.16" r="6.48"/><circle class="cls-1" cx="62.99" cy="119.48" r="6.48"/><circle class="cls-1" cx="46" cy="102.6" r="6.48"/></svg>