<svg width="125" height="83" viewBox="0 0 125 83" fill="none" xmlns="http://www.w3.org/2000/svg">
<path fill-rule="evenodd" clip-rule="evenodd" d="M0.829012 17.9579C1.24264 17.9579 1.57794 18.2932 1.57794 18.7068V79.2768C1.57794 79.9662 2.13679 80.525 2.82617 80.525H36.6552C37.3445 80.525 37.9034 79.9662 37.9034 79.2768V18.7068C37.9034 18.2932 38.2387 17.9579 38.6523 17.9579C39.066 17.9579 39.4013 18.2932 39.4013 18.7068V79.2768C39.4013 80.7934 38.1718 82.0229 36.6552 82.0229H2.82617C1.30954 82.0229 0.0800781 80.7934 0.0800781 79.2768V18.7068C0.0800781 18.2932 0.415387 17.9579 0.829012 17.9579Z" fill="white"/>
<path d="M7.92041 24.6446C7.92041 23.5416 8.81457 22.6475 9.91757 22.6475H12.0696C13.1726 22.6475 14.0667 23.5416 14.0667 24.6446V30.1062C14.0667 31.2092 13.1726 32.1033 12.0696 32.1033H9.91757C8.81457 32.1033 7.92041 31.2092 7.92041 30.1062V24.6446Z" fill="white"/>
<path d="M16.9038 24.6446C16.9038 23.5416 17.798 22.6475 18.901 22.6475H21.053C22.156 22.6475 23.0501 23.5416 23.0501 24.6446V30.1062C23.0501 31.2092 22.156 32.1033 21.053 32.1033H18.901C17.798 32.1033 16.9038 31.2092 16.9038 30.1062V24.6446Z" fill="white"/>
<path d="M25.8872 24.6446C25.8872 23.5416 26.7814 22.6475 27.8844 22.6475H30.0364C31.1394 22.6475 32.0335 23.5416 32.0335 24.6446V30.1062C32.0335 31.2092 31.1394 32.1033 30.0364 32.1033H27.8844C26.7814 32.1033 25.8872 31.2092 25.8872 30.1062V24.6446Z" fill="white"/>
<path d="M7.92041 42.6108C7.92041 41.5078 8.81457 40.6136 9.91757 40.6136H12.0696C13.1726 40.6136 14.0667 41.5078 14.0667 42.6108V48.0724C14.0667 49.1754 13.1726 50.0695 12.0696 50.0695H9.91757C8.81457 50.0695 7.92041 49.1754 7.92041 48.0724V42.6108Z" fill="white"/>
<path d="M16.9038 42.6108C16.9038 41.5078 17.798 40.6136 18.901 40.6136H21.053C22.156 40.6136 23.0501 41.5078 23.0501 42.6108V48.0724C23.0501 49.1754 22.156 50.0695 21.053 50.0695H18.901C17.798 50.0695 16.9038 49.1754 16.9038 48.0724V42.6108Z" fill="white"/>
<path d="M25.8872 42.6108C25.8872 41.5078 26.7814 40.6136 27.8844 40.6136H30.0364C31.1394 40.6136 32.0335 41.5078 32.0335 42.6108V48.0724C32.0335 49.1754 31.1394 50.0695 30.0364 50.0695H27.8844C26.7814 50.0695 25.8872 49.1754 25.8872 48.0724V42.6108Z" fill="white"/>
<path fill-rule="evenodd" clip-rule="evenodd" d="M1.35399 18.9746C1.0582 19.2637 0.58403 19.2583 0.294904 18.9625C0.00577702 18.6667 0.0111778 18.1926 0.306967 17.9034L17.8226 0.78232C18.8897 -0.260775 20.5945 -0.260773 21.6617 0.782322L39.1773 17.9034C39.4731 18.1926 39.4785 18.6667 39.1894 18.9625C38.9002 19.2583 38.4261 19.2637 38.1303 18.9746L20.6147 1.85347C20.1296 1.37933 19.3547 1.37933 18.8696 1.85347L1.35399 18.9746ZM8.67039 81.274V68.074L8.67048 68.0635C8.6706 68.054 8.67084 68.0385 8.67137 68.0174C8.67242 67.9752 8.67457 67.9108 8.67902 67.8273C8.68793 67.6602 8.70593 67.4179 8.74224 67.1258C8.81533 66.5377 8.96031 65.7669 9.24373 65.0067C9.52837 64.2434 9.93756 63.5312 10.5149 63.0151C11.0767 62.5129 11.8301 62.1655 12.8858 62.1655C13.9415 62.1655 14.6949 62.5129 15.2567 63.0151C15.834 63.5312 16.2432 64.2434 16.5279 65.0067C16.8113 65.7669 16.9563 66.5377 17.0294 67.1258C17.0657 67.4179 17.0837 67.6602 17.0926 67.8273C17.097 67.9108 17.0992 67.9752 17.1002 68.0174C17.1007 68.0385 17.101 68.054 17.1011 68.0635L17.1012 68.0732L17.1012 68.0745V81.274C17.1012 81.6876 17.4365 82.0229 17.8501 82.0229C18.2638 82.0229 18.5991 81.6876 18.5991 81.274V68.0736H17.8501C18.5991 68.0736 18.5991 68.0725 18.5991 68.0722L18.5991 68.0701L18.599 68.0643L18.5989 68.0454C18.5987 68.0298 18.5983 68.0079 18.5976 67.9802C18.5962 67.9248 18.5936 67.8462 18.5883 67.7477C18.5778 67.5508 18.557 67.273 18.5158 66.941C18.4337 66.281 18.2684 65.3875 17.9313 64.4834C17.5954 63.5826 17.0738 62.6304 16.2549 61.8984C15.4205 61.1524 14.3123 60.6677 12.8858 60.6677C11.4593 60.6677 10.3511 61.1524 9.51664 61.8984C8.69778 62.6304 8.17616 63.5826 7.84026 64.4834C7.50314 65.3875 7.33785 66.281 7.25581 66.941C7.21454 67.273 7.19376 67.5508 7.18328 67.7477C7.17803 67.8462 7.17534 67.9248 7.17396 67.9802C7.17327 68.0079 7.17291 68.0298 7.17272 68.0454L7.17255 68.0643L7.17252 68.0701L7.17252 68.0722L7.17252 68.0736V81.274C7.17252 81.6876 7.50783 82.0229 7.92145 82.0229C8.33508 82.0229 8.67039 81.6876 8.67039 81.274ZM22.8543 68.074V81.274C22.8543 81.6876 22.519 82.0229 22.1054 82.0229C21.6917 82.0229 21.3564 81.6876 21.3564 81.274V68.0736L21.3564 68.0722L21.3564 68.0701L21.3565 68.0643L21.3566 68.0454L21.357 68.0205L21.3579 67.9802C21.3592 67.9248 21.3619 67.8462 21.3672 67.7477C21.3777 67.5508 21.3984 67.273 21.4397 66.941C21.5217 66.281 21.687 65.3875 22.0242 64.4834C22.3601 63.5826 22.8817 62.6304 23.7005 61.8984C24.535 61.1524 25.6432 60.6677 27.0697 60.6677C28.4962 60.6677 29.6044 61.1524 30.4389 61.8984C31.2577 62.6304 31.7793 63.5826 32.1152 64.4834C32.4524 65.3875 32.6176 66.281 32.6997 66.941C32.7409 67.273 32.7617 67.5508 32.7722 67.7477C32.7775 67.8462 32.7802 67.9248 32.7815 67.9802C32.7822 68.0079 32.7826 68.0298 32.7828 68.0454L32.7829 68.0643L32.783 68.0701L32.783 68.0722C32.783 68.0725 32.783 68.0736 32.034 68.0736H32.783V80.3814C32.783 80.795 32.4477 81.1303 32.034 81.1303C31.6204 81.1303 31.2851 80.795 31.2851 80.3814V68.0745L31.2851 68.0732L31.285 68.0635C31.2849 68.054 31.2846 68.0385 31.2841 68.0174C31.2831 67.9752 31.2809 67.9108 31.2765 67.8273C31.2676 67.6602 31.2496 67.4179 31.2133 67.1258C31.1402 66.5377 30.9952 65.7669 30.7118 65.0067C30.4271 64.2434 30.0179 63.5312 29.4406 63.0151C28.8788 62.5129 28.1254 62.1655 27.0697 62.1655C26.014 62.1655 25.2606 62.5129 24.6988 63.0151C24.1215 63.5312 23.7123 64.2434 23.4276 65.0067C23.1442 65.7669 22.9992 66.5377 22.9261 67.1258C22.8898 67.4179 22.8718 67.6602 22.8629 67.8273C22.8585 67.9108 22.8563 67.9752 22.8553 68.0174L22.8547 68.0426L22.8544 68.0635L22.8543 68.074ZM34.8714 57.1955C35.285 57.1955 35.6203 57.5308 35.6203 57.9445C35.6203 58.3581 35.285 58.6934 34.8714 58.6934H1.30319C0.889562 58.6934 0.554255 58.3581 0.554255 57.9445C0.554255 57.5308 0.889562 57.1955 1.30319 57.1955H34.8714ZM38.9295 35.0877C38.9295 34.6741 38.5942 34.3388 38.1806 34.3388H4.13964C3.72602 34.3388 3.39071 34.6741 3.39071 35.0877C3.39071 35.5014 3.72602 35.8367 4.13964 35.8367H38.1806C38.5942 35.8367 38.9295 35.5014 38.9295 35.0877ZM21.5532 13.428C21.5532 14.298 20.8479 15.0033 19.9779 15.0033C19.1079 15.0033 18.4026 14.298 18.4026 13.428C18.4026 12.5579 19.1079 11.8527 19.9779 11.8527C20.8479 11.8527 21.5532 12.5579 21.5532 13.428ZM23.0511 13.428C23.0511 15.1252 21.6752 16.5011 19.9779 16.5011C18.2807 16.5011 16.9048 15.1252 16.9048 13.428C16.9048 11.7307 18.2807 10.3548 19.9779 10.3548C21.6752 10.3548 23.0511 11.7307 23.0511 13.428Z" fill="white"/>
<rect x="90.9404" y="17.824" width="10.7215" height="10.2109" rx="2.33204" fill="white"/>
<path fill-rule="evenodd" clip-rule="evenodd" d="M116.23 38.9446L116.23 38.9302C116.229 38.9141 116.227 38.8859 116.224 38.8475C116.217 38.7704 116.202 38.6536 116.171 38.5106C116.109 38.2224 115.986 37.8428 115.744 37.4675C115.289 36.7625 114.325 35.9315 112.129 35.9315C109.933 35.9315 108.969 36.7625 108.514 37.4675C108.272 37.8428 108.149 38.2224 108.087 38.5106C108.056 38.6536 108.041 38.7704 108.034 38.8475C108.03 38.8859 108.029 38.9141 108.028 38.9302L108.028 38.9446V44.928C108.028 45.6174 108.586 46.1762 109.276 46.1762H116.23V38.9446ZM116.958 47.6738C116.965 47.674 116.972 47.6741 116.979 47.6741C117.393 47.6741 117.728 47.3388 117.728 46.9252V38.9402H116.979C117.728 38.9402 117.728 38.9397 117.728 38.9392L117.728 38.9381L117.728 38.9357L117.728 38.9298L117.728 38.9138C117.727 38.9014 117.727 38.8853 117.726 38.8658C117.724 38.8269 117.721 38.7743 117.715 38.71C117.704 38.5816 117.681 38.4048 117.635 38.1956C117.546 37.7792 117.366 37.2194 117.002 36.6553C116.245 35.4815 114.783 34.4337 112.129 34.4337C109.475 34.4337 108.013 35.4815 107.256 36.6553C106.892 37.2194 106.712 37.7792 106.622 38.1956C106.577 38.4048 106.554 38.5816 106.542 38.71C106.536 38.7743 106.533 38.8269 106.532 38.8658C106.531 38.8853 106.53 38.9014 106.53 38.9138L106.53 38.9298L106.53 38.9357L106.53 38.9381L106.53 38.9392C106.53 38.9397 106.53 38.9402 107.279 38.9402H106.53V44.928C106.53 46.4446 107.759 47.6741 109.276 47.6741H116.937C116.944 47.6741 116.951 47.674 116.958 47.6738Z" fill="white"/>
<path d="M90.9404 38.7564C90.9404 38.7564 90.9404 34.672 96.3012 34.672C101.662 34.672 101.662 38.7564 101.662 38.7564V45.1037C101.662 46.3916 100.618 47.4357 99.3299 47.4357H93.2725C91.9845 47.4357 90.9404 46.3916 90.9404 45.1037V38.7564Z" fill="white"/>
<rect x="106.257" y="17.824" width="10.7215" height="10.2109" rx="2.33204" fill="white"/>
<path fill-rule="evenodd" clip-rule="evenodd" d="M103.167 4.61542L84.1565 13.6926V30.2703H123.251V13.6912L104.243 4.61542C103.903 4.45301 103.508 4.45301 103.167 4.61542ZM123.251 31.7682V54.9521H84.1565V31.7682H123.251ZM123.251 56.45H84.1565V78.7998C84.1565 79.6047 84.8091 80.2573 85.614 80.2573H90.1913L90.1894 80.2344C90.1862 80.1953 90.1818 80.1386 90.1768 80.0657C90.1668 79.9197 90.1543 79.7083 90.1438 79.4407C90.1228 78.9057 90.1095 78.1448 90.1401 77.2329C90.2012 75.4138 90.4374 72.9716 91.1463 70.5164C91.8542 68.0647 93.0475 65.552 95.0559 63.647C97.0817 61.7255 99.8861 60.4715 103.704 60.4715C107.533 60.4715 110.341 61.7896 112.365 63.8003C114.369 65.7919 115.559 68.4167 116.265 70.9771C116.972 73.5423 117.207 76.0946 117.268 77.9967C117.298 78.9235 117.286 79.7011 117.266 80.2573H121.793C122.598 80.2573 123.251 79.6047 123.251 78.7998V56.45ZM115.767 80.2573H91.689C91.6902 80.2247 91.6893 80.1916 91.6862 80.1582L91.6862 80.1581L91.6862 80.1579L91.6861 80.1566L91.6853 80.1486L91.6823 80.1125C91.6796 80.0797 91.6757 80.0295 91.6712 79.9633C91.6621 79.8308 91.6504 79.6339 91.6405 79.3818C91.6207 78.8773 91.608 78.1533 91.6372 77.2832C91.6957 75.5384 91.9222 73.2287 92.5854 70.932C93.2496 68.6318 94.3378 66.3927 96.0867 64.7338C97.8182 63.0914 100.247 61.9694 103.704 61.9694C107.151 61.9694 109.576 63.1402 111.309 64.8629C113.062 66.6047 114.154 68.9577 114.821 71.3751C115.486 73.7878 115.712 76.2133 115.771 78.0446C115.8 78.958 115.788 79.7182 115.768 80.2481L115.767 80.2573ZM124.45 12.6037C124.615 12.6824 124.737 12.8135 124.808 12.9676C124.928 13.1173 125 13.3075 125 13.5145V78.7998C125 80.5707 123.564 82.0063 121.793 82.0063H85.614C83.8431 82.0063 82.4075 80.5707 82.4075 78.7998V13.5145C82.4075 13.3034 82.4823 13.1097 82.6068 12.9586C82.6779 12.8085 82.7992 12.6809 82.9609 12.6037L102.522 3.26373C103.27 2.90641 104.14 2.90641 104.889 3.26373L124.45 12.6037Z" fill="white"/>
<path fill-rule="evenodd" clip-rule="evenodd" d="M49.6078 31.4653H72.2747C72.4856 31.4653 72.6566 31.6363 72.6566 31.8473V56.0099C72.6566 56.2209 72.4856 56.3919 72.2747 56.3919H49.6078C49.3969 56.3919 49.2259 56.2209 49.2259 56.0099V31.8473C49.2259 31.6363 49.3969 31.4653 49.6078 31.4653ZM47.728 31.8473C47.728 30.8091 48.5696 29.9675 49.6078 29.9675H72.2747C73.3129 29.9675 74.1545 30.8091 74.1545 31.8473V56.0099C74.1545 57.0481 73.3129 57.8897 72.2747 57.8897H49.6078C48.5696 57.8897 47.728 57.0481 47.728 56.0099V31.8473ZM60.94 43.5626C60.5264 43.5626 60.1911 43.2273 60.1911 42.8136V33.257C60.1911 32.8434 60.5264 32.5081 60.94 32.5081C61.3536 32.5081 61.689 32.8434 61.689 33.257V42.8136C61.689 43.2273 61.3536 43.5626 60.94 43.5626ZM60.94 56.0156C60.5264 56.0156 60.1911 55.6803 60.1911 55.2667V45.71C60.1911 45.2964 60.5264 44.9611 60.94 44.9611C61.3536 44.9611 61.689 45.2964 61.689 45.71V55.2667C61.689 55.6803 61.3536 56.0156 60.94 56.0156ZM60.3414 44.2618C60.3414 44.6754 60.0061 45.0107 59.5924 45.0107L50.1749 45.0104C49.7613 45.0104 49.426 44.6751 49.426 44.2615C49.426 43.8478 49.7613 43.5125 50.1749 43.5126L59.5925 43.5129C60.0061 43.5129 60.3414 43.8482 60.3414 44.2618ZM71.6813 45.0111C72.0949 45.0111 72.4303 44.6758 72.4303 44.2622C72.4303 43.8486 72.095 43.5132 71.6814 43.5132L62.5031 43.5129C62.0894 43.5129 61.7541 43.8482 61.7541 44.2618C61.7541 44.6755 62.0894 45.0108 62.503 45.0108L71.6813 45.0111Z" fill="white"/>
<path fill-rule="evenodd" clip-rule="evenodd" d="M43.2412 29.8478V60.7535C43.2412 61.1671 43.5765 61.5024 43.9901 61.5024C44.4038 61.5024 44.7391 61.1671 44.7391 60.7535V29.8478V29.4399V27.0446C44.7391 26.447 45.1627 25.9333 45.7493 25.8193L53.5727 24.2998C54.3535 24.1482 54.9437 23.6712 55.3771 23.1466C55.8095 22.6233 56.1281 22.0028 56.3634 21.4577C56.5546 21.0145 56.9118 20.5356 57.604 20.1574C58.3084 19.7725 59.3975 19.4723 61.0742 19.4723C62.8101 19.4723 63.9418 19.7941 64.6779 20.2048C65.4039 20.6098 65.785 21.1228 65.9922 21.5912C66.2257 22.119 66.5431 22.7054 66.9696 23.199C67.3973 23.6939 67.971 24.1363 68.7148 24.2841L76.4044 25.813C76.9886 25.9291 77.4093 26.4417 77.4093 27.0372V29.4399V29.8478V60.8859C77.4093 61.2995 77.7446 61.6348 78.1582 61.6348C78.5718 61.6348 78.9071 61.2995 78.9071 60.8859V29.8478V29.4399V27.0372C78.9071 25.727 77.9816 24.5993 76.6965 24.3439L69.0069 22.815C68.6948 22.753 68.3944 22.5569 68.103 22.2197C67.8105 21.8812 67.564 21.4419 67.362 20.9852C67.0325 20.2402 66.4367 19.4708 65.4077 18.8967C64.3889 18.3284 62.9875 17.9744 61.0742 17.9744C59.2288 17.9744 57.8729 18.3036 56.8859 18.8429C55.8866 19.3888 55.3055 20.1287 54.9881 20.8641C54.7777 21.3516 54.5254 21.8258 54.2224 22.1926C53.9203 22.5582 53.6105 22.7667 53.2872 22.8295L45.4637 24.3489C44.1731 24.5996 43.2412 25.7299 43.2412 27.0446V29.4399V29.8478ZM44.7391 66.9143C44.7391 66.5006 44.4038 66.1653 43.9901 66.1653C43.5765 66.1653 43.2412 66.5006 43.2412 66.9143V78.9703C43.2412 80.487 44.4707 81.7164 45.9873 81.7164H46.9006L46.9041 81.7164L46.9075 81.7164H76.161C77.6777 81.7164 78.9071 80.487 78.9071 78.9703V67.0467C78.9071 66.6331 78.5718 66.2978 78.1582 66.2978C77.7446 66.2978 77.4093 66.6331 77.4093 67.0467V78.9703C77.4093 79.6597 76.8504 80.2186 76.161 80.2186H75.7291V65.7077C75.7291 65.658 75.7242 65.6094 75.715 65.5624H75.945C77.73 65.5624 78.6185 63.3994 77.3489 62.1447L76.0303 60.8417C75.6564 60.4722 75.152 60.265 74.6265 60.265H47.5226C46.997 60.265 46.4926 60.4722 46.1188 60.8417L44.8002 62.1447C43.5388 63.3912 44.4075 65.5343 46.1692 65.5621C46.16 65.6092 46.1551 65.6579 46.1551 65.7077V80.2186H45.9873C45.2979 80.2186 44.7391 79.6597 44.7391 78.9703V66.9143ZM47.6389 65.5624C47.6481 65.6094 47.653 65.658 47.653 65.7077V80.2186H74.2312V65.7077C74.2312 65.658 74.236 65.6094 74.2453 65.5624H47.6389ZM47.5226 61.7629H74.6265C74.7579 61.7629 74.884 61.8147 74.9774 61.9071L76.296 63.2101C76.6134 63.5238 76.3913 64.0646 75.945 64.0646H46.204C45.7578 64.0646 45.5356 63.5238 45.853 63.2101L47.1716 61.9071C47.2651 61.8147 47.3912 61.7629 47.5226 61.7629Z" fill="white"/>
</svg>
