<?xml version="1.0" encoding="UTF-8"?>
<svg width="42.592mm" height="31.814mm" version="1.1" viewBox="0 0 42.592 31.814" xmlns="http://www.w3.org/2000/svg" xmlns:cc="http://creativecommons.org/ns#" xmlns:dc="http://purl.org/dc/elements/1.1/" xmlns:rdf="http://www.w3.org/1999/02/22-rdf-syntax-ns#">
 <defs>
  <filter id="filter0_d" x="127.57" y="98.381" width="30.462" height="30.773" color-interpolation-filters="sRGB" filterUnits="userSpaceOnUse">
   <feFlood flood-opacity="0" result="BackgroundImageFix"/>
   <feColorMatrix in="SourceAlpha" values="0 0 0 0 0 0 0 0 0 0 0 0 0 0 0 0 0 0 127 0"/>
   <feOffset dy="4"/>
   <feGaussianBlur stdDeviation="2"/>
   <feColorMatrix values="0 0 0 0 0 0 0 0 0 0 0 0 0 0 0 0 0 0 0.25 0"/>
   <feBlend in2="BackgroundImageFix" result="effect1_dropShadow"/>
   <feBlend in="SourceGraphic" in2="effect1_dropShadow" result="shape"/>
  </filter>
  <filter id="filter1_d" x="2.0229" y="72.276" width="66.454" height="56.905" color-interpolation-filters="sRGB" filterUnits="userSpaceOnUse">
   <feFlood flood-opacity="0" result="BackgroundImageFix"/>
   <feColorMatrix in="SourceAlpha" values="0 0 0 0 0 0 0 0 0 0 0 0 0 0 0 0 0 0 127 0"/>
   <feOffset dy="4"/>
   <feGaussianBlur stdDeviation="2"/>
   <feColorMatrix values="0 0 0 0 0 0 0 0 0 0 0 0 0 0 0 0 0 0 0.25 0"/>
   <feBlend in2="BackgroundImageFix" result="effect1_dropShadow"/>
   <feBlend in="SourceGraphic" in2="effect1_dropShadow" result="shape"/>
  </filter>
 </defs>
 <metadata>
  <rdf:RDF>
   <cc:Work rdf:about="">
    <dc:format>image/svg+xml</dc:format>
    <dc:type rdf:resource="http://purl.org/dc/dcmitype/StillImage"/>
    <dc:title/>
   </cc:Work>
  </rdf:RDF>
 </metadata>
 <g transform="translate(-56.567 -139.53)">
  <g transform="matrix(.26458 0 0 .26458 56.032 129.2)" fill="none">
   <circle cx="103" cy="99.05" r="60" fill="#EEEDF4"/>
   <g stroke="#5952FF" stroke-linecap="round" stroke-linejoin="round">
    <line transform="matrix(.14354 -.98964 .98907 .14746 138 145.53)" x1=".5" x2="34.329" y1="-.5" y2="-.5"/>
    <line transform="matrix(-.48266 -.8758 .87008 -.4929 143 111.07)" x1=".5" x2="38.863" y1="-.5" y2="-.5"/>
    <line transform="matrix(-.99812 .061331 -.05967 -.99822 156 73.549)" x1=".5" x2="32.562" y1="-.5" y2="-.5"/>
    <line transform="matrix(-.94732 -.3203 .31245 -.94993 144 57.33)" x1=".5" x2="21.667" y1="-.5" y2="-.5"/>
    <line transform="matrix(-.51884 .85487 -.84842 -.52932 159 84.702)" x1=".5" x2="30.339" y1="-.5" y2="-.5"/>
    <line x1="122.5" x2="122.5" y1="76.091" y2="50.73"/>
    <line transform="matrix(.8919 -.45223 .44237 .89684 97 63.414)" x1=".5" x2="28.652" y1="-.5" y2="-.5"/>
    <line transform="matrix(-.89194 -.45216 .4423 -.89687 97 63.414)" x1=".5" x2="28.65" y1="-.5" y2="-.5"/>
   </g>
   <g filter="url(#filter0_d)">
    <ellipse cx="142.8" cy="109.77" rx="11.231" ry="11.386" fill="#5952FF"/>
    <path d="m140.5 109.45 1.731 1.78 4.397-4.553c0.256-0.225 0.585-0.341 0.92-0.325s0.653 0.162 0.888 0.41c0.236 0.247 0.373 0.578 0.383 0.925 0.011 0.348-0.106 0.686-0.326 0.949l-5.329 5.519c-0.249 0.252-0.584 0.394-0.933 0.394-0.348 0-0.683-0.142-0.932-0.394l-2.665-2.76c-0.22-0.262-0.336-0.601-0.326-0.948 0.011-0.348 0.148-0.678 0.383-0.926 0.236-0.247 0.553-0.393 0.888-0.409s0.664 0.1 0.921 0.324z" fill="#EEEDF4"/>
   </g>
   <ellipse cx="123.23" cy="75.811" rx="6.7692" ry="6.8631" fill="#5952FF"/>
   <path d="m121.84 75.62 1.043 1.0728 2.65-2.7443c0.155-0.1352 0.353-0.205 0.555-0.1955 0.202 0.0096 0.393 0.0977 0.535 0.2469s0.225 0.3484 0.231 0.5578-0.064 0.4136-0.196 0.5717l-3.212 3.3264c-0.151 0.1524-0.352 0.2378-0.563 0.2378-0.21 0-0.412-0.0854-0.562-0.2378l-1.606-1.6632c-0.132-0.1581-0.203-0.3623-0.196-0.5717 6e-3 -0.2094 0.089-0.4086 0.231-0.5578 0.142-0.1491 0.333-0.2373 0.535-0.2469 0.202-0.0095 0.4 0.0603 0.555 0.1955z" fill="#EEEDF4"/>
   <ellipse cx="96.77" cy="63.177" rx="7.2308" ry="7.3311" fill="#5952FF"/>
   <path d="m95.289 62.973 1.115 1.1459 2.8305-2.9314c0.165-0.1444 0.3767-0.2189 0.5925-0.2087 0.2163 0.0101 0.4203 0.1043 0.5713 0.2637 0.152 0.1593 0.24 0.3721 0.247 0.5958s-0.068 0.4417-0.21 0.6106l-3.4309 3.5532c-0.1603 0.1628-0.3759 0.2539-0.6004 0.2539s-0.4401-0.0911-0.6004-0.2539l-1.7155-1.7766c-0.1417-0.1689-0.2167-0.3869-0.2099-0.6106 0.0067-0.2237 0.0948-0.4365 0.2465-0.5958 0.1517-0.1594 0.3559-0.2536 0.5717-0.2637 0.2159-0.0102 0.4275 0.0643 0.5926 0.2087z" fill="#EEEDF4"/>
   <ellipse cx="122.23" cy="49.45" rx="4.7692" ry="4.8354" fill="#5952FF"/>
   <path d="m121.25 49.316 0.736 0.7558 1.866-1.9335c0.109-0.0952 0.249-0.1444 0.391-0.1377 0.143 0.0067 0.277 0.0689 0.377 0.174s0.158 0.2454 0.163 0.393c4e-3 0.1475-0.045 0.2913-0.139 0.4027l-2.262 2.3437c-0.106 0.1073-0.248 0.1675-0.396 0.1675-0.149 0-0.291-0.0602-0.397-0.1675l-1.131-1.1719c-0.093-0.1113-0.143-0.2552-0.138-0.4027 4e-3 -0.1476 0.062-0.2879 0.162-0.393s0.235-0.1672 0.377-0.174c0.143-0.0067 0.282 0.0425 0.391 0.1378z" fill="#EEEDF4"/>
   <g clip-rule="evenodd" fill-rule="evenodd" mask="url(#mask0)">
    <path d="m116.25 132.42 15.216-14.05c2.126-4.218 4.377-7.645 6.753-10.282 0.775-0.579 2.22-1.176 1.369 1.707s-1.621 5.952-0.743 6.553c0.879 0.6 2.417-0.937 3.543 0.145 0.751 0.721-1.983 2.85-8.204 6.386l-10.039 14.936z" fill="#915B3C"/>
    <path d="m65.443 96.5c-2.7958-2.6672-4.8147-6.0621-4.8417-10.066-0.0775-11.538 16.706-10.502 20.392-5.0054 3.6867 5.4964 4.4728 20.206 0.3863 21.613-1.6296 0.562-5.2518-0.131-9.023-1.899l3.4899 15.2-13.359 1.197z" fill="#915B3C"/>
    <path d="m68.843 108.91 4.0651-2.188c12.199 5.837 22.846 26.187 29.986 26.938 6.75 0.71 14.28-4.744 23.097-11.651l5.171 5.715c-5.968 12.753-22.613 27.461-31.882 25.428-14.819-3.249-26.119-28.97-30.438-44.242z" fill="#9B3F30"/>
    <path d="m61.505 142.92c17.363-5.838 38.681 17.995 46.861 15.244 7.232 0.12-1.511-5.084-2.165-6.244-7.5456-13.386-23.933-25.039-30.517-45.491l-11.596 2.025c-4.5231 17.421-8.4063 10.16-2.5829 34.466z" fill="#DDE3E9"/>
    <path d="m64.6 109.92 0.1254-0.042 4.2241-1.432c20.424 29.712 33.028 38.356 32.117 50.85 0 0-28.673-2.9724-37.842-13.298s-16.859-11.587 1.3754-36.077z" fill="#B94937"/>
    <path d="m73.49 76.396c-1.7297-0.1133-6.3446 0.1438-7.193 0.2269-1.2152 0.1189-1.487 0.1105-2.3158 0.4226-6.635 1.8781-8.648 10.463-6.2897 16.39 1.2728 3.199 7.717 6.4538 9.9783 4.4855 1.4325-1.247 0.4034-2.5995-0.264-3.4935-1.2781-1.7121-1.8453-4.0164 0.1689-5.4923 1.7374-1.273 3.8476 1.1401 3.8836 1.1337 0.4973-0.0884 4.635-2.9577 7.3435-6.8192 2.9511-0.113 3.2504-2.0954 2.429-3.6124-0.8213-1.5169-5.3508-3.0842-7.7408-3.241z" fill="#2F314D"/>
   </g>
   <g filter="url(#filter1_d)">
    <path d="m64.477 77.592s-0.7945-0.7357-1.1422-1.0489c-0.4037-0.3638-0.8321-0.6985-1.2607-1.0312-1.2197-0.9468-2.5376-1.7185-3.9705-2.2826-2.6885-1.0583-5.5546-1.2641-8.3344-0.4722-3.0695 0.8745-5.8283 2.7602-8.1178 4.9702-2.4501 2.3648-4.1236 5.1881-5.9405 8.0433-1.7315 2.7209-3.9553 5.0562-6.729 6.6946-2.7947 1.6507-5.7624 1.8245-8.8932 2.2469-3.2051 0.4324-6.3505 1.5753-8.7289 3.8552-2.2202 2.1279-3.6125 4.9099-4.5148 7.8399-0.84418 2.742-1.1671 5.473-0.3471 8.271 0.88202 3.011 2.8591 5.488 5.9605 6.245 4.4955 1.097 9.1558-1.486 12.478-4.332 1.9214-1.646 3.5534-3.583 4.8747-5.755 1.762-2.897 2.7029-6.129 4.0435-9.225 0.6291-1.453 1.3754-2.8348 2.2793-4.1302 0.8771-1.2572 1.8775-2.3243 3.4618-2.4718 1.676-0.156 3.2285-0.2323 4.8415-0.7923 1.5475-0.5371 3.0103-1.3272 4.2753-2.3807 2.4611-2.0497 4.2786-4.8335 6.266-7.3295 1.6208-2.0353 3.3799-4.1817 5.7073-5.4104 3.8265-2.4203 3.7916-1.5043 3.7916-1.5043z" clip-rule="evenodd" fill="#2F314D" fill-rule="evenodd"/>
   </g>
  </g>
 </g>
</svg>
