<svg width="124" height="120" viewBox="0 0 124 120" fill="none" xmlns="http://www.w3.org/2000/svg">
<circle cx="65.1121" cy="58.117" r="58.117" fill="#EEC8DD"/>
<path fill-rule="evenodd" clip-rule="evenodd" d="M58.117 116C88.005 116 112.234 91.771 112.234 61.883C112.234 31.995 88.005 7.76599 58.117 7.76599C28.229 7.76599 4 31.995 4 61.883C4 91.771 28.229 116 58.117 116ZM58.117 120C90.2141 120 116.234 93.9801 116.234 61.883C116.234 29.7859 90.2141 3.76599 58.117 3.76599C26.0199 3.76599 0 29.7859 0 61.883C0 93.9801 26.0199 120 58.117 120Z" fill="#E0367C"/>
<path fill-rule="evenodd" clip-rule="evenodd" d="M18.6981 66.8349C19.7822 66.6237 20.8324 67.3314 21.0436 68.4156C24.428 85.7899 39.7328 98.9037 58.0961 98.9037C76.4594 98.9037 91.7642 85.7899 95.1486 68.4156C95.3598 67.3314 96.4099 66.6237 97.4941 66.8349C98.5783 67.0461 99.286 68.0962 99.0748 69.1804C95.3313 88.3979 78.4099 102.904 58.0961 102.904C37.7822 102.904 20.8608 88.3979 17.1174 69.1804C16.9062 68.0962 17.6139 67.0461 18.6981 66.8349Z" fill="#E0367C"/>
<ellipse cx="38.2212" cy="48.923" rx="6.62499" ry="6.11538" fill="#E0367C"/>
<ellipse cx="78.9907" cy="48.923" rx="6.62499" ry="6.11538" fill="#E0367C"/>
</svg>
