<svg width="20" height="20" viewBox="0 0 20 20" fill="none" xmlns="http://www.w3.org/2000/svg">
<path d="M19.169 15.0847L10.2808 0.348417C10.0004 -0.116139 9.29379 -0.116139 9.01492 0.348417L0.12438 15.0847C0.0583505 15.1938 0.0172037 15.3185 0.00434346 15.4484C-0.00851682 15.5783 0.00727898 15.7097 0.0504243 15.8316C0.0935696 15.9535 0.162824 16.0626 0.25246 16.1497C0.342096 16.2368 0.449537 16.2994 0.565896 16.3325L9.45298 19.9735C9.57879 20.0088 9.71078 20.0088 9.83658 19.9735L18.7267 16.3325C18.843 16.2995 18.9503 16.2369 19.0399 16.1499C19.1295 16.0629 19.1988 15.9541 19.242 15.8323C19.2852 15.7105 19.3011 15.5793 19.2884 15.4495C19.2757 15.3198 19.2348 15.1951 19.169 15.0859V15.0847ZM9.64593 6.82638C10.2386 6.82646 10.818 7.01742 11.3108 7.3751C11.8035 7.73278 12.1876 8.24114 12.4144 8.83589C12.6412 9.43064 12.7006 10.0851 12.585 10.7165C12.4694 11.3479 12.1841 11.9278 11.765 12.3831C11.346 12.8384 10.8121 13.1485 10.2308 13.2742C9.64952 13.3999 9.04698 13.3356 8.49935 13.0894C7.95172 12.8432 7.48359 12.4261 7.15415 11.891C6.82472 11.3558 6.64876 10.7266 6.64853 10.0829C6.64894 9.21947 6.96484 8.39155 7.52685 7.78096C8.08887 7.17037 8.85103 6.82704 9.64593 6.82638ZM9.64593 16.6871C6.66234 16.6871 3.49118 15.7492 3.49118 14.0076C3.49118 12.9606 4.63697 12.204 6.19858 11.7665C6.30155 12.0137 6.42669 12.2493 6.5722 12.4698C5.0455 12.8585 4.17743 13.4972 4.17743 14.0076C4.17743 14.2347 4.35196 14.4876 4.67917 14.7326C4.70143 14.6633 4.73452 14.5988 4.77698 14.5418C5.11109 14.0751 6.12416 13.6914 7.55266 13.5002C8.17264 13.95 8.90149 14.1901 9.64708 14.1901C10.3927 14.1901 11.1215 13.95 11.7415 13.5002C13.1646 13.6906 14.1762 14.0722 14.5141 14.5364C14.5586 14.5947 14.5929 14.6613 14.6154 14.733C14.943 14.488 15.1171 14.233 15.1171 14.0076C15.1171 13.4972 14.2487 12.8585 12.7223 12.4694C12.8682 12.2492 12.9932 12.0135 13.0956 11.7661C14.658 12.2036 15.8038 12.9606 15.8038 14.0076C15.8045 15.7492 12.6311 16.6871 9.64593 16.6871Z" fill="#5C50CA"/>
</svg>
