<svg width="120" height="120" viewBox="0 0 120 120" fill="none" xmlns="http://www.w3.org/2000/svg">
<mask id="mask0" mask-type="alpha" maskUnits="userSpaceOnUse" x="0" y="0" width="120" height="120">
<circle cx="60" cy="60" r="60" fill="#C4C4C4"/>
</mask>
<g mask="url(#mask0)">
<circle cx="60" cy="60" r="60" fill="#EEEDF4"/>
<g filter="url(#filter0_d)">
<path d="M84.6779 27H35.4827C33.0851 27 31.1611 29.2674 31.1611 32.0929V131.578C31.1611 134.404 33.0851 136.671 35.4827 136.671H84.6779C87.0755 136.671 88.9995 134.404 88.9995 131.578V32.0929C88.9995 29.2674 87.0755 27 84.6779 27Z" fill="#9390E9"/>
<rect x="35.6187" y="73.1204" width="49.0271" height="17.8583" rx="2.49279" fill="white"/>
<path fill-rule="evenodd" clip-rule="evenodd" d="M53.4465 80.4736C53.4465 79.8934 53.7774 79.4231 54.1855 79.4231H71.427C71.8351 79.4231 72.166 79.8934 72.166 80.4736C72.166 81.0538 71.8351 81.5241 71.427 81.5241H54.1855C53.7774 81.5241 53.4465 81.0538 53.4465 80.4736Z" fill="#5952FF"/>
<path fill-rule="evenodd" clip-rule="evenodd" d="M53.4465 84.6755C53.4465 84.0953 53.8719 83.625 54.3966 83.625H76.5643C77.089 83.625 77.5144 84.0953 77.5144 84.6755C77.5144 85.2557 77.089 85.726 76.5643 85.726H54.3966C53.8719 85.726 53.4465 85.2557 53.4465 84.6755Z" fill="#5952FF"/>
<circle cx="44.1841" cy="82.2722" r="6" fill="#5952FF"/>
<path d="M42.9557 82.1049L43.8809 83.0428L46.2297 80.6436C46.3666 80.5254 46.5422 80.4643 46.7213 80.4727C46.9004 80.481 47.0699 80.5581 47.1958 80.6885C47.3216 80.819 47.3947 80.9931 47.4003 81.1762C47.4059 81.3592 47.3437 81.5377 47.2261 81.6759L44.3791 84.5841C44.2461 84.7173 44.0672 84.7919 43.8809 84.7919C43.6946 84.7919 43.5158 84.7173 43.3827 84.5841L41.9593 83.13C41.8416 82.9918 41.7794 82.8133 41.785 82.6302C41.7906 82.4472 41.8637 82.273 41.9896 82.1426C42.1155 82.0122 42.2849 81.9351 42.464 81.9268C42.6431 81.9184 42.8187 81.9794 42.9557 82.0976V82.1049Z" fill="#EEEDF4"/>
<g filter="url(#filter1_d)">
<rect x="23" y="50.5518" width="49.0271" height="17.8583" rx="2.49279" transform="rotate(-4.15432 23 50.5518)" fill="white"/>
</g>
<path fill-rule="evenodd" clip-rule="evenodd" d="M41.3139 56.5941C41.2719 56.0155 41.5678 55.5224 41.9748 55.4929L59.1711 54.2438C59.5781 54.2143 59.9421 54.6594 59.9841 55.238C60.0262 55.8167 59.7303 56.3097 59.3233 56.3393L42.127 57.5883C41.72 57.6179 41.3559 57.1728 41.3139 56.5941Z" fill="#5952FF"/>
<path fill-rule="evenodd" clip-rule="evenodd" d="M41.6183 60.785C41.5763 60.2064 41.9665 59.7065 42.4898 59.6685L64.5993 58.0626C65.1226 58.0246 65.5809 58.4628 65.623 59.0415C65.665 59.6201 65.2748 60.12 64.7515 60.158L42.642 61.7639C42.1187 61.8019 41.6604 61.3637 41.6183 60.785Z" fill="#5952FF"/>
<circle cx="32.206" cy="59.0591" r="6" transform="rotate(-4.15432 32.206 59.0591)" fill="#5952FF"/>
<path d="M30.9686 58.9811L31.9594 59.8495L34.1281 57.2864C34.2562 57.1586 34.4269 57.085 34.6061 57.0804C34.7854 57.0757 34.9599 57.1403 35.0949 57.2613C35.2299 57.3823 35.3154 57.5507 35.3343 57.7328C35.3532 57.915 35.304 58.0975 35.1967 58.2439L32.5679 61.3507C32.4449 61.4932 32.2719 61.5805 32.0861 61.594C31.9003 61.6075 31.7165 61.5461 31.5741 61.4229L30.0491 60.0757C29.9217 59.9464 29.8467 59.7729 29.8391 59.5899C29.8314 59.4069 29.8917 59.2279 30.0078 59.0887C30.1239 58.9495 30.2873 58.8603 30.4653 58.839C30.6434 58.8178 30.8229 58.8659 30.9681 58.9739L30.9686 58.9811Z" fill="#EEEDF4"/>
<rect x="35.6182" y="97.231" width="49.0271" height="17.8583" rx="2.49279" fill="white"/>
<path fill-rule="evenodd" clip-rule="evenodd" d="M53.4463 104.585C53.4463 104.005 53.7771 103.534 54.1852 103.534H71.4268C71.8349 103.534 72.1657 104.005 72.1657 104.585C72.1657 105.165 71.8349 105.635 71.4268 105.635H54.1852C53.7771 105.635 53.4463 105.165 53.4463 104.585Z" fill="#5952FF"/>
<path fill-rule="evenodd" clip-rule="evenodd" d="M53.4453 108.787C53.4453 108.207 53.8707 107.736 54.3954 107.736H76.5631C77.0878 107.736 77.5132 108.207 77.5132 108.787C77.5132 109.367 77.0878 109.837 76.5631 109.837H54.3954C53.8707 109.837 53.4453 109.367 53.4453 108.787Z" fill="#5952FF"/>
<circle cx="44.1831" cy="106.383" r="6" fill="#5952FF"/>
<path d="M42.9552 106.216L43.8804 107.154L46.2292 104.754C46.3661 104.636 46.5417 104.575 46.7208 104.584C46.9 104.592 47.0694 104.669 47.1953 104.799C47.3212 104.93 47.3942 105.104 47.3998 105.287C47.4054 105.47 47.3432 105.649 47.2256 105.787L44.3787 108.695C44.2456 108.828 44.0667 108.903 43.8804 108.903C43.6941 108.903 43.5153 108.828 43.3822 108.695L41.9588 107.241C41.8411 107.103 41.7789 106.924 41.7845 106.741C41.7902 106.558 41.8632 106.384 41.9891 106.253C42.115 106.123 42.2844 106.046 42.4635 106.038C42.6426 106.029 42.8182 106.09 42.9552 106.208V106.216Z" fill="#EEEDF4"/>
<path d="M89 42.3483V31.8487C89 29.1627 87.1648 27 84.8856 27H35.0392C32.908 27 31.1616 29.0581 31.1616 31.5696V42.3483H89Z" fill="#2F314D"/>
<path d="M68.7242 37.3952H51.4378C51.1418 37.3952 50.905 37.1161 50.905 36.7673C50.905 36.4185 51.1418 36.1394 51.4378 36.1394H68.7242C69.0202 36.1394 69.257 36.4185 69.257 36.7673C69.2866 37.0812 69.0498 37.3952 68.7242 37.3952Z" fill="#C2C3C9"/>
<path d="M62.419 32.2324H57.7422V33.5231H62.419V32.2324Z" fill="#C2C3C9"/>
</g>
</g>
<defs>
<filter id="filter0_d" x="19" y="27" width="74" height="117.671" filterUnits="userSpaceOnUse" color-interpolation-filters="sRGB">
<feFlood flood-opacity="0" result="BackgroundImageFix"/>
<feColorMatrix in="SourceAlpha" type="matrix" values="0 0 0 0 0 0 0 0 0 0 0 0 0 0 0 0 0 0 127 0"/>
<feOffset dy="4"/>
<feGaussianBlur stdDeviation="2"/>
<feColorMatrix type="matrix" values="0 0 0 0 0 0 0 0 0 0 0 0 0 0 0 0 0 0 0.25 0"/>
<feBlend mode="normal" in2="BackgroundImageFix" result="effect1_dropShadow"/>
<feBlend mode="normal" in="SourceGraphic" in2="effect1_dropShadow" result="shape"/>
</filter>
<filter id="filter1_d" x="19" y="47" width="58.192" height="29.363" filterUnits="userSpaceOnUse" color-interpolation-filters="sRGB">
<feFlood flood-opacity="0" result="BackgroundImageFix"/>
<feColorMatrix in="SourceAlpha" type="matrix" values="0 0 0 0 0 0 0 0 0 0 0 0 0 0 0 0 0 0 127 0"/>
<feOffset dy="4"/>
<feGaussianBlur stdDeviation="2"/>
<feColorMatrix type="matrix" values="0 0 0 0 0 0 0 0 0 0 0 0 0 0 0 0 0 0 0.25 0"/>
<feBlend mode="normal" in2="BackgroundImageFix" result="effect1_dropShadow"/>
<feBlend mode="normal" in="SourceGraphic" in2="effect1_dropShadow" result="shape"/>
</filter>
</defs>
</svg>
