<svg width="71" height="87" viewBox="0 0 71 87" fill="none" xmlns="http://www.w3.org/2000/svg">
<path fill-rule="evenodd" clip-rule="evenodd" d="M65.3856 38.5698H27.359C27.059 38.5698 26.8157 38.8131 26.8157 39.1131V52.1508C26.8157 52.4508 27.059 52.694 27.359 52.694H65.3856C65.6856 52.694 65.9288 52.4508 65.9288 52.1508V39.1131C65.9288 38.8131 65.6856 38.5698 65.3856 38.5698ZM27.359 36.9401C26.1589 36.9401 25.186 37.913 25.186 39.1131V52.1508C25.186 53.3508 26.1589 54.3237 27.359 54.3237H65.3856C66.5857 54.3237 67.5585 53.3508 67.5585 52.1508V39.1131C67.5585 37.913 66.5857 36.9401 65.3856 36.9401H27.359Z" fill="white"/>
<path fill-rule="evenodd" clip-rule="evenodd" d="M33.8781 48.3481C35.3782 48.3481 36.5943 47.132 36.5943 45.6319C36.5943 44.1318 35.3782 42.9157 33.8781 42.9157C32.378 42.9157 31.1619 44.1318 31.1619 45.6319C31.1619 47.132 32.378 48.3481 33.8781 48.3481ZM33.8781 49.9778C36.2783 49.9778 38.224 48.0321 38.224 45.6319C38.224 43.2317 36.2783 41.286 33.8781 41.286C31.478 41.286 29.5322 43.2317 29.5322 45.6319C29.5322 48.0321 31.478 49.9778 33.8781 49.9778Z" fill="white"/>
<path fill-rule="evenodd" clip-rule="evenodd" d="M40.3975 43.7306C40.3975 43.2805 40.7623 42.9157 41.2123 42.9157H60.2256C60.6756 42.9157 61.0405 43.2805 61.0405 43.7306C61.0405 44.1806 60.6756 44.5454 60.2256 44.5454H41.2123C40.7623 44.5454 40.3975 44.1806 40.3975 43.7306Z" fill="white"/>
<path fill-rule="evenodd" clip-rule="evenodd" d="M68.6453 1.62971H24.0999C23.7999 1.62971 23.5567 1.87293 23.5567 2.17295V7.67373C23.7302 7.62907 23.9122 7.60532 24.0997 7.60532H68.6451C68.8328 7.60532 69.0149 7.62911 69.1886 7.67383V2.17295C69.1886 1.87293 68.9454 1.62971 68.6453 1.62971ZM69.1886 79.2441C69.0149 79.2888 68.8328 79.3126 68.6451 79.3126H24.0997C23.9122 79.3126 23.7302 79.2888 23.5567 79.2442V84.7449C23.5567 85.045 23.7999 85.2882 24.0999 85.2882H68.6453C68.9454 85.2882 69.1886 85.045 69.1886 84.7449V79.2441ZM21.927 77.1699V84.7449C21.927 85.945 22.8998 86.9179 24.0999 86.9179H68.6453C69.8454 86.9179 70.8183 85.945 70.8183 84.7449V2.17295C70.8183 0.972862 69.8454 0 68.6453 0H24.0999C22.8998 0 21.927 0.97286 21.927 2.17295V9.74801C21.9268 9.75808 21.9268 9.76817 21.9268 9.77827V16.6304V18.5H21.927V20H23.5567V18.1304V9.76315C23.5647 9.47012 23.8047 9.23503 24.0997 9.23503H68.6451C68.9451 9.23503 69.1884 9.47825 69.1884 9.77827V77.1396C69.1884 77.4397 68.9452 77.6829 68.6451 77.6829H24.0997C23.8047 77.6829 23.5647 77.4478 23.5567 77.1548V30.3696V28.5H23.5565V28H21.9268V29.8696V77.1396C21.9268 77.1497 21.9268 77.1598 21.927 77.1699Z" fill="white"/>
<path fill-rule="evenodd" clip-rule="evenodd" d="M40.3975 48.0765C40.3975 47.6264 40.7623 47.2616 41.2123 47.2616H60.2256C60.6756 47.2616 61.0405 47.6264 61.0405 48.0765C61.0405 48.5265 60.6756 48.8913 60.2256 48.8913H41.2123C40.7623 48.8913 40.3975 48.5265 40.3975 48.0765Z" fill="white"/>
<path fill-rule="evenodd" clip-rule="evenodd" d="M65.3856 59.2128H27.359C27.059 59.2128 26.8157 59.4561 26.8157 59.7561V72.7938C26.8157 73.0938 27.059 73.337 27.359 73.337H65.3856C65.6856 73.337 65.9288 73.0938 65.9288 72.7938V59.7561C65.9288 59.4561 65.6856 59.2128 65.3856 59.2128ZM27.359 57.5831C26.1589 57.5831 25.186 58.556 25.186 59.7561V72.7938C25.186 73.9938 26.1589 74.9667 27.359 74.9667H65.3856C66.5857 74.9667 67.5585 73.9938 67.5585 72.7938V59.7561C67.5585 58.556 66.5857 57.5831 65.3856 57.5831H27.359Z" fill="white"/>
<path fill-rule="evenodd" clip-rule="evenodd" d="M33.8781 68.9911C35.3782 68.9911 36.5943 67.775 36.5943 66.2749C36.5943 64.7748 35.3782 63.5587 33.8781 63.5587C32.378 63.5587 31.1619 64.7748 31.1619 66.2749C31.1619 67.775 32.378 68.9911 33.8781 68.9911ZM33.8781 70.6208C36.2783 70.6208 38.224 68.6751 38.224 66.2749C38.224 63.8747 36.2783 61.929 33.8781 61.929C31.478 61.929 29.5322 63.8747 29.5322 66.2749C29.5322 68.6751 31.478 70.6208 33.8781 70.6208Z" fill="white"/>
<path fill-rule="evenodd" clip-rule="evenodd" d="M40.397 64.3736C40.397 63.9236 40.7618 63.5588 41.2118 63.5588H60.2251C60.6752 63.5588 61.04 63.9236 61.04 64.3736C61.04 64.8237 60.6752 65.1885 60.2251 65.1885H41.2118C40.7618 65.1885 40.397 64.8237 40.397 64.3736Z" fill="white"/>
<path fill-rule="evenodd" clip-rule="evenodd" d="M40.397 68.7195C40.397 68.2695 40.7618 67.9047 41.2118 67.9047H60.2251C60.6752 67.9047 61.04 68.2695 61.04 68.7195C61.04 69.1696 60.6752 69.5344 60.2251 69.5344H41.2118C40.7618 69.5344 40.397 69.1696 40.397 68.7195Z" fill="white"/>
<path fill-rule="evenodd" clip-rule="evenodd" d="M2.47796 17.3868C1.10942 17.5367 0.121558 18.7677 0.271508 20.1362L1.62187 32.4605C1.77182 33.829 3.0028 34.8169 4.37134 34.6669L41.5358 30.5948C42.9043 30.4449 43.8922 29.2139 43.7423 27.8454L42.3919 15.5211C42.242 14.1526 41.011 13.1647 39.6424 13.3147L2.47796 17.3868ZM12.2874 25.0558C12.4507 26.547 11.3744 27.8883 9.88317 28.0517C8.39199 28.2151 7.05069 27.1387 6.8873 25.6475C6.72392 24.1563 7.80031 22.815 9.29149 22.6516C10.7827 22.4882 12.124 23.5646 12.2874 25.0558ZM13.9074 24.8783C14.1688 27.2642 12.4466 29.4103 10.0607 29.6717C7.67478 29.9331 5.52871 28.2109 5.26729 25.825C5.00587 23.4391 6.72809 21.293 9.11399 21.0316C11.4999 20.7702 13.6459 22.4924 13.9074 24.8783ZM15.7411 22.7581C15.6921 22.3107 16.015 21.9084 16.4624 21.8593L35.3625 19.7885C35.8099 19.7394 36.2123 20.0624 36.2613 20.5097C36.3103 20.9571 35.9874 21.3595 35.54 21.4085L16.6399 23.4794C16.1925 23.5284 15.7901 23.2055 15.7411 22.7581ZM17.1728 26.1664C16.7254 26.2155 16.4025 26.6178 16.4515 27.0652C16.5006 27.5126 16.9029 27.8355 17.3503 27.7865L36.2505 25.7156C36.6978 25.6666 37.0208 25.2642 36.9717 24.8168C36.9227 24.3695 36.5203 24.0465 36.073 24.0956L17.1728 26.1664Z" fill="white"/>
</svg>
