<svg width="21" height="23" viewBox="0 0 21 23" fill="none" xmlns="http://www.w3.org/2000/svg">
<g clip-path="url(#clip0)">
<path d="M1.55912 10.1803C2.4202 10.1803 3.11824 9.4454 3.11824 8.53887C3.11824 7.63234 2.4202 6.89746 1.55912 6.89746C0.698042 6.89746 0 7.63234 0 8.53887C0 9.4454 0.698042 10.1803 1.55912 10.1803Z" fill="white"/>
<path d="M4.91068 5.22813C5.77176 5.22813 6.4698 4.49325 6.4698 3.58672C6.4698 2.6802 5.77176 1.94531 4.91068 1.94531C4.0496 1.94531 3.35156 2.6802 3.35156 3.58672C3.35156 4.49325 4.0496 5.22813 4.91068 5.22813Z" fill="white"/>
<path d="M10.512 3.28282C11.3731 3.28282 12.0711 2.54793 12.0711 1.64141C12.0711 0.734884 11.3731 0 10.512 0C9.65092 0 8.95288 0.734884 8.95288 1.64141C8.95288 2.54793 9.65092 3.28282 10.512 3.28282Z" fill="white"/>
<path d="M16.1059 5.2484C16.967 5.2484 17.665 4.51351 17.665 3.60699C17.665 2.70046 16.967 1.96558 16.1059 1.96558C15.2448 1.96558 14.5468 2.70046 14.5468 3.60699C14.5468 4.51351 15.2448 5.2484 16.1059 5.2484Z" fill="white"/>
<path d="M19.4411 10.2106C20.3022 10.2106 21.0002 9.47567 21.0002 8.56914C21.0002 7.66262 20.3022 6.92773 19.4411 6.92773C18.58 6.92773 17.882 7.66262 17.882 8.56914C17.882 9.47567 18.58 10.2106 19.4411 10.2106Z" fill="white"/>
<path d="M10.4952 9.86116C10.8036 9.86116 11.105 9.95743 11.3614 10.1378C11.6178 10.3182 11.8177 10.5745 11.9357 10.8744C12.0537 11.1744 12.0846 11.5044 12.0244 11.8228C11.9642 12.1412 11.8157 12.4337 11.5977 12.6632C11.3797 12.8928 11.1018 13.0491 10.7994 13.1124C10.497 13.1758 10.1835 13.1433 9.89858 13.019C9.61369 12.8948 9.37019 12.6844 9.19887 12.4145C9.02755 12.1446 8.93611 11.8272 8.93611 11.5026C8.93611 11.287 8.97644 11.0736 9.05479 10.8744C9.13315 10.6753 9.24799 10.4943 9.39277 10.3419C9.53755 10.1895 9.70942 10.0686 9.89858 9.98611C10.0877 9.90362 10.2905 9.86116 10.4952 9.86116ZM10.4952 6.58594C9.57126 6.58444 8.66763 6.87152 7.89868 7.41085C7.12973 7.95018 6.53002 8.71753 6.17544 9.61579C5.82086 10.5141 5.72735 11.5029 5.90673 12.4571C6.08611 13.4113 6.53033 14.2881 7.18317 14.9765C7.83602 15.6648 8.66814 16.1338 9.57426 16.3242C10.4804 16.5145 11.4198 16.4176 12.2735 16.0457C13.1273 15.6738 13.8571 15.0436 14.3706 14.2349C14.8841 13.4262 15.1582 12.4753 15.1582 11.5026C15.1563 10.2005 14.6646 8.95228 13.7908 8.03089C12.9169 7.10949 11.732 6.58996 10.4952 6.58594Z" fill="white"/>
<path d="M10.4952 23.0001C8.21133 23.0078 5.98309 22.2584 4.1265 20.858C2.26992 19.4577 0.879212 17.4775 0.151609 15.1983C0.141568 15.1663 0.137725 15.1324 0.140306 15.0987C0.142886 15.065 0.151838 15.0322 0.166635 15.0023C0.181432 14.9723 0.201774 14.9457 0.226465 14.9242C0.251156 14.9026 0.279697 14.8864 0.310408 14.8766L2.81992 14.0433C2.85054 14.0323 2.88295 14.028 2.91521 14.0305C2.94746 14.033 2.97891 14.0423 3.00766 14.058C3.03641 14.0736 3.06187 14.0951 3.08253 14.1213C3.10319 14.1475 3.11862 14.1778 3.12789 14.2105C3.66229 15.822 4.65957 17.2186 5.98153 18.2069C7.3035 19.1951 8.8847 19.726 10.506 19.726C12.1274 19.726 13.7086 19.1951 15.0306 18.2069C16.3525 17.2186 17.3498 15.822 17.8842 14.2105C17.9045 14.1483 17.947 14.0969 18.0027 14.0671C18.0584 14.0373 18.1229 14.0315 18.1825 14.0509L20.6921 14.8817C20.7508 14.9041 20.7989 14.9497 20.8263 15.0088C20.8537 15.0678 20.8582 15.1358 20.8388 15.1983C20.1112 17.4775 18.7205 19.4577 16.8639 20.858C15.0073 22.2584 12.7791 23.0078 10.4952 23.0001Z" fill="white"/>
</g>
<defs>
<clipPath id="clip0">
<rect width="21" height="23" fill="white"/>
</clipPath>
</defs>
</svg>
