<svg width="71" height="87" viewBox="0 0 71 87" fill="none" xmlns="http://www.w3.org/2000/svg">
<path fill-rule="evenodd" clip-rule="evenodd" d="M24.2816 1.62971H68.827C69.127 1.62971 69.3702 1.87293 69.3702 2.17295V7.67383C69.1965 7.62911 69.0144 7.60532 68.8268 7.60532H24.2813C24.0938 7.60532 23.9119 7.62907 23.7383 7.67373V2.17295C23.7383 1.87293 23.9815 1.62971 24.2816 1.62971ZM23.7383 77.1548V9.76315C23.7463 9.47012 23.9864 9.23503 24.2813 9.23503H68.8268C69.1268 9.23503 69.37 9.47825 69.37 9.77827V77.1396C69.37 77.4397 69.1268 77.6829 68.8268 77.6829H24.2813C23.9864 77.6829 23.7463 77.4478 23.7383 77.1548ZM22.1086 77.1699V84.7449C22.1086 85.945 23.0815 86.9179 24.2816 86.9179H68.827C70.0271 86.9179 70.9999 85.945 70.9999 84.7449V2.17295C70.9999 0.972862 70.0271 0 68.827 0H24.2816C23.0815 0 22.1086 0.97286 22.1086 2.17295V9.74801C22.1085 9.75808 22.1084 9.76817 22.1084 9.77827V77.1396C22.1084 77.1497 22.1085 77.1598 22.1086 77.1699ZM23.7383 79.2442C23.9119 79.2888 24.0938 79.3126 24.2813 79.3126H68.8268C69.0144 79.3126 69.1965 79.2888 69.3702 79.2441V84.7449C69.3702 85.045 69.127 85.2882 68.827 85.2882H24.2816C23.9815 85.2882 23.7383 85.045 23.7383 84.7449V79.2442Z" fill="white"/>
<path fill-rule="evenodd" clip-rule="evenodd" d="M65.5672 38.5698H27.5406C27.2406 38.5698 26.9974 38.8131 26.9974 39.1131V52.1508C26.9974 52.4508 27.2406 52.694 27.5406 52.694H65.5672C65.8672 52.694 66.1104 52.4508 66.1104 52.1508V39.1131C66.1104 38.8131 65.8672 38.5698 65.5672 38.5698ZM27.5406 36.9401C26.3405 36.9401 25.3677 37.913 25.3677 39.1131V52.1508C25.3677 53.3508 26.3405 54.3237 27.5406 54.3237H65.5672C66.7673 54.3237 67.7402 53.3508 67.7402 52.1508V39.1131C67.7402 37.913 66.7673 36.9401 65.5672 36.9401H27.5406Z" fill="white"/>
<path fill-rule="evenodd" clip-rule="evenodd" d="M34.0598 48.3481C35.5599 48.3481 36.7759 47.132 36.7759 45.6319C36.7759 44.1318 35.5599 42.9157 34.0598 42.9157C32.5597 42.9157 31.3436 44.1318 31.3436 45.6319C31.3436 47.132 32.5597 48.3481 34.0598 48.3481ZM34.0598 49.9778C36.4599 49.9778 38.4057 48.0321 38.4057 45.6319C38.4057 43.2317 36.4599 41.286 34.0598 41.286C31.6596 41.286 29.7139 43.2317 29.7139 45.6319C29.7139 48.0321 31.6596 49.9778 34.0598 49.9778Z" fill="white"/>
<path fill-rule="evenodd" clip-rule="evenodd" d="M40.5786 43.7306C40.5786 43.2805 40.9434 42.9157 41.3935 42.9157H60.4068C60.8568 42.9157 61.2216 43.2805 61.2216 43.7306C61.2216 44.1806 60.8568 44.5454 60.4068 44.5454H41.3935C40.9434 44.5454 40.5786 44.1806 40.5786 43.7306Z" fill="white"/>
<path fill-rule="evenodd" clip-rule="evenodd" d="M40.5786 48.0765C40.5786 47.6265 40.9434 47.2616 41.3935 47.2616H60.4068C60.8568 47.2616 61.2216 47.6265 61.2216 48.0765C61.2216 48.5265 60.8568 48.8913 60.4068 48.8913H41.3935C40.9434 48.8913 40.5786 48.5265 40.5786 48.0765Z" fill="white"/>
<path fill-rule="evenodd" clip-rule="evenodd" d="M65.5672 59.2128H27.5406C27.2406 59.2128 26.9974 59.456 26.9974 59.7561V72.7937C26.9974 73.0938 27.2406 73.337 27.5406 73.337H65.5672C65.8672 73.337 66.1104 73.0938 66.1104 72.7937V59.7561C66.1104 59.456 65.8672 59.2128 65.5672 59.2128ZM27.5406 57.5831C26.3405 57.5831 25.3677 58.556 25.3677 59.7561V72.7937C25.3677 73.9938 26.3405 74.9667 27.5406 74.9667H65.5672C66.7673 74.9667 67.7402 73.9938 67.7402 72.7937V59.7561C67.7402 58.556 66.7673 57.5831 65.5672 57.5831H27.5406Z" fill="white"/>
<path fill-rule="evenodd" clip-rule="evenodd" d="M34.0598 68.9911C35.5599 68.9911 36.7759 67.775 36.7759 66.2749C36.7759 64.7748 35.5599 63.5587 34.0598 63.5587C32.5597 63.5587 31.3436 64.7748 31.3436 66.2749C31.3436 67.775 32.5597 68.9911 34.0598 68.9911ZM34.0598 70.6208C36.4599 70.6208 38.4057 68.6751 38.4057 66.2749C38.4057 63.8747 36.4599 61.929 34.0598 61.929C31.6596 61.929 29.7139 63.8747 29.7139 66.2749C29.7139 68.6751 31.6596 70.6208 34.0598 70.6208Z" fill="white"/>
<path fill-rule="evenodd" clip-rule="evenodd" d="M40.5786 64.3736C40.5786 63.9235 40.9434 63.5587 41.3935 63.5587H60.4068C60.8568 63.5587 61.2216 63.9235 61.2216 64.3736C61.2216 64.8236 60.8568 65.1884 60.4068 65.1884H41.3935C40.9434 65.1884 40.5786 64.8236 40.5786 64.3736Z" fill="white"/>
<path fill-rule="evenodd" clip-rule="evenodd" d="M40.5786 68.7195C40.5786 68.2694 40.9434 67.9046 41.3935 67.9046H60.4068C60.8568 67.9046 61.2216 68.2694 61.2216 68.7195C61.2216 69.1695 60.8568 69.5343 60.4068 69.5343H41.3935C40.9434 69.5343 40.5786 69.1695 40.5786 68.7195Z" fill="white"/>
<rect x="0.181641" y="17.6582" width="42.3725" height="17.3836" rx="2.49279" transform="rotate(-6.25291 0.181641 17.6582)" fill="white"/>
<path fill-rule="evenodd" clip-rule="evenodd" d="M10.0648 28.0517C11.556 27.8883 12.6324 26.547 12.469 25.0558C12.3056 23.5646 10.9643 22.4882 9.47313 22.6516C7.98195 22.815 6.90556 24.1563 7.06894 25.6475C7.23233 27.1387 8.57363 28.2151 10.0648 28.0517ZM10.2423 29.6717C12.6282 29.4103 14.3504 27.2642 14.089 24.8783C13.8276 22.4924 11.6815 20.7702 9.29563 21.0316C6.90973 21.293 5.18751 23.4391 5.44893 25.825C5.71035 28.2109 7.85642 29.9331 10.2423 29.6717Z" fill="#5C50CA"/>
<path fill-rule="evenodd" clip-rule="evenodd" d="M15.9227 22.7581C15.8737 22.3107 16.1966 21.9083 16.644 21.8593L35.5442 19.7884C35.9915 19.7394 36.3939 20.0623 36.4429 20.5097C36.4919 20.9571 36.169 21.3594 35.7217 21.4085L16.8215 23.4793C16.3741 23.5284 15.9718 23.2054 15.9227 22.7581Z" fill="#5C50CA"/>
<path fill-rule="evenodd" clip-rule="evenodd" d="M16.6332 27.0652C16.5842 26.6178 16.9071 26.2154 17.3544 26.1664L36.2546 24.0955C36.702 24.0465 37.1044 24.3694 37.1534 24.8168C37.2024 25.2642 36.8795 25.6665 36.4321 25.7156L17.5319 27.7864C17.0846 27.8355 16.6822 27.5125 16.6332 27.0652Z" fill="#5C50CA"/>
</svg>
