<svg width="114" height="121" viewBox="0 0 114 121" fill="none" xmlns="http://www.w3.org/2000/svg">
<path d="M17.8387 60.5512C20.3087 54.7546 41.3329 72.5311 43.1428 70.0726C44.9527 67.6142 14.3424 45.9748 17.7425 39.5663C21.1426 33.1577 45.6907 60.053 47.5007 59.6207C49.3107 59.1885 18.3566 28.9226 24.6024 24.8137C30.8483 20.7048 54.4706 54.4164 55.1397 52.1303C57.133 45.3199 33.9001 24.765 38.8767 19.5949C44.1848 14.0803 66.1283 50.0211 66.1283 50.0211C66.1283 50.0211 70.8299 57.1677 75.6643 58.728C80.4987 60.2882 67.1319 34.7599 71.5494 27.8716C75.4969 21.7163 78.6614 20.1589 89.5537 63.054C100.446 105.949 76.596 104.763 42.5333 80.1444C32.3695 72.7987 15.3687 66.3479 17.8387 60.5512Z" fill="#C4C0E5"/>
<path d="M65.3466 53.8105L64.4931 54.3316L64.5019 54.346L64.5112 54.3601L65.3466 53.8105ZM65.3466 53.8105C64.5112 54.3601 64.5113 54.3603 64.5114 54.3605L64.5118 54.3611L64.5128 54.3627L64.5162 54.3678L64.5281 54.3857L64.5719 54.4509C64.6099 54.5072 64.6653 54.5885 64.737 54.6916C64.8804 54.8977 65.0891 55.1917 65.3543 55.5483C65.8839 56.2605 66.6422 57.2277 67.5577 58.2471C69.3521 60.2452 71.8872 62.6015 74.5755 63.4691C75.0099 63.6093 75.5824 63.6764 76.1054 63.3573C76.6222 63.042 76.8187 62.5143 76.8953 62.107C77.0434 61.3201 76.8844 60.2383 76.6344 59.1072C76.2241 57.251 75.4439 54.7678 74.5987 52.0779C74.3806 51.3838 74.1581 50.6758 73.9366 49.9613C72.8438 46.4367 71.7572 42.7068 71.2132 39.4433C70.9414 37.8127 70.8113 36.3339 70.8732 35.0778C70.9356 33.8112 71.1894 32.8559 71.6094 32.2009C72.0974 31.4401 72.5444 30.7967 72.9763 30.3095C73.4179 29.8112 73.7662 29.5665 74.0313 29.4779C74.23 29.4116 74.4504 29.4054 74.7905 29.6217C75.1787 29.8685 75.6909 30.393 76.3192 31.3911C77.572 33.3811 79.0812 36.9145 80.9681 42.6946C82.8481 48.4539 85.0819 56.375 87.8027 67.0895C90.5124 77.7607 91.0196 85.5468 89.8343 90.8541C89.2449 93.4932 88.2455 95.4811 86.9263 96.9155C85.6132 98.3432 83.9369 99.2734 81.9009 99.7303C77.7794 100.655 72.1837 99.637 65.3903 96.7605C58.6279 93.8971 50.8178 89.2525 42.3374 83.1234C39.7523 81.2551 36.7463 79.4532 33.759 77.7232C32.9842 77.2746 32.2117 76.8313 31.4474 76.3927C29.2477 75.1305 27.1163 73.9075 25.1963 72.7082C22.5986 71.0856 20.4884 69.5663 19.1817 68.1392C17.8596 66.6954 17.5963 65.626 17.9769 64.7327C18.111 64.418 18.3371 64.2303 18.869 64.1823C19.4709 64.128 20.3405 64.282 21.4709 64.6736C23.7114 65.4498 26.5486 67.0022 29.4489 68.7111C30.455 69.304 31.4708 69.917 32.4643 70.5165C34.2878 71.6171 36.0365 72.6724 37.5137 73.475C38.6542 74.0948 39.7035 74.604 40.5524 74.874C40.9717 75.0074 41.4143 75.1066 41.8304 75.0963C42.2542 75.0859 42.8007 74.9517 43.1664 74.4549C43.6127 73.8488 43.4108 73.1596 43.2587 72.7975C43.083 72.3792 42.7838 71.9346 42.4373 71.4919C41.7343 70.5938 40.6572 69.4811 39.3724 68.2402C37.8636 66.783 35.9986 65.0837 34.0132 63.2747C32.6229 62.0079 31.1735 60.6873 29.746 59.3583C26.2466 56.1003 22.8445 52.7619 20.532 49.8574C19.3727 48.4013 18.5282 47.1043 18.0722 46.0185C17.6052 44.9063 17.6307 44.2267 17.8441 43.8244C17.9567 43.6122 18.0845 43.51 18.2248 43.4507C18.3839 43.3834 18.6351 43.3412 19.0211 43.3879C19.8169 43.4844 20.9197 43.9248 22.2922 44.7135C25.0098 46.2751 28.3913 48.9668 31.7822 51.8983C34.2293 54.014 36.6449 56.222 38.7877 58.1807C39.6071 58.9298 40.3867 59.6424 41.1129 60.2994C42.4169 61.4792 43.5578 62.4878 44.4351 63.1903C44.8707 63.5392 45.2674 63.8337 45.6012 64.0384C45.7664 64.1396 45.9462 64.2376 46.1275 64.3068C46.2712 64.3616 46.5895 64.4693 46.9513 64.3829C47.1952 64.3246 47.466 64.1714 47.6397 63.8794C47.7952 63.6178 47.8034 63.3595 47.792 63.2086C47.7709 62.929 47.6555 62.6822 47.5822 62.5386C47.4139 62.2088 47.1312 61.8004 46.7972 61.3571C46.114 60.4507 45.0574 59.1938 43.7843 57.7147C43.0588 56.8717 42.2592 55.9524 41.4096 54.9754C39.2576 52.5009 36.7842 49.6568 34.3768 46.7479C31.0145 42.685 27.833 38.5566 25.882 35.2107C24.9002 33.5268 24.2781 32.1208 24.0661 31.064C23.8524 29.999 24.0983 29.6175 24.3703 29.4386C24.7271 29.2038 25.3675 29.1314 26.5106 29.6126C27.6239 30.0813 28.9741 30.9812 30.4986 32.2324C33.5368 34.7258 37.052 38.4323 40.4326 42.2416C42.5782 44.6593 44.6399 47.0839 46.4812 49.2494C47.5455 50.501 48.5362 51.6661 49.427 52.6933C50.6284 54.0786 51.6576 55.224 52.4164 55.9543C52.7813 56.3055 53.1495 56.6262 53.4785 56.8135C53.6184 56.8932 53.9164 57.0486 54.2816 57.0295C54.4976 57.0181 54.7456 56.9444 54.9605 56.7603C55.1669 56.5834 55.2686 56.3683 55.3177 56.2006C55.6548 55.0489 55.4302 53.7403 54.9696 52.4437C54.5012 51.125 53.736 49.6753 52.8102 48.1669C51.1667 45.489 48.9329 42.494 46.7344 39.5462C46.4586 39.1765 46.1835 38.8076 45.9101 38.4401C43.4318 35.1087 41.1066 31.9056 39.7026 29.2271C38.999 27.8849 38.5675 26.7489 38.4364 25.844C38.3077 24.9561 38.4811 24.4251 38.8154 24.0778C39.0725 23.8108 39.4875 23.6546 40.4101 24.0335C41.3501 24.4195 42.537 25.2727 43.9133 26.546C46.6454 29.0738 49.8407 32.9871 52.9079 37.125C55.9663 41.2508 58.8631 45.5529 60.9972 48.827C62.0637 50.4632 62.9386 51.8408 63.5465 52.8088C63.8504 53.2928 64.0875 53.6742 64.2484 53.9344C64.3289 54.0644 64.3903 54.1641 64.4315 54.2311L64.4779 54.3068L64.4894 54.3257L64.4923 54.3303L64.4929 54.3314C64.493 54.3316 64.4931 54.3316 65.3466 53.8105ZM45.8257 63.5019C45.8256 63.5019 45.8245 63.4992 45.8228 63.4941C45.825 63.4994 45.8258 63.502 45.8257 63.5019ZM46.8405 62.4382C46.839 62.4377 46.8373 62.4369 46.8352 62.4361C46.8544 62.4417 46.8573 62.4446 46.8405 62.4382Z" stroke="#5C51CB" stroke-width="2"/>
<path d="M47.8648 11.224C47.8648 11.224 50.7139 8.28027 56.5855 9.20991C62.4571 10.1396 64.276 14.8709 64.276 14.8709" stroke="#5C51CB" stroke-width="2" stroke-linecap="round"/>
<path d="M52.6508 4.68472C52.6508 4.68472 54.6083 2.75618 58.6957 3.41657C62.783 4.07696 64.0828 7.22517 64.0828 7.22517" stroke="#5C51CB" stroke-width="2" stroke-linecap="round"/>
<path d="M24.0354 85.3506C24.0354 85.3506 23.7474 89.4372 28.3608 93.1864C32.9743 96.9355 37.7105 95.1292 37.7105 95.1292" stroke="#5C51CB" stroke-width="2" stroke-linecap="round"/>
<path d="M22.365 93.2801C22.365 93.2801 22.2371 96.0251 25.4584 98.6261C28.6798 101.227 31.891 100.092 31.891 100.092" stroke="#5C51CB" stroke-width="2" stroke-linecap="round"/>
</svg>
