<svg width="114" height="120" viewBox="0 0 114 120" fill="none" xmlns="http://www.w3.org/2000/svg">
<path d="M17.8389 59.5512C20.3089 53.7545 41.3331 71.531 43.1431 69.0726C44.953 66.6141 14.3426 44.9748 17.7427 38.5662C21.1429 32.1577 45.691 59.0529 47.501 58.6207C49.311 58.1885 18.3569 27.9225 24.6027 23.8136C30.8485 19.7047 54.4708 53.4163 55.1399 51.1302C57.1332 44.3198 33.9004 23.765 38.877 18.5948C44.185 13.0803 66.1286 49.021 66.1286 49.021C66.1286 49.021 70.8302 56.1677 75.6646 57.7279C80.499 59.2881 67.1321 33.7598 71.5496 26.8716C75.4971 20.7162 78.6616 19.1589 89.5539 62.0539C100.446 104.949 76.5962 103.762 42.5336 79.1443C32.3697 71.7986 15.3689 65.3478 17.8389 59.5512Z" fill="#BBE0DC"/>
<path d="M65.3463 52.8105L64.4928 53.3316L64.5016 53.346L64.5109 53.3601L65.3463 52.8105ZM65.3463 52.8105C64.5109 53.3601 64.511 53.3603 64.5112 53.3605L64.5115 53.361L64.5126 53.3626L64.516 53.3677L64.5278 53.3856L64.5717 53.4509C64.6097 53.5071 64.6651 53.5884 64.7368 53.6915C64.8801 53.8977 65.0889 54.1916 65.354 54.5482C65.8836 55.2604 66.642 56.2277 67.5574 57.247C69.3519 59.2451 71.887 61.6014 74.5752 62.469C75.0096 62.6092 75.5821 62.6764 76.1051 62.3573C76.6219 62.042 76.8184 61.5142 76.8951 61.1069C77.0432 60.3201 76.8841 59.2383 76.6341 58.1071C76.2238 56.2509 75.4436 53.7677 74.5984 51.0779C74.3803 50.3837 74.1579 49.6757 73.9364 48.9612C72.8436 45.4366 71.757 41.7067 71.2129 38.4433C70.9411 36.8126 70.8111 35.3338 70.873 34.0778C70.9354 32.8112 71.1891 31.8558 71.6092 31.2009C72.0971 30.44 72.5442 29.7967 72.976 29.3094C73.4176 28.8112 73.766 28.5664 74.031 28.4779C74.2297 28.4115 74.4502 28.4054 74.7903 28.6216C75.1785 28.8684 75.6906 29.393 76.319 30.3911C77.5718 32.3811 79.0809 35.9144 80.9678 41.6945C82.8479 47.4538 85.0817 55.3749 87.8024 66.0895C90.5121 76.7606 91.0193 84.5467 89.834 89.854C89.2446 92.4931 88.2453 94.481 86.9261 95.9154C85.613 97.3432 83.9367 98.2734 81.9006 98.7303C77.7791 99.6552 72.1834 98.6369 65.3901 95.7604C58.6276 92.897 50.8176 88.2524 42.3371 82.1233C39.7521 80.255 36.746 78.4531 33.7587 76.7232C32.984 76.2745 32.2114 75.8312 31.4471 75.3926C29.2475 74.1305 27.1161 72.9074 25.1961 71.7081C22.5983 70.0855 20.4881 68.5662 19.1814 67.1392C17.8593 65.6953 17.596 64.6259 17.9767 63.7326C18.1108 63.4179 18.3369 63.2302 18.8687 63.1823C19.4707 63.128 20.3403 63.2819 21.4706 63.6735C23.7112 64.4497 26.5484 66.0021 29.4486 67.7111C30.4548 68.3039 31.4705 68.9169 32.464 69.5165C34.2876 70.617 36.0363 71.6723 37.5134 72.475C38.6539 73.0947 39.7032 73.6039 40.5521 73.8739C40.9715 74.0073 41.4141 74.1065 41.8302 74.0962C42.254 74.0858 42.8004 73.9516 43.1661 73.4549C43.6124 72.8487 43.4105 72.1595 43.2585 71.7974C43.0828 71.3791 42.7836 70.9345 42.437 70.4918C41.7341 69.5938 40.657 68.4811 39.3722 67.2402C37.8634 65.7829 35.9984 64.0837 34.013 62.2746C32.6226 61.0078 31.1733 59.6872 29.7457 58.3582C26.2463 55.1003 22.8443 51.7619 20.5317 48.8573C19.3725 47.4012 18.5279 46.1042 18.072 45.0184C17.6049 43.9062 17.6304 43.2267 17.8439 42.8243C17.9565 42.6121 18.0842 42.5099 18.2245 42.4506C18.3837 42.3834 18.6349 42.3411 19.0208 42.3879C19.8166 42.4844 20.9195 42.9247 22.2919 43.7134C25.0095 45.2751 28.391 47.9667 31.7819 50.8983C34.2291 53.0139 36.6446 55.2219 38.7874 57.1806C39.6069 57.9297 40.3865 58.6423 41.1127 59.2993C42.4167 60.4791 43.5575 61.4878 44.4348 62.1903C44.8705 62.5391 45.2671 62.8336 45.601 63.0383C45.7661 63.1395 45.9459 63.2375 46.1273 63.3068C46.271 63.3616 46.5892 63.4692 46.951 63.3828C47.195 63.3245 47.4658 63.1714 47.6394 62.8793C47.7949 62.6177 47.8032 62.3595 47.7917 62.2086C47.7706 61.9289 47.6552 61.6821 47.582 61.5386C47.4136 61.2088 47.131 60.8003 46.7969 60.3571C46.1137 59.4506 45.0572 58.1938 43.7841 56.7147C43.0585 55.8717 42.259 54.9523 41.4093 53.9753C39.2574 51.5009 36.7839 48.6568 34.3766 45.7478C31.0143 41.6849 27.8328 37.5566 25.8818 34.2106C24.8999 32.5268 24.2779 31.1207 24.0658 30.0639C23.8521 28.9989 24.098 28.6175 24.3701 28.4385C24.7269 28.2038 25.3673 28.1313 26.5104 28.6126C27.6237 29.0812 28.9738 29.9812 30.4984 31.2323C33.5365 33.7258 37.0518 37.4322 40.4324 41.2416C42.578 43.6593 44.6396 46.0838 46.481 48.2493C47.5453 49.5009 48.536 50.666 49.4268 51.6932C50.6281 53.0785 51.6573 54.224 52.4162 54.9543C52.7811 55.3054 53.1493 55.6261 53.4782 55.8135C53.6182 55.8931 53.9162 56.0486 54.2813 56.0294C54.4973 56.0181 54.7453 55.9443 54.9602 55.7602C55.1667 55.5833 55.2683 55.3683 55.3174 55.2006C55.6545 54.0489 55.43 52.7402 54.9694 51.4436C54.5009 50.1249 53.7357 48.6752 52.81 47.1669C51.1665 44.4889 48.9327 41.4939 46.7341 38.5462C46.4584 38.1765 46.1832 37.8075 45.9098 37.44C43.4315 34.1087 41.1064 30.9055 39.7023 28.2271C38.9987 26.8849 38.5673 25.7489 38.4361 24.8439C38.3074 23.9561 38.4809 23.4251 38.8152 23.0778C39.0722 22.8107 39.4872 22.6546 40.4098 23.0334C41.3498 23.4194 42.5368 24.2727 43.913 25.546C46.6452 28.0738 49.8405 31.987 52.9077 36.1249C55.966 40.2508 58.8628 44.5529 60.997 47.827C62.0635 49.4632 62.9383 50.8407 63.5462 51.8087C63.8501 52.2927 64.0873 52.6742 64.2482 52.9343C64.3286 53.0644 64.39 53.1641 64.4312 53.2311L64.4776 53.3067L64.4892 53.3256L64.492 53.3302L64.4927 53.3313C64.4928 53.3315 64.4928 53.3316 65.3463 52.8105ZM45.8255 62.5018C45.8254 62.5018 45.8243 62.4991 45.8225 62.4941C45.8247 62.4994 45.8256 62.5019 45.8255 62.5018ZM46.8403 61.4382C46.8388 61.4376 46.837 61.4369 46.8349 61.436C46.8541 61.4416 46.8571 61.4446 46.8403 61.4382Z" stroke="#1B998B" stroke-width="2"/>
</svg>
